NotoAmalgamated-Black.ufo
<glyph name="exclam.sans" format="2">
  <advance width="429"/>
  <unicode hex="0021"/>
  <outline>
    <contour>
      <point x="122" y="714" type="line"/>
      <point x="147" y="252" type="line"/>
      <point x="308" y="252" type="line"/>
      <point x="333" y="714" type="line"/>
    </contour>
    <contour>
      <point x="124" y="81" type="curve"/>
      <point x="124" y="81" type="line"/>
      <point x="124" y="15"/>
      <point x="171" y="-12"/>
      <point x="227" y="-12" type="curve"/>
      <point x="282" y="-12"/>
      <point x="328" y="15"/>
      <point x="328" y="81" type="curve"/>
      <point x="328" y="150"/>
      <point x="282" y="175"/>
      <point x="227" y="175" type="curve"/>
      <point x="171" y="175"/>
      <point x="124" y="150"/>
    </contour>
  </outline>
</glyph>
<glyph name="quotedbl" format="2">
  <advance width="524"/>
  <unicode hex="0022"/>
  <note>
quotedbl
</note>
  <outline>
    <contour>
      <point x="233" y="714" type="line"/>
      <point x="59" y="714" type="line"/>
      <point x="79" y="456" type="line"/>
      <point x="213" y="456" type="line"/>
    </contour>
    <contour>
      <point x="465" y="714" type="line"/>
      <point x="291" y="714" type="line"/>
      <point x="311" y="456" type="line"/>
      <point x="445" y="456" type="line"/>
    </contour>
  </outline>
</glyph>
<glyph name="quotedbl.sans" format="2">
  <advance width="582"/>
  <unicode hex="0022"/>
  <outline>
    <contour>
      <point x="96" y="729" type="line"/>
      <point x="116" y="471" type="line"/>
      <point x="250" y="471" type="line"/>
      <point x="270" y="729" type="line"/>
    </contour>
    <contour>
      <point x="328" y="729" type="line"/>
      <point x="348" y="471" type="line"/>
      <point x="482" y="471" type="line"/>
      <point x="502" y="729" type="line"/>
    </contour>
  </outline>
</glyph>
<glyph name="numbersign" format="2">
  <advance width="676"/>
  <unicode hex="0023"/>
  <outline>
    <contour>
      <point x="44" y="153" type="line"/>
      <point x="140" y="153" type="line"/>
      <point x="112" y="0" type="line"/>
      <point x="246" y="0" type="line"/>
      <point x="274" y="153" type="line"/>
      <point x="341" y="153" type="line"/>
      <point x="313" y="0" type="line"/>
      <point x="447" y="0" type="line"/>
      <point x="475" y="153" type="line"/>
      <point x="600" y="153" type="line"/>
      <point x="600" y="272" type="line"/>
      <point x="497" y="272" type="line"/>
      <point x="514" y="366" type="line"/>
      <point x="632" y="366" type="line"/>
      <point x="632" y="485" type="line"/>
      <point x="536" y="485" type="line"/>
      <point x="563" y="632" type="line"/>
      <point x="429" y="632" type="line"/>
      <point x="402" y="485" type="line"/>
      <point x="335" y="485" type="line"/>
      <point x="362" y="632" type="line"/>
      <point x="228" y="632" type="line"/>
      <point x="201" y="485" type="line"/>
      <point x="76" y="485" type="line"/>
      <point x="76" y="366" type="line"/>
      <point x="179" y="366" type="line"/>
      <point x="162" y="272" type="line"/>
      <point x="44" y="272" type="line"/>
    </contour>
    <contour>
      <point x="383" y="369" type="line"/>
      <point x="364" y="269" type="line"/>
      <point x="292" y="269" type="line"/>
      <point x="311" y="369" type="line"/>
    </contour>
  </outline>
</glyph>
<glyph name="numbersign.sans" format="2">
  <advance width="676"/>
  <unicode hex="0023"/>
  <outline>
    <contour>
      <point x="44" y="246" type="line"/>
      <point x="140" y="246" type="line"/>
      <point x="112" y="93" type="line"/>
      <point x="246" y="93" type="line"/>
      <point x="274" y="246" type="line"/>
      <point x="341" y="246" type="line"/>
      <point x="313" y="93" type="line"/>
      <point x="447" y="93" type="line"/>
      <point x="475" y="246" type="line"/>
      <point x="600" y="246" type="line"/>
      <point x="600" y="365" type="line"/>
      <point x="497" y="365" type="line"/>
      <point x="514" y="459" type="line"/>
      <point x="632" y="459" type="line"/>
      <point x="632" y="578" type="line"/>
      <point x="536" y="578" type="line"/>
      <point x="563" y="725" type="line"/>
      <point x="429" y="725" type="line"/>
      <point x="402" y="578" type="line"/>
      <point x="335" y="578" type="line"/>
      <point x="362" y="725" type="line"/>
      <point x="228" y="725" type="line"/>
      <point x="201" y="578" type="line"/>
      <point x="76" y="578" type="line"/>
      <point x="76" y="459" type="line"/>
      <point x="179" y="459" type="line"/>
      <point x="162" y="365" type="line"/>
      <point x="44" y="365" type="line"/>
    </contour>
    <contour>
      <point x="383" y="462" type="line"/>
      <point x="364" y="362" type="line"/>
      <point x="292" y="362" type="line"/>
      <point x="311" y="462" type="line"/>
    </contour>
  </outline>
</glyph>
<glyph name="percent.sans" format="2">
  <advance width="960"/>
  <unicode hex="0025"/>
  <outline>
    <contour>
      <point x="747" y="622" type="line"/>
      <point x="607" y="622" type="line"/>
      <point x="211" y="0" type="line"/>
      <point x="351" y="0" type="line"/>
    </contour>
    <contour>
      <point x="220" y="258" type="curve"/>
      <point x="220" y="258" type="line"/>
      <point x="341" y="258"/>
      <point x="406" y="328"/>
      <point x="406" y="446" type="curve"/>
      <point x="406" y="564"/>
      <point x="338" y="632"/>
      <point x="220" y="632" type="curve"/>
      <point x="106" y="632"/>
      <point x="38" y="564"/>
      <point x="38" y="446" type="curve"/>
      <point x="38" y="328"/>
      <point x="105" y="258"/>
    </contour>
    <contour>
      <point x="222" y="376" type="curve"/>
      <point x="222" y="376" type="line"/>
      <point x="194" y="376"/>
      <point x="185" y="403"/>
      <point x="185" y="445" type="curve"/>
      <point x="185" y="487"/>
      <point x="194" y="514"/>
      <point x="222" y="514" type="curve"/>
      <point x="250" y="514"/>
      <point x="259" y="487"/>
      <point x="259" y="445" type="curve"/>
      <point x="259" y="403"/>
      <point x="250" y="376"/>
    </contour>
    <contour>
      <point x="740" y="-8" type="curve"/>
      <point x="740" y="-8" type="line"/>
      <point x="857" y="-8"/>
      <point x="922" y="60"/>
      <point x="922" y="178" type="curve"/>
      <point x="922" y="296"/>
      <point x="855" y="366"/>
      <point x="740" y="366" type="curve"/>
      <point x="622" y="366"/>
      <point x="554" y="298"/>
      <point x="554" y="180" type="curve"/>
      <point x="554" y="62"/>
      <point x="621" y="-8"/>
    </contour>
    <contour>
      <point x="738" y="110" type="curve"/>
      <point x="738" y="110" type="line"/>
      <point x="710" y="110"/>
      <point x="701" y="137"/>
      <point x="701" y="179" type="curve"/>
      <point x="701" y="221"/>
      <point x="710" y="248"/>
      <point x="738" y="248" type="curve"/>
      <point x="766" y="248"/>
      <point x="775" y="223"/>
      <point x="775" y="179" type="curve"/>
      <point x="775" y="137"/>
      <point x="766" y="110"/>
    </contour>
  </outline>
</glyph>
<glyph name="quotesingle" format="2">
  <advance width="292"/>
  <unicode hex="0027"/>
  <note>
quotesingle
</note>
  <outline>
    <contour>
      <point x="233" y="714" type="line"/>
      <point x="59" y="714" type="line"/>
      <point x="79" y="456" type="line"/>
      <point x="213" y="456" type="line"/>
    </contour>
  </outline>
</glyph>
<glyph name="quotesingle.sans" format="2">
  <advance width="348"/>
  <unicode hex="0027"/>
  <outline>
    <contour>
      <point x="94" y="729" type="line"/>
      <point x="114" y="471" type="line"/>
      <point x="248" y="471" type="line"/>
      <point x="268" y="729" type="line"/>
    </contour>
  </outline>
</glyph>
<glyph name="parenleft" format="2">
  <advance width="359"/>
  <unicode hex="0028"/>
  <outline>
    <contour>
      <point x="36" y="284" type="curve" smooth="yes"/>
      <point x="36" y="123"/>
      <point x="72" y="-41"/>
      <point x="173" y="-158" type="curve"/>
      <point x="331" y="-158" type="line"/>
      <point x="242" y="-36"/>
      <point x="204" y="130"/>
      <point x="204" y="285" type="curve" smooth="yes"/>
      <point x="204" y="443"/>
      <point x="242" y="609"/>
      <point x="332" y="734" type="curve"/>
      <point x="173" y="734" type="line"/>
      <point x="72" y="613"/>
      <point x="36" y="447"/>
    </contour>
  </outline>
</glyph>
<glyph name="parenleft.sans" format="2">
  <advance width="412"/>
  <unicode hex="0028"/>
  <outline>
    <contour>
      <point x="203" y="-165" type="curve"/>
      <point x="203" y="-165" type="line"/>
      <point x="361" y="-165" type="line"/>
      <point x="275" y="-27"/>
      <point x="234" y="157"/>
      <point x="234" y="331" type="curve"/>
      <point x="234" y="507"/>
      <point x="274" y="692"/>
      <point x="362" y="832" type="curve"/>
      <point x="203" y="832" type="line"/>
      <point x="109" y="695"/>
      <point x="66" y="511"/>
      <point x="66" y="333" type="curve"/>
      <point x="66" y="149"/>
      <point x="110" y="-32"/>
    </contour>
  </outline>
</glyph>
<glyph name="parenright.sans" format="2">
  <advance width="412"/>
  <unicode hex="0029"/>
  <outline>
    <contour>
      <point x="50" y="-165" type="curve"/>
      <point x="50" y="-165" type="line"/>
      <point x="209" y="-165" type="line"/>
      <point x="303" y="-28"/>
      <point x="346" y="156"/>
      <point x="346" y="334" type="curve"/>
      <point x="346" y="518"/>
      <point x="302" y="699"/>
      <point x="209" y="832" type="curve"/>
      <point x="51" y="832" type="line"/>
      <point x="137" y="694"/>
      <point x="178" y="510"/>
      <point x="178" y="336" type="curve"/>
      <point x="178" y="160"/>
      <point x="138" y="-25"/>
    </contour>
  </outline>
</glyph>
<glyph name="asterisk.sans" format="2">
  <advance width="612"/>
  <unicode hex="002A"/>
  <outline>
    <contour>
      <point x="217" y="468" type="line"/>
      <point x="116" y="332" type="line"/>
      <point x="249" y="266" type="line"/>
      <point x="309" y="403" type="line"/>
      <point x="379" y="265" type="line"/>
      <point x="506" y="332" type="line"/>
      <point x="405" y="468" type="line"/>
      <point x="558" y="478" type="line"/>
      <point x="540" y="622" type="line"/>
      <point x="366" y="573" type="line"/>
      <point x="385" y="745" type="line"/>
      <point x="237" y="745" type="line"/>
      <point x="256" y="573" type="line"/>
      <point x="86" y="622" type="line"/>
      <point x="64" y="480" type="line"/>
    </contour>
  </outline>
</glyph>
<glyph name="plus" format="2">
  <advance width="585"/>
  <unicode hex="002B"/>
  <outline>
    <contour>
      <point x="55" y="259" type="line"/>
      <point x="226" y="259" type="line"/>
      <point x="226" y="88" type="line"/>
      <point x="360" y="88" type="line"/>
      <point x="360" y="259" type="line"/>
      <point x="531" y="259" type="line"/>
      <point x="531" y="388" type="line"/>
      <point x="360" y="388" type="line"/>
      <point x="360" y="563" type="line"/>
      <point x="226" y="563" type="line"/>
      <point x="226" y="388" type="line"/>
      <point x="55" y="388" type="line"/>
    </contour>
  </outline>
</glyph>
<glyph name="plus.sans" format="2">
  <advance width="585"/>
  <unicode hex="002B"/>
  <outline>
    <contour>
      <point x="55" y="352" type="line"/>
      <point x="226" y="352" type="line"/>
      <point x="226" y="181" type="line"/>
      <point x="360" y="181" type="line"/>
      <point x="360" y="352" type="line"/>
      <point x="531" y="352" type="line"/>
      <point x="531" y="481" type="line"/>
      <point x="360" y="481" type="line"/>
      <point x="360" y="656" type="line"/>
      <point x="226" y="656" type="line"/>
      <point x="226" y="481" type="line"/>
      <point x="55" y="481" type="line"/>
    </contour>
  </outline>
</glyph>
<glyph name="comma.sans" format="2">
  <advance width="299"/>
  <unicode hex="002C"/>
  <outline>
    <contour>
      <point x="31" y="-139" type="curve"/>
      <point x="31" y="-139" type="line"/>
      <point x="167" y="-139" type="line"/>
      <point x="200" y="-65"/>
      <point x="235" y="63"/>
      <point x="253" y="135" type="curve"/>
      <point x="246" y="146" type="line"/>
      <point x="79" y="146" type="line"/>
      <point x="70" y="66"/>
      <point x="50" y="-48"/>
    </contour>
  </outline>
</glyph>
<glyph name="hyphen" format="2">
  <advance width="318"/>
  <unicode hex="002D"/>
  <anchor x="159" y="0" name="bottom"/>
  <anchor x="297" y="0" name="bottomright"/>
  <anchor x="159" y="608" name="top"/>
  <anchor x="297" y="608" name="topright"/>
  <outline>
    <contour>
      <point x="21" y="192" type="line"/>
      <point x="297" y="192" type="line"/>
      <point x="297" y="344" type="line"/>
      <point x="21" y="344" type="line"/>
    </contour>
  </outline>
</glyph>
<glyph name="period.sans" format="2">
  <advance width="299"/>
  <unicode hex="002E"/>
  <outline>
    <contour>
      <point x="47" y="81" type="curve"/>
      <point x="47" y="81" type="line"/>
      <point x="47" y="15"/>
      <point x="94" y="-12"/>
      <point x="151" y="-12" type="curve"/>
      <point x="205" y="-12"/>
      <point x="251" y="15"/>
      <point x="251" y="81" type="curve"/>
      <point x="251" y="150"/>
      <point x="205" y="175"/>
      <point x="151" y="175" type="curve"/>
      <point x="94" y="175"/>
      <point x="47" y="150"/>
    </contour>
  </outline>
</glyph>
<glyph name="slash" format="2">
  <advance width="442"/>
  <unicode hex="002F"/>
  <outline>
    <contour>
      <point x="440" y="724" type="line"/>
      <point x="271" y="724" type="line"/>
      <point x="5" y="-10" type="line"/>
      <point x="174" y="-10" type="line"/>
    </contour>
  </outline>
</glyph>
<glyph name="slash.sans" format="2">
  <advance width="507"/>
  <unicode hex="002F"/>
  <outline>
    <contour>
      <point x="477" y="833" type="line"/>
      <point x="315" y="833" type="line"/>
      <point x="29" y="-166" type="line"/>
      <point x="191" y="-166" type="line"/>
    </contour>
  </outline>
</glyph>
<glyph name="zero.sans" format="2">
  <advance width="578"/>
  <unicode hex="0030"/>
  <outline>
    <contour>
      <point x="289" y="-10" type="curve"/>
      <point x="289" y="-10" type="line"/>
      <point x="478" y="-10"/>
      <point x="543" y="129"/>
      <point x="543" y="356" type="curve"/>
      <point x="543" y="589"/>
      <point x="464" y="724"/>
      <point x="289" y="724" type="curve"/>
      <point x="102" y="724"/>
      <point x="35" y="589"/>
      <point x="35" y="356" type="curve"/>
      <point x="35" y="126"/>
      <point x="113" y="-10"/>
    </contour>
    <contour>
      <point x="289" y="143" type="curve"/>
      <point x="289" y="143" type="line"/>
      <point x="237" y="143"/>
      <point x="225" y="215"/>
      <point x="225" y="356" type="curve"/>
      <point x="225" y="498"/>
      <point x="237" y="571"/>
      <point x="289" y="571" type="curve"/>
      <point x="341" y="571"/>
      <point x="353" y="498"/>
      <point x="353" y="356" type="curve"/>
      <point x="353" y="214"/>
      <point x="341" y="143"/>
    </contour>
  </outline>
</glyph>
<glyph name="one.sans" format="2">
  <advance width="578"/>
  <unicode hex="0031"/>
  <outline>
    <contour>
      <point x="262" y="355" type="curve"/>
      <point x="262" y="0" type="line"/>
      <point x="455" y="0" type="line"/>
      <point x="455" y="714" type="line"/>
      <point x="283" y="714" type="line"/>
      <point x="41" y="512" type="line"/>
      <point x="141" y="391" type="line"/>
      <point x="220" y="458" type="line" smooth="yes"/>
      <point x="234" y="470"/>
      <point x="248" y="484"/>
      <point x="264" y="504" type="curve"/>
      <point x="262" y="454"/>
      <point x="262" y="376"/>
    </contour>
  </outline>
</glyph>
<glyph name="two.sans" format="2">
  <advance width="578"/>
  <unicode hex="0032"/>
  <outline>
    <contour>
      <point x="200" y="303" type="curve"/>
      <point x="30" y="126" type="line"/>
      <point x="30" y="0" type="line"/>
      <point x="539" y="0" type="line"/>
      <point x="539" y="158" type="line"/>
      <point x="274" y="158" type="line"/>
      <point x="274" y="163" type="line"/>
      <point x="328" y="214" type="line" smooth="yes"/>
      <point x="461" y="337"/>
      <point x="525" y="408"/>
      <point x="525" y="529" type="curve"/>
      <point x="525" y="641"/>
      <point x="433" y="724"/>
      <point x="290" y="724" type="curve"/>
      <point x="162" y="724"/>
      <point x="87" y="668"/>
      <point x="22" y="610" type="curve"/>
      <point x="126" y="487" type="line"/>
      <point x="183" y="538"/>
      <point x="224" y="563"/>
      <point x="269" y="563" type="curve"/>
      <point x="306" y="563"/>
      <point x="336" y="545"/>
      <point x="336" y="503" type="curve"/>
      <point x="336" y="451"/>
      <point x="307" y="416"/>
    </contour>
  </outline>
</glyph>
<glyph name="three.sans" format="2">
  <advance width="578"/>
  <unicode hex="0033"/>
  <outline>
    <contour>
      <point x="244" y="-10" type="curve"/>
      <point x="244" y="-10" type="line"/>
      <point x="446" y="-10"/>
      <point x="537" y="86"/>
      <point x="537" y="204" type="curve"/>
      <point x="537" y="304"/>
      <point x="474" y="358"/>
      <point x="362" y="373" type="curve"/>
      <point x="362" y="376" type="line"/>
      <point x="446" y="400"/>
      <point x="517" y="458"/>
      <point x="517" y="557" type="curve"/>
      <point x="517" y="662"/>
      <point x="428" y="724"/>
      <point x="283" y="724" type="curve"/>
      <point x="163" y="724"/>
      <point x="94" y="693"/>
      <point x="35" y="652" type="curve"/>
      <point x="113" y="524" type="line"/>
      <point x="136" y="539"/>
      <point x="190" y="570"/>
      <point x="253" y="570" type="curve"/>
      <point x="301" y="570"/>
      <point x="332" y="552"/>
      <point x="332" y="514" type="curve"/>
      <point x="332" y="468"/>
      <point x="294" y="438"/>
      <point x="187" y="438" type="curve"/>
      <point x="143" y="438" type="line"/>
      <point x="143" y="293" type="line"/>
      <point x="186" y="293" type="line" smooth="yes"/>
      <point x="306" y="293"/>
      <point x="336" y="265"/>
      <point x="336" y="216" type="curve"/>
      <point x="336" y="170"/>
      <point x="308" y="141"/>
      <point x="216" y="141" type="curve"/>
      <point x="163" y="141"/>
      <point x="95" y="156"/>
      <point x="34" y="188" type="curve"/>
      <point x="34" y="29" type="line"/>
      <point x="95" y="4"/>
      <point x="154" y="-10"/>
    </contour>
  </outline>
</glyph>
<glyph name="four.sans" format="2">
  <advance width="578"/>
  <unicode hex="0034"/>
  <outline>
    <contour>
      <point x="17" y="138" type="line"/>
      <point x="297" y="138" type="line"/>
      <point x="297" y="0" type="line"/>
      <point x="485" y="0" type="line"/>
      <point x="485" y="138" type="line"/>
      <point x="563" y="138" type="line"/>
      <point x="563" y="281" type="line"/>
      <point x="485" y="281" type="line"/>
      <point x="485" y="714" type="line"/>
      <point x="309" y="714" type="line"/>
      <point x="17" y="279" type="line"/>
    </contour>
    <contour>
      <point x="297" y="366" type="curve"/>
      <point x="297" y="278" type="line"/>
      <point x="179" y="278" type="line"/>
      <point x="258" y="401" type="line" smooth="yes"/>
      <point x="274" y="427"/>
      <point x="284" y="442"/>
      <point x="296" y="471" type="curve"/>
      <point x="301" y="471" type="line"/>
      <point x="300" y="469"/>
      <point x="297" y="394"/>
    </contour>
  </outline>
</glyph>
<glyph name="five.sans" format="2">
  <advance width="578"/>
  <unicode hex="0035"/>
  <outline>
    <contour>
      <point x="246" y="-10" type="curve"/>
      <point x="246" y="-10" type="line"/>
      <point x="438" y="-10"/>
      <point x="532" y="78"/>
      <point x="532" y="238" type="curve"/>
      <point x="532" y="384"/>
      <point x="437" y="468"/>
      <point x="320" y="468" type="curve"/>
      <point x="276" y="468"/>
      <point x="259" y="463"/>
      <point x="237" y="459" type="curve"/>
      <point x="246" y="554" type="line"/>
      <point x="485" y="554" type="line"/>
      <point x="485" y="714" type="line"/>
      <point x="84" y="714" type="line"/>
      <point x="58" y="338" type="line"/>
      <point x="127" y="303" type="line"/>
      <point x="153" y="311"/>
      <point x="188" y="320"/>
      <point x="223" y="320" type="curve"/>
      <point x="301" y="320"/>
      <point x="339" y="287"/>
      <point x="339" y="232" type="curve"/>
      <point x="339" y="172"/>
      <point x="300" y="141"/>
      <point x="230" y="141" type="curve"/>
      <point x="172" y="141"/>
      <point x="96" y="163"/>
      <point x="46" y="186" type="curve"/>
      <point x="46" y="29" type="line"/>
      <point x="98" y="3"/>
      <point x="165" y="-10"/>
    </contour>
  </outline>
</glyph>
<glyph name="six.sans" format="2">
  <advance width="578"/>
  <unicode hex="0036"/>
  <outline>
    <contour>
      <point x="299" y="-10" type="curve"/>
      <point x="299" y="-10" type="line"/>
      <point x="453" y="-10"/>
      <point x="547" y="84"/>
      <point x="547" y="244" type="curve"/>
      <point x="547" y="392"/>
      <point x="474" y="476"/>
      <point x="351" y="476" type="curve"/>
      <point x="277" y="476"/>
      <point x="237" y="441"/>
      <point x="212" y="393" type="curve"/>
      <point x="206" y="393" type="line"/>
      <point x="212" y="508"/>
      <point x="258" y="575"/>
      <point x="399" y="575" type="curve"/>
      <point x="445" y="575"/>
      <point x="476" y="571"/>
      <point x="503" y="566" type="curve"/>
      <point x="503" y="716" type="line"/>
      <point x="476" y="720"/>
      <point x="430" y="724"/>
      <point x="401" y="724" type="curve"/>
      <point x="92" y="724"/>
      <point x="34" y="508"/>
      <point x="34" y="302" type="curve"/>
      <point x="34" y="90"/>
      <point x="147" y="-10"/>
    </contour>
    <contour>
      <point x="295" y="142" type="curve"/>
      <point x="295" y="142" type="line"/>
      <point x="246" y="142"/>
      <point x="224" y="198"/>
      <point x="224" y="250" type="curve"/>
      <point x="224" y="289"/>
      <point x="250" y="328"/>
      <point x="297" y="328" type="curve"/>
      <point x="343" y="328"/>
      <point x="362" y="295"/>
      <point x="362" y="240" type="curve"/>
      <point x="362" y="172"/>
      <point x="335" y="142"/>
    </contour>
  </outline>
</glyph>
<glyph name="seven.sans" format="2">
  <advance width="578"/>
  <unicode hex="0037"/>
  <outline>
    <contour>
      <point x="38" y="554" type="line"/>
      <point x="342" y="554" type="line"/>
      <point x="101" y="0" type="line"/>
      <point x="299" y="0" type="line"/>
      <point x="545" y="599" type="line"/>
      <point x="545" y="713" type="line"/>
      <point x="38" y="713" type="line"/>
    </contour>
  </outline>
</glyph>
<glyph name="eight.sans" format="2">
  <advance width="578"/>
  <unicode hex="0038"/>
  <outline>
    <contour>
      <point x="289" y="-10" type="curve"/>
      <point x="289" y="-10" type="line"/>
      <point x="465" y="-10"/>
      <point x="546" y="74"/>
      <point x="546" y="190" type="curve"/>
      <point x="546" y="282"/>
      <point x="474" y="336"/>
      <point x="405" y="376" type="curve"/>
      <point x="477" y="412"/>
      <point x="526" y="465"/>
      <point x="526" y="550" type="curve"/>
      <point x="526" y="666"/>
      <point x="431" y="724"/>
      <point x="291" y="724" type="curve"/>
      <point x="152" y="724"/>
      <point x="54" y="666"/>
      <point x="54" y="551" type="curve"/>
      <point x="54" y="469"/>
      <point x="101" y="414"/>
      <point x="161" y="373" type="curve"/>
      <point x="86" y="334"/>
      <point x="33" y="285"/>
      <point x="33" y="188" type="curve"/>
      <point x="33" y="70"/>
      <point x="112" y="-10"/>
    </contour>
    <contour>
      <point x="287" y="128" type="curve"/>
      <point x="287" y="128" type="line"/>
      <point x="237" y="128"/>
      <point x="208" y="155"/>
      <point x="208" y="196" type="curve"/>
      <point x="208" y="238"/>
      <point x="243" y="267"/>
      <point x="287" y="291" type="curve"/>
      <point x="329" y="266"/>
      <point x="371" y="233"/>
      <point x="371" y="192" type="curve"/>
      <point x="371" y="152"/>
      <point x="344" y="128"/>
    </contour>
    <contour>
      <point x="288" y="459" type="curve"/>
      <point x="288" y="459" type="line"/>
      <point x="256" y="477"/>
      <point x="232" y="503"/>
      <point x="232" y="533" type="curve"/>
      <point x="232" y="565"/>
      <point x="258" y="586"/>
      <point x="290" y="586" type="curve"/>
      <point x="320" y="586"/>
      <point x="346" y="566"/>
      <point x="346" y="533" type="curve"/>
      <point x="346" y="496"/>
      <point x="316" y="476"/>
    </contour>
  </outline>
</glyph>
<glyph name="nine.sans" format="2">
  <advance width="578"/>
  <unicode hex="0039"/>
  <outline>
    <contour>
      <point x="173" y="-10" type="curve"/>
      <point x="173" y="-10" type="line"/>
      <point x="447" y="-10"/>
      <point x="545" y="128"/>
      <point x="545" y="389" type="curve"/>
      <point x="545" y="623"/>
      <point x="427" y="721"/>
      <point x="275" y="721" type="curve"/>
      <point x="120" y="721"/>
      <point x="26" y="627"/>
      <point x="26" y="468" type="curve"/>
      <point x="26" y="320"/>
      <point x="101" y="235"/>
      <point x="220" y="235" type="curve"/>
      <point x="311" y="235"/>
      <point x="341" y="270"/>
      <point x="367" y="318" type="curve"/>
      <point x="373" y="318" type="line"/>
      <point x="368" y="223"/>
      <point x="324" y="139"/>
      <point x="157" y="139" type="curve"/>
      <point x="127" y="139"/>
      <point x="101" y="142"/>
      <point x="73" y="147" type="curve"/>
      <point x="73" y="-5" type="line"/>
      <point x="100" y="-9"/>
      <point x="144" y="-10"/>
    </contour>
    <contour>
      <point x="278" y="383" type="curve"/>
      <point x="278" y="383" type="line"/>
      <point x="233" y="383"/>
      <point x="211" y="416"/>
      <point x="211" y="470" type="curve"/>
      <point x="211" y="539"/>
      <point x="239" y="568"/>
      <point x="280" y="568" type="curve"/>
      <point x="329" y="568"/>
      <point x="355" y="510"/>
      <point x="355" y="461" type="curve"/>
      <point x="355" y="424"/>
      <point x="324" y="383"/>
    </contour>
  </outline>
</glyph>
<glyph name="colon.sans" format="2">
  <advance width="348"/>
  <unicode hex="003A"/>
  <outline>
    <contour>
      <point x="176" y="373" type="curve"/>
      <point x="176" y="373" type="line"/>
      <point x="230" y="373"/>
      <point x="276" y="400"/>
      <point x="276" y="467" type="curve"/>
      <point x="276" y="535"/>
      <point x="230" y="560"/>
      <point x="176" y="560" type="curve"/>
      <point x="119" y="560"/>
      <point x="72" y="535"/>
      <point x="72" y="467" type="curve"/>
      <point x="72" y="400"/>
      <point x="119" y="373"/>
    </contour>
    <contour>
      <point x="176" y="-12" type="curve"/>
      <point x="176" y="-12" type="line"/>
      <point x="230" y="-12"/>
      <point x="276" y="15"/>
      <point x="276" y="81" type="curve"/>
      <point x="276" y="150"/>
      <point x="230" y="175"/>
      <point x="176" y="175" type="curve"/>
      <point x="119" y="175"/>
      <point x="72" y="150"/>
      <point x="72" y="81" type="curve"/>
      <point x="72" y="15"/>
      <point x="119" y="-12"/>
    </contour>
  </outline>
</glyph>
<glyph name="semicolon.sans" format="2">
  <advance width="348"/>
  <unicode hex="003B"/>
  <outline>
    <contour>
      <point x="277" y="135" type="curve"/>
      <point x="270" y="146" type="line"/>
      <point x="103" y="146" type="line"/>
      <point x="94" y="66"/>
      <point x="74" y="-48"/>
      <point x="55" y="-139" type="curve"/>
      <point x="191" y="-139" type="line"/>
      <point x="224" y="-65"/>
      <point x="259" y="63"/>
    </contour>
    <contour>
      <point x="175" y="373" type="curve"/>
      <point x="175" y="373" type="line"/>
      <point x="229" y="373"/>
      <point x="276" y="400"/>
      <point x="276" y="467" type="curve"/>
      <point x="276" y="535"/>
      <point x="229" y="560"/>
      <point x="175" y="560" type="curve"/>
      <point x="118" y="560"/>
      <point x="72" y="535"/>
      <point x="72" y="467" type="curve"/>
      <point x="72" y="400"/>
      <point x="118" y="373"/>
    </contour>
  </outline>
</glyph>
<glyph name="less" format="2">
  <advance width="585"/>
  <unicode hex="003C"/>
  <outline>
    <contour>
      <point x="55" y="369" type="line"/>
      <point x="55" y="284" type="line"/>
      <point x="531" y="65" type="line"/>
      <point x="531" y="210" type="line"/>
      <point x="251" y="332" type="line"/>
      <point x="531" y="471" type="line"/>
      <point x="531" y="616" type="line"/>
    </contour>
  </outline>
</glyph>
<glyph name="less.sans" format="2">
  <advance width="585"/>
  <unicode hex="003C"/>
  <outline>
    <contour>
      <point x="55" y="462" type="line"/>
      <point x="55" y="377" type="line"/>
      <point x="531" y="158" type="line"/>
      <point x="531" y="303" type="line"/>
      <point x="251" y="425" type="line"/>
      <point x="531" y="564" type="line"/>
      <point x="531" y="709" type="line"/>
    </contour>
  </outline>
</glyph>
<glyph name="equal" format="2">
  <advance width="585"/>
  <unicode hex="003D"/>
  <outline>
    <contour>
      <point x="531" y="484" type="line"/>
      <point x="55" y="484" type="line"/>
      <point x="55" y="354" type="line"/>
      <point x="531" y="354" type="line"/>
    </contour>
    <contour>
      <point x="531" y="293" type="line"/>
      <point x="55" y="293" type="line"/>
      <point x="55" y="162" type="line"/>
      <point x="531" y="162" type="line"/>
    </contour>
  </outline>
</glyph>
<glyph name="equal.sans" format="2">
  <advance width="585"/>
  <unicode hex="003D"/>
  <outline>
    <contour>
      <point x="531" y="577" type="line"/>
      <point x="55" y="577" type="line"/>
      <point x="55" y="447" type="line"/>
      <point x="531" y="447" type="line"/>
    </contour>
    <contour>
      <point x="531" y="386" type="line"/>
      <point x="55" y="386" type="line"/>
      <point x="55" y="255" type="line"/>
      <point x="531" y="255" type="line"/>
    </contour>
  </outline>
</glyph>
<glyph name="greater" format="2">
  <advance width="585"/>
  <unicode hex="003E"/>
  <outline>
    <contour>
      <point x="335" y="332" type="line"/>
      <point x="55" y="210" type="line"/>
      <point x="55" y="65" type="line"/>
      <point x="531" y="284" type="line"/>
      <point x="531" y="369" type="line"/>
      <point x="55" y="616" type="line"/>
      <point x="55" y="471" type="line"/>
    </contour>
  </outline>
</glyph>
<glyph name="greater.sans" format="2">
  <advance width="585"/>
  <unicode hex="003E"/>
  <outline>
    <contour>
      <point x="335" y="425" type="line"/>
      <point x="55" y="303" type="line"/>
      <point x="55" y="158" type="line"/>
      <point x="531" y="377" type="line"/>
      <point x="531" y="462" type="line"/>
      <point x="55" y="709" type="line"/>
      <point x="55" y="564" type="line"/>
    </contour>
  </outline>
</glyph>
<glyph name="question.sans" format="2">
  <advance width="567"/>
  <unicode hex="003F"/>
  <outline>
    <contour>
      <point x="173" y="294" type="curve"/>
      <point x="173" y="252" type="line"/>
      <point x="323" y="252" type="line"/>
      <point x="323" y="274" type="line" smooth="yes"/>
      <point x="323" y="308"/>
      <point x="341" y="322"/>
      <point x="392" y="358" type="curve"/>
      <point x="481" y="421"/>
      <point x="510" y="463"/>
      <point x="510" y="546" type="curve"/>
      <point x="510" y="653"/>
      <point x="431" y="724"/>
      <point x="283" y="724" type="curve"/>
      <point x="203" y="724"/>
      <point x="130" y="705"/>
      <point x="55" y="669" type="curve"/>
      <point x="122" y="535" type="line"/>
      <point x="172" y="559"/>
      <point x="219" y="574"/>
      <point x="269" y="574" type="curve"/>
      <point x="313" y="574"/>
      <point x="330" y="555"/>
      <point x="330" y="526" type="curve"/>
      <point x="330" y="501"/>
      <point x="318" y="479"/>
      <point x="256" y="436" type="curve"/>
      <point x="193" y="392"/>
      <point x="173" y="356"/>
    </contour>
    <contour>
      <point x="152" y="81" type="curve"/>
      <point x="152" y="81" type="line"/>
      <point x="152" y="15"/>
      <point x="198" y="-12"/>
      <point x="255" y="-12" type="curve"/>
      <point x="310" y="-12"/>
      <point x="356" y="15"/>
      <point x="356" y="81" type="curve"/>
      <point x="356" y="150"/>
      <point x="310" y="175"/>
      <point x="255" y="175" type="curve"/>
      <point x="198" y="175"/>
      <point x="152" y="150"/>
    </contour>
  </outline>
</glyph>
<glyph name="bracketleft" format="2">
  <advance width="324"/>
  <unicode hex="005B"/>
  <note>
bracketleft
</note>
  <outline>
    <contour>
      <point x="301" y="-44" type="line"/>
      <point x="212" y="-44" type="line"/>
      <point x="212" y="610" type="line"/>
      <point x="301" y="610" type="line"/>
      <point x="301" y="734" type="line"/>
      <point x="57" y="734" type="line"/>
      <point x="57" y="-168" type="line"/>
      <point x="301" y="-168" type="line"/>
    </contour>
  </outline>
</glyph>
<glyph name="bracketleft.sans" format="2">
  <advance width="406"/>
  <unicode hex="005B"/>
  <outline>
    <contour>
      <point x="357" y="832" type="line"/>
      <point x="105" y="832" type="line"/>
      <point x="105" y="-166" type="line"/>
      <point x="357" y="-166" type="line"/>
      <point x="357" y="-42" type="line"/>
      <point x="260" y="-42" type="line"/>
      <point x="260" y="708" type="line"/>
      <point x="357" y="708" type="line"/>
    </contour>
  </outline>
</glyph>
<glyph name="backslash" format="2">
  <advance width="507"/>
  <unicode hex="005C"/>
  <outline>
    <contour>
      <point x="191" y="834" type="line"/>
      <point x="29" y="834" type="line"/>
      <point x="315" y="-166" type="line"/>
      <point x="477" y="-166" type="line"/>
    </contour>
  </outline>
</glyph>
<glyph name="backslash.sans" format="2">
  <advance width="507"/>
  <unicode hex="005C"/>
  <outline>
    <contour>
      <point x="191" y="927" type="line"/>
      <point x="29" y="927" type="line"/>
      <point x="315" y="-73" type="line"/>
      <point x="477" y="-73" type="line"/>
    </contour>
  </outline>
</glyph>
<glyph name="bracketright" format="2">
  <advance width="324"/>
  <unicode hex="005D"/>
  <note>
bracketright
</note>
  <outline>
    <contour>
      <point x="23" y="-168" type="line"/>
      <point x="267" y="-168" type="line"/>
      <point x="267" y="734" type="line"/>
      <point x="23" y="734" type="line"/>
      <point x="23" y="610" type="line"/>
      <point x="112" y="610" type="line"/>
      <point x="112" y="-44" type="line"/>
      <point x="23" y="-44" type="line"/>
    </contour>
  </outline>
</glyph>
<glyph name="bracketright.sans" format="2">
  <advance width="406"/>
  <unicode hex="005D"/>
  <outline>
    <contour>
      <point x="146" y="-42" type="line"/>
      <point x="49" y="-42" type="line"/>
      <point x="49" y="-166" type="line"/>
      <point x="301" y="-166" type="line"/>
      <point x="301" y="832" type="line"/>
      <point x="49" y="832" type="line"/>
      <point x="49" y="708" type="line"/>
      <point x="146" y="708" type="line"/>
    </contour>
  </outline>
</glyph>
<glyph name="asciicircum" format="2">
  <advance width="585"/>
  <unicode hex="005E"/>
  <outline>
    <contour>
      <point x="336" y="717" type="line"/>
      <point x="250" y="717" type="line"/>
      <point x="16" y="244" type="line"/>
      <point x="164" y="244" type="line"/>
      <point x="293" y="525" type="line"/>
      <point x="421" y="244" type="line"/>
      <point x="570" y="244" type="line"/>
    </contour>
  </outline>
</glyph>
<glyph name="asciicircum.sans" format="2">
  <advance width="585"/>
  <unicode hex="005E"/>
  <outline>
    <contour>
      <point x="336" y="810" type="line"/>
      <point x="250" y="810" type="line"/>
      <point x="16" y="337" type="line"/>
      <point x="164" y="337" type="line"/>
      <point x="293" y="618" type="line"/>
      <point x="421" y="337" type="line"/>
      <point x="570" y="337" type="line"/>
    </contour>
  </outline>
</glyph>
<glyph name="underscore.sans" format="2">
  <advance width="411"/>
  <unicode hex="005F"/>
  <outline>
    <contour>
      <point x="413" y="3" type="line"/>
      <point x="-2" y="3" type="line"/>
      <point x="-2" y="-65" type="line"/>
      <point x="413" y="-65" type="line"/>
    </contour>
  </outline>
</glyph>
<glyph name="braceleft" format="2">
  <advance width="459"/>
  <unicode hex="007B"/>
  <outline>
    <contour>
      <point x="39" y="400" type="curve"/>
      <point x="39" y="400" type="line"/>
      <point x="39" y="253" type="line"/>
      <point x="99" y="253"/>
      <point x="159" y="230"/>
      <point x="159" y="170" type="curve"/>
      <point x="159" y="2" type="line" smooth="yes"/>
      <point x="159" y="-115"/>
      <point x="205" y="-166"/>
      <point x="410" y="-166" type="curve"/>
      <point x="410" y="-30" type="line"/>
      <point x="371" y="-29"/>
      <point x="317" y="-27"/>
      <point x="317" y="22" type="curve"/>
      <point x="317" y="204" type="line" smooth="yes"/>
      <point x="317" y="280"/>
      <point x="276" y="312"/>
      <point x="200" y="324" type="curve"/>
      <point x="200" y="330" type="line"/>
      <point x="274" y="340"/>
      <point x="317" y="372"/>
      <point x="317" y="453" type="curve"/>
      <point x="317" y="644" type="line" smooth="yes"/>
      <point x="317" y="694"/>
      <point x="370" y="695"/>
      <point x="410" y="696" type="curve"/>
      <point x="410" y="832" type="line"/>
      <point x="202" y="832"/>
      <point x="159" y="780"/>
      <point x="159" y="666" type="curve"/>
      <point x="159" y="483" type="line" smooth="yes"/>
      <point x="159" y="422"/>
      <point x="101" y="400"/>
    </contour>
  </outline>
</glyph>
<glyph name="braceleft.sans" format="2">
  <advance width="459"/>
  <unicode hex="007B"/>
  <outline>
    <contour>
      <point x="39" y="493" type="curve"/>
      <point x="39" y="493" type="line"/>
      <point x="39" y="346" type="line"/>
      <point x="99" y="346"/>
      <point x="159" y="323"/>
      <point x="159" y="263" type="curve"/>
      <point x="159" y="95" type="line" smooth="yes"/>
      <point x="159" y="-22"/>
      <point x="205" y="-73"/>
      <point x="410" y="-73" type="curve"/>
      <point x="410" y="63" type="line"/>
      <point x="371" y="64"/>
      <point x="317" y="66"/>
      <point x="317" y="115" type="curve"/>
      <point x="317" y="297" type="line" smooth="yes"/>
      <point x="317" y="373"/>
      <point x="276" y="405"/>
      <point x="200" y="417" type="curve"/>
      <point x="200" y="423" type="line"/>
      <point x="274" y="433"/>
      <point x="317" y="465"/>
      <point x="317" y="546" type="curve"/>
      <point x="317" y="737" type="line" smooth="yes"/>
      <point x="317" y="787"/>
      <point x="370" y="788"/>
      <point x="410" y="789" type="curve"/>
      <point x="410" y="925" type="line"/>
      <point x="202" y="925"/>
      <point x="159" y="873"/>
      <point x="159" y="759" type="curve"/>
      <point x="159" y="576" type="line" smooth="yes"/>
      <point x="159" y="515"/>
      <point x="101" y="493"/>
    </contour>
  </outline>
</glyph>
<glyph name="bar" format="2">
  <advance width="540"/>
  <unicode hex="007C"/>
  <outline>
    <contour>
      <point x="336" y="832" type="line"/>
      <point x="201" y="832" type="line"/>
      <point x="201" y="-166" type="line"/>
      <point x="336" y="-166" type="line"/>
    </contour>
  </outline>
</glyph>
<glyph name="bar.sans" format="2">
  <advance width="540"/>
  <unicode hex="007C"/>
  <outline>
    <contour>
      <point x="336" y="925" type="line"/>
      <point x="201" y="925" type="line"/>
      <point x="201" y="-73" type="line"/>
      <point x="336" y="-73" type="line"/>
    </contour>
  </outline>
</glyph>
<glyph name="braceright" format="2">
  <advance width="459"/>
  <unicode hex="007D"/>
  <outline>
    <contour>
      <point x="420" y="266" type="curve"/>
      <point x="420" y="266" type="line"/>
      <point x="420" y="413" type="line"/>
      <point x="360" y="413"/>
      <point x="300" y="436"/>
      <point x="300" y="496" type="curve"/>
      <point x="300" y="664" type="line" smooth="yes"/>
      <point x="300" y="781"/>
      <point x="254" y="832"/>
      <point x="49" y="832" type="curve"/>
      <point x="49" y="696" type="line"/>
      <point x="88" y="695"/>
      <point x="142" y="693"/>
      <point x="142" y="644" type="curve"/>
      <point x="142" y="462" type="line" smooth="yes"/>
      <point x="142" y="386"/>
      <point x="183" y="354"/>
      <point x="259" y="342" type="curve"/>
      <point x="259" y="336" type="line"/>
      <point x="185" y="326"/>
      <point x="142" y="294"/>
      <point x="142" y="213" type="curve"/>
      <point x="142" y="22" type="line" smooth="yes"/>
      <point x="142" y="-28"/>
      <point x="89" y="-29"/>
      <point x="49" y="-30" type="curve"/>
      <point x="49" y="-166" type="line"/>
      <point x="257" y="-166"/>
      <point x="300" y="-114"/>
      <point x="300" y="0" type="curve"/>
      <point x="300" y="183" type="line" smooth="yes"/>
      <point x="300" y="244"/>
      <point x="358" y="266"/>
    </contour>
  </outline>
</glyph>
<glyph name="braceright.sans" format="2">
  <advance width="459"/>
  <unicode hex="007D"/>
  <outline>
    <contour>
      <point x="420" y="359" type="curve"/>
      <point x="420" y="359" type="line"/>
      <point x="420" y="506" type="line"/>
      <point x="360" y="506"/>
      <point x="300" y="529"/>
      <point x="300" y="589" type="curve"/>
      <point x="300" y="757" type="line" smooth="yes"/>
      <point x="300" y="874"/>
      <point x="254" y="925"/>
      <point x="49" y="925" type="curve"/>
      <point x="49" y="789" type="line"/>
      <point x="88" y="788"/>
      <point x="142" y="786"/>
      <point x="142" y="737" type="curve"/>
      <point x="142" y="555" type="line" smooth="yes"/>
      <point x="142" y="479"/>
      <point x="183" y="447"/>
      <point x="259" y="435" type="curve"/>
      <point x="259" y="429" type="line"/>
      <point x="185" y="419"/>
      <point x="142" y="387"/>
      <point x="142" y="306" type="curve"/>
      <point x="142" y="115" type="line" smooth="yes"/>
      <point x="142" y="65"/>
      <point x="89" y="64"/>
      <point x="49" y="63" type="curve"/>
      <point x="49" y="-73" type="line"/>
      <point x="257" y="-73"/>
      <point x="300" y="-21"/>
      <point x="300" y="93" type="curve"/>
      <point x="300" y="276" type="line" smooth="yes"/>
      <point x="300" y="337"/>
      <point x="358" y="359"/>
    </contour>
  </outline>
</glyph>
<glyph name="asciitilde" format="2">
  <advance width="585"/>
  <unicode hex="007E"/>
  <outline>
    <contour>
      <point x="55" y="366" type="curve"/>
      <point x="55" y="366" type="line"/>
      <point x="55" y="229" type="line"/>
      <point x="91" y="260"/>
      <point x="132" y="288"/>
      <point x="171" y="288" type="curve"/>
      <point x="201" y="288"/>
      <point x="225" y="280"/>
      <point x="275" y="259" type="curve"/>
      <point x="338" y="233"/>
      <point x="363" y="230"/>
      <point x="403" y="230" type="curve"/>
      <point x="455" y="230"/>
      <point x="498" y="246"/>
      <point x="531" y="283" type="curve"/>
      <point x="531" y="420" type="line"/>
      <point x="497" y="387"/>
      <point x="456" y="361"/>
      <point x="415" y="361" type="curve"/>
      <point x="387" y="361"/>
      <point x="360" y="368"/>
      <point x="311" y="388" type="curve"/>
      <point x="249" y="413"/>
      <point x="223" y="419"/>
      <point x="183" y="419" type="curve"/>
      <point x="131" y="419"/>
      <point x="88" y="400"/>
    </contour>
  </outline>
</glyph>
<glyph name="asciitilde.sans" format="2">
  <advance width="585"/>
  <unicode hex="007E"/>
  <outline>
    <contour>
      <point x="55" y="459" type="curve"/>
      <point x="55" y="459" type="line"/>
      <point x="55" y="322" type="line"/>
      <point x="91" y="353"/>
      <point x="132" y="381"/>
      <point x="171" y="381" type="curve"/>
      <point x="201" y="381"/>
      <point x="225" y="373"/>
      <point x="275" y="352" type="curve"/>
      <point x="338" y="326"/>
      <point x="363" y="323"/>
      <point x="403" y="323" type="curve"/>
      <point x="455" y="323"/>
      <point x="498" y="339"/>
      <point x="531" y="376" type="curve"/>
      <point x="531" y="513" type="line"/>
      <point x="497" y="480"/>
      <point x="456" y="454"/>
      <point x="415" y="454" type="curve"/>
      <point x="387" y="454"/>
      <point x="360" y="461"/>
      <point x="311" y="481" type="curve"/>
      <point x="249" y="506"/>
      <point x="223" y="512"/>
      <point x="183" y="512" type="curve"/>
      <point x="131" y="512"/>
      <point x="88" y="493"/>
    </contour>
  </outline>
</glyph>
<glyph name="guillemetleft" format="2">
  <advance width="673"/>
  <unicode hex="00AB"/>
  <outline>
    <contour>
      <point x="36" y="286" type="line"/>
      <point x="36" y="273" type="line"/>
      <point x="225" y="40" type="line"/>
      <point x="359" y="110" type="line"/>
      <point x="225" y="280" type="line"/>
      <point x="359" y="449" type="line"/>
      <point x="225" y="520" type="line"/>
    </contour>
    <contour>
      <point x="313" y="286" type="line"/>
      <point x="313" y="273" type="line"/>
      <point x="501" y="40" type="line"/>
      <point x="636" y="110" type="line"/>
      <point x="501" y="280" type="line"/>
      <point x="636" y="449" type="line"/>
      <point x="501" y="520" type="line"/>
    </contour>
  </outline>
</glyph>
<glyph name="guillemetright" format="2">
  <advance width="673"/>
  <unicode hex="00BB"/>
  <outline>
    <contour>
      <point x="636" y="273" type="line"/>
      <point x="636" y="286" type="line"/>
      <point x="448" y="520" type="line"/>
      <point x="313" y="449" type="line"/>
      <point x="447" y="280" type="line"/>
      <point x="313" y="110" type="line"/>
      <point x="448" y="40" type="line"/>
    </contour>
    <contour>
      <point x="359" y="273" type="line"/>
      <point x="359" y="286" type="line"/>
      <point x="171" y="520" type="line"/>
      <point x="37" y="449" type="line"/>
      <point x="170" y="280" type="line"/>
      <point x="37" y="110" type="line"/>
      <point x="171" y="40" type="line"/>
    </contour>
  </outline>
</glyph>
<glyph name="multiply.sans" format="2">
  <advance width="585"/>
  <unicode hex="00D7"/>
  <outline>
    <contour>
      <point x="151" y="94" type="line"/>
      <point x="291" y="236" type="line"/>
      <point x="434" y="93" type="line"/>
      <point x="525" y="184" type="line"/>
      <point x="384" y="326" type="line"/>
      <point x="528" y="469" type="line"/>
      <point x="434" y="559" type="line"/>
      <point x="291" y="417" type="line"/>
      <point x="151" y="559" type="line"/>
      <point x="58" y="467" type="line"/>
      <point x="199" y="326" type="line"/>
      <point x="59" y="184" type="line"/>
    </contour>
  </outline>
</glyph>
<glyph name="divide" format="2">
  <advance width="585"/>
  <unicode hex="00F7"/>
  <outline>
    <contour>
      <point x="531" y="388" type="line"/>
      <point x="55" y="388" type="line"/>
      <point x="55" y="259" type="line"/>
      <point x="531" y="259" type="line"/>
    </contour>
    <contour>
      <point x="293" y="68" type="curve"/>
      <point x="293" y="68" type="line"/>
      <point x="334" y="68"/>
      <point x="370" y="91"/>
      <point x="370" y="151" type="curve"/>
      <point x="370" y="213"/>
      <point x="334" y="234"/>
      <point x="293" y="234" type="curve"/>
      <point x="251" y="234"/>
      <point x="215" y="213"/>
      <point x="215" y="151" type="curve"/>
      <point x="215" y="91"/>
      <point x="251" y="68"/>
    </contour>
    <contour>
      <point x="293" y="409" type="curve"/>
      <point x="293" y="409" type="line"/>
      <point x="334" y="409"/>
      <point x="370" y="432"/>
      <point x="370" y="492" type="curve"/>
      <point x="370" y="552"/>
      <point x="334" y="575"/>
      <point x="293" y="575" type="curve"/>
      <point x="251" y="575"/>
      <point x="215" y="552"/>
      <point x="215" y="492" type="curve"/>
      <point x="215" y="432"/>
      <point x="251" y="409"/>
    </contour>
  </outline>
</glyph>
<glyph name="divide.sans" format="2">
  <advance width="585"/>
  <unicode hex="00F7"/>
  <outline>
    <contour>
      <point x="531" y="481" type="line"/>
      <point x="55" y="481" type="line"/>
      <point x="55" y="352" type="line"/>
      <point x="531" y="352" type="line"/>
    </contour>
    <contour>
      <point x="293" y="161" type="curve"/>
      <point x="293" y="161" type="line"/>
      <point x="334" y="161"/>
      <point x="370" y="184"/>
      <point x="370" y="244" type="curve"/>
      <point x="370" y="306"/>
      <point x="334" y="327"/>
      <point x="293" y="327" type="curve"/>
      <point x="251" y="327"/>
      <point x="215" y="306"/>
      <point x="215" y="244" type="curve"/>
      <point x="215" y="184"/>
      <point x="251" y="161"/>
    </contour>
    <contour>
      <point x="293" y="502" type="curve"/>
      <point x="293" y="502" type="line"/>
      <point x="334" y="502"/>
      <point x="370" y="525"/>
      <point x="370" y="585" type="curve"/>
      <point x="370" y="645"/>
      <point x="334" y="668"/>
      <point x="293" y="668" type="curve"/>
      <point x="251" y="668"/>
      <point x="215" y="645"/>
      <point x="215" y="585" type="curve"/>
      <point x="215" y="525"/>
      <point x="251" y="502"/>
    </contour>
  </outline>
</glyph>
<glyph name="apostrophemod" format="2">
  <advance width="248"/>
  <unicode hex="02BC"/>
  <outline>
    <contour>
      <point x="214" y="552" type="curve"/>
      <point x="207" y="563" type="line"/>
      <point x="40" y="563" type="line"/>
      <point x="31" y="483"/>
      <point x="11" y="369"/>
      <point x="-8" y="278" type="curve"/>
      <point x="128" y="278" type="line"/>
      <point x="161" y="352"/>
      <point x="196" y="480"/>
    </contour>
  </outline>
</glyph>
<glyph name="minusmod" format="2">
  <advance width="318"/>
  <unicode hex="02D7"/>
  <outline>
    <contour>
      <point x="21" y="182" type="line"/>
      <point x="297" y="182" type="line"/>
      <point x="297" y="334" type="line"/>
      <point x="21" y="334" type="line"/>
    </contour>
  </outline>
</glyph>
<glyph name="tildecomb" format="2">
  <unicode hex="0303"/>
  <anchor x="256" y="563" name="_top"/>
  <anchor x="256" y="800" name="top"/>
  <outline>
    <contour>
      <point x="50" y="635" type="curve"/>
      <point x="138" y="635" type="line"/>
      <point x="146" y="678"/>
      <point x="161" y="683"/>
      <point x="173" y="683" type="curve"/>
      <point x="222" y="683"/>
      <point x="282" y="636"/>
      <point x="341" y="636" type="curve" smooth="yes"/>
      <point x="405" y="636"/>
      <point x="453" y="683"/>
      <point x="461" y="803" type="curve"/>
      <point x="372" y="803" type="line"/>
      <point x="365" y="761"/>
      <point x="349" y="755"/>
      <point x="337" y="755" type="curve" smooth="yes"/>
      <point x="287" y="755"/>
      <point x="223" y="802"/>
      <point x="173" y="802" type="curve" smooth="yes"/>
      <point x="101" y="802"/>
      <point x="58" y="757"/>
    </contour>
  </outline>
</glyph>
<glyph name="macronbelowcomb" format="2">
  <unicode hex="0331"/>
  <anchor x="247" y="0" name="_bottom"/>
  <outline>
    <contour>
      <point x="444" y="-77" type="line"/>
      <point x="50" y="-77" type="line"/>
      <point x="50" y="-219" type="line"/>
      <point x="444" y="-219" type="line"/>
    </contour>
  </outline>
</glyph>
<glyph name="doublemacroncomb" format="2">
  <unicode hex="035E"/>
  <outline>
    <contour>
      <point x="605" y="777" type="line"/>
      <point x="-612" y="777" type="line"/>
      <point x="-612" y="635" type="line"/>
      <point x="605" y="635" type="line"/>
    </contour>
  </outline>
</glyph>
<glyph name="number-ar" format="2">
  <advance width="864"/>
  <unicode hex="0600"/>
  <note>
uni0600
</note>
  <outline>
    <contour>
      <point x="844" y="-271" type="line"/>
      <point x="844" y="-123" type="line"/>
      <point x="734" y="-123" type="line"/>
      <point x="734" y="-83"/>
      <point x="748" y="-41"/>
      <point x="778" y="5" type="curve"/>
      <point x="661" y="84" type="line"/>
      <point x="614" y="21"/>
      <point x="591" y="-47"/>
      <point x="591" y="-123" type="curve"/>
      <point x="20" y="-123" type="line"/>
      <point x="20" y="-213"/>
      <point x="74" y="-271"/>
      <point x="163" y="-271" type="curve" smooth="yes"/>
    </contour>
  </outline>
</glyph>
<glyph name="year-ar" format="2">
  <advance width="1549"/>
  <unicode hex="0601"/>
  <note>
uni0601
</note>
  <outline>
    <contour>
      <point x="1329" y="-240" type="curve"/>
      <point x="1390" y="-335" type="line"/>
      <point x="1500" y="-256"/>
      <point x="1529" y="-202"/>
      <point x="1529" y="-145" type="curve" smooth="yes"/>
      <point x="1529" y="-56"/>
      <point x="1473" y="5"/>
      <point x="1390" y="5" type="curve" smooth="yes"/>
      <point x="1349" y="5"/>
      <point x="1313" y="0"/>
      <point x="1274" y="-7" type="curve" smooth="yes"/>
      <point x="1221" y="-17"/>
      <point x="1166" y="-31"/>
      <point x="1083" y="-53" type="curve" smooth="yes"/>
      <point x="883" y="-106"/>
      <point x="776" y="-129"/>
      <point x="716" y="-129" type="curve" smooth="yes"/>
      <point x="673" y="-129"/>
      <point x="656" y="-106"/>
      <point x="656" y="-60" type="curve" smooth="yes"/>
      <point x="656" y="-12" type="line"/>
      <point x="526" y="-12" type="line"/>
      <point x="526" y="-60" type="line" smooth="yes"/>
      <point x="526" y="-111"/>
      <point x="516" y="-124"/>
      <point x="495" y="-124" type="curve" smooth="yes"/>
      <point x="473" y="-124"/>
      <point x="456" y="-106"/>
      <point x="428" y="-68" type="curve" smooth="yes"/>
      <point x="398" y="-27"/>
      <point x="364" y="-12"/>
      <point x="332" y="-12" type="curve" smooth="yes"/>
      <point x="293" y="-12"/>
      <point x="253" y="-31"/>
      <point x="229" y="-70" type="curve" smooth="yes"/>
      <point x="211" y="-99"/>
      <point x="193" y="-128"/>
      <point x="173" y="-128" type="curve" smooth="yes"/>
      <point x="158" y="-128"/>
      <point x="144" y="-115"/>
      <point x="144" y="-86" type="curve" smooth="yes"/>
      <point x="144" y="-67"/>
      <point x="153" y="-42"/>
      <point x="169" y="-12" type="curve"/>
      <point x="48" y="-12" type="line"/>
      <point x="29" y="-48"/>
      <point x="20" y="-86"/>
      <point x="20" y="-125" type="curve" smooth="yes"/>
      <point x="20" y="-223"/>
      <point x="79" y="-275"/>
      <point x="153" y="-275" type="curve" smooth="yes"/>
      <point x="190" y="-275"/>
      <point x="225" y="-256"/>
      <point x="264" y="-217" type="curve" smooth="yes"/>
      <point x="287" y="-194"/>
      <point x="301" y="-179"/>
      <point x="309" y="-170" type="curve" smooth="yes"/>
      <point x="317" y="-161"/>
      <point x="324" y="-159"/>
      <point x="328" y="-159" type="curve" smooth="yes"/>
      <point x="334" y="-159"/>
      <point x="339" y="-161"/>
      <point x="345" y="-166" type="curve" smooth="yes"/>
      <point x="351" y="-172"/>
      <point x="366" y="-187"/>
      <point x="389" y="-215" type="curve" smooth="yes"/>
      <point x="421" y="-253"/>
      <point x="454" y="-271"/>
      <point x="487" y="-271" type="curve" smooth="yes"/>
      <point x="532" y="-271"/>
      <point x="585" y="-233"/>
      <point x="596" y="-195" type="curve"/>
      <point x="602" y="-241"/>
      <point x="659" y="-271"/>
      <point x="714" y="-271" type="curve" smooth="yes"/>
      <point x="736" y="-271"/>
      <point x="776" y="-265"/>
      <point x="819" y="-257" type="curve" smooth="yes"/>
      <point x="872" y="-247"/>
      <point x="954" y="-229"/>
      <point x="1132" y="-188" type="curve" smooth="yes"/>
      <point x="1259" y="-159"/>
      <point x="1332" y="-146"/>
      <point x="1351" y="-146" type="curve" smooth="yes"/>
      <point x="1372" y="-146"/>
      <point x="1381" y="-154"/>
      <point x="1381" y="-173" type="curve" smooth="yes"/>
      <point x="1381" y="-198"/>
      <point x="1360" y="-222"/>
    </contour>
  </outline>
</glyph>
<glyph name="footnotemarker-ar" format="2">
  <advance width="1242"/>
  <unicode hex="0602"/>
  <note>
uni0602
</note>
  <outline>
    <contour>
      <point x="1222" y="-123" type="curve"/>
      <point x="511" y="-123" type="line"/>
      <point x="477" y="15"/>
      <point x="387" y="119"/>
      <point x="253" y="119" type="curve" smooth="yes"/>
      <point x="152" y="119"/>
      <point x="65" y="41"/>
      <point x="65" y="-74" type="curve" smooth="yes"/>
      <point x="65" y="-204"/>
      <point x="162" y="-270"/>
      <point x="343" y="-270" type="curve" smooth="yes"/>
      <point x="1111" y="-270" type="line" smooth="yes"/>
      <point x="1171" y="-270"/>
      <point x="1222" y="-219"/>
    </contour>
    <contour>
      <point x="263" y="-30" type="curve" smooth="yes"/>
      <point x="305" y="-30"/>
      <point x="345" y="-59"/>
      <point x="368" y="-123" type="curve"/>
      <point x="282" y="-123"/>
      <point x="257" y="-117"/>
      <point x="239" y="-108" type="curve" smooth="yes"/>
      <point x="223" y="-100"/>
      <point x="217" y="-88"/>
      <point x="217" y="-69" type="curve" smooth="yes"/>
      <point x="217" y="-46"/>
      <point x="237" y="-30"/>
    </contour>
  </outline>
</glyph>
<glyph name="pagenumber-ar" format="2">
  <advance width="1086.33333"/>
  <unicode hex="0603"/>
  <note>
uni0603
</note>
  <outline>
    <contour>
      <point x="163" y="-271" type="curve" smooth="yes"/>
      <point x="1051" y="-271" type="line"/>
      <point x="1051" y="-121" type="line" smooth="yes"/>
      <point x="1051" y="64"/>
      <point x="954" y="179"/>
      <point x="787" y="179" type="curve" smooth="yes"/>
      <point x="674" y="179"/>
      <point x="580" y="113"/>
      <point x="524" y="42" type="curve"/>
      <point x="524" y="154" type="line"/>
      <point x="332" y="154" type="line"/>
      <point x="332" y="-123" type="line"/>
      <point x="20" y="-123" type="line"/>
      <point x="20" y="-213"/>
      <point x="75" y="-271"/>
    </contour>
    <contour>
      <point x="524" y="-123" type="line"/>
      <point x="524" y="-94" type="line"/>
      <point x="574" y="-27"/>
      <point x="647" y="32"/>
      <point x="735" y="32" type="curve" smooth="yes"/>
      <point x="815" y="32"/>
      <point x="860" y="-28"/>
      <point x="860" y="-114" type="curve" smooth="yes"/>
      <point x="860" y="-123" type="line"/>
    </contour>
  </outline>
</glyph>
<glyph name="samvat-ar" format="2">
  <advance width="2683"/>
  <unicode hex="0604"/>
  <outline>
    <contour>
      <point x="2406" y="148" type="line"/>
      <point x="2344" y="148" type="line" smooth="yes"/>
      <point x="2298" y="148"/>
      <point x="2277" y="159"/>
      <point x="2244" y="194" type="curve"/>
      <point x="2247" y="210"/>
      <point x="2248" y="228"/>
      <point x="2248" y="247" type="curve" smooth="yes"/>
      <point x="2248" y="424" type="line"/>
      <point x="2056" y="424" type="line"/>
      <point x="2056" y="264" type="line" smooth="yes"/>
      <point x="2056" y="167"/>
      <point x="2030" y="138"/>
      <point x="1967" y="138" type="curve" smooth="yes"/>
      <point x="1936" y="138"/>
      <point x="1911" y="150"/>
      <point x="1884" y="175" type="curve" smooth="yes"/>
      <point x="1868" y="189"/>
      <point x="1845" y="220"/>
      <point x="1817" y="263" type="curve" smooth="yes"/>
      <point x="1774" y="329"/>
      <point x="1743" y="370"/>
      <point x="1695" y="392" type="curve" smooth="yes"/>
      <point x="1671" y="403"/>
      <point x="1640" y="409"/>
      <point x="1617" y="409" type="curve" smooth="yes"/>
      <point x="1537" y="409"/>
      <point x="1429" y="343"/>
      <point x="1376" y="264" type="curve" smooth="yes"/>
      <point x="1347" y="221"/>
      <point x="1342" y="182"/>
      <point x="1342" y="159" type="curve" smooth="yes"/>
      <point x="1342" y="67"/>
      <point x="1419" y="-31"/>
      <point x="1587" y="-121" type="curve"/>
      <point x="1606" y="-75" type="line"/>
      <point x="1454" y="-45"/>
      <point x="1285" y="-29"/>
      <point x="1088" y="-29" type="curve" smooth="yes"/>
      <point x="725" y="-29"/>
      <point x="379" y="-52"/>
      <point x="50" y="-104" type="curve"/>
      <point x="74" y="-250" type="line"/>
      <point x="401" y="-199"/>
      <point x="778" y="-177"/>
      <point x="1085" y="-177" type="curve" smooth="yes"/>
      <point x="1373" y="-177"/>
      <point x="1566" y="-195"/>
      <point x="1750" y="-230" type="curve"/>
      <point x="1792" y="-100" type="line"/>
      <point x="1590" y="-1"/>
      <point x="1520" y="99"/>
      <point x="1520" y="157" type="curve" smooth="yes"/>
      <point x="1520" y="203"/>
      <point x="1572" y="240"/>
      <point x="1601" y="240" type="curve" smooth="yes"/>
      <point x="1618" y="240"/>
      <point x="1631" y="235"/>
      <point x="1644" y="224" type="curve" smooth="yes"/>
      <point x="1665" y="207"/>
      <point x="1687" y="179"/>
      <point x="1717" y="135" type="curve" smooth="yes"/>
      <point x="1743" y="96"/>
      <point x="1764" y="72"/>
      <point x="1775" y="60" type="curve" smooth="yes"/>
      <point x="1823" y="8"/>
      <point x="1882" y="-10"/>
      <point x="1973" y="-10" type="curve" smooth="yes"/>
      <point x="2094" y="-10"/>
      <point x="2153" y="16"/>
      <point x="2194" y="78" type="curve"/>
      <point x="2232" y="26"/>
      <point x="2277" y="0"/>
      <point x="2349" y="0" type="curve" smooth="yes"/>
      <point x="2598" y="0" type="line"/>
      <point x="2598" y="502" type="line"/>
      <point x="2406" y="502" type="line"/>
    </contour>
  </outline>
</glyph>
<glyph name="numbermark-ar" format="2">
  <advance width="1879"/>
  <unicode hex="0605"/>
  <outline>
    <contour>
      <point x="1834" y="551" type="curve"/>
      <point x="1799" y="691" type="line"/>
      <point x="1579" y="651"/>
      <point x="1271" y="616"/>
      <point x="934" y="616" type="curve" smooth="yes"/>
      <point x="570" y="616"/>
      <point x="338" y="680"/>
      <point x="218" y="680" type="curve" smooth="yes"/>
      <point x="84" y="680"/>
      <point x="72" y="614"/>
      <point x="50" y="479" type="curve"/>
      <point x="198" y="451" type="line"/>
      <point x="223" y="520"/>
      <point x="242" y="529"/>
      <point x="268" y="529" type="curve" smooth="yes"/>
      <point x="331" y="529"/>
      <point x="556" y="468"/>
      <point x="936" y="468" type="curve" smooth="yes"/>
      <point x="1264" y="468"/>
      <point x="1567" y="503"/>
    </contour>
  </outline>
</glyph>
<glyph name="cuberoot-ar" format="2">
  <advance width="700"/>
  <unicode hex="0606"/>
  <outline>
    <contour>
      <point x="327" y="0" type="line"/>
      <point x="539" y="374" type="line"/>
      <point x="678" y="374" type="line"/>
      <point x="678" y="508" type="line"/>
      <point x="468" y="508" type="line"/>
      <point x="281" y="175" type="line"/>
      <point x="408" y="175" type="line"/>
      <point x="175" y="674" type="line"/>
      <point x="10" y="674" type="line"/>
    </contour>
    <contour>
      <point x="227" y="782" type="line"/>
      <point x="324" y="523" type="line"/>
      <point x="432" y="523" type="line"/>
      <point x="372" y="672" type="line"/>
      <point x="388" y="662"/>
      <point x="396" y="660"/>
      <point x="405" y="660" type="curve" smooth="yes"/>
      <point x="415" y="660"/>
      <point x="427" y="665"/>
      <point x="433" y="677" type="curve"/>
      <point x="447" y="665"/>
      <point x="458" y="661"/>
      <point x="473" y="661" type="curve" smooth="yes"/>
      <point x="513" y="661"/>
      <point x="527" y="689"/>
      <point x="527" y="775" type="curve" smooth="yes"/>
      <point x="527" y="782" type="line"/>
      <point x="457" y="782" type="line"/>
      <point x="457" y="746"/>
      <point x="456" y="729"/>
      <point x="453" y="723" type="curve" smooth="yes"/>
      <point x="451" y="719"/>
      <point x="448" y="717"/>
      <point x="445" y="717" type="curve" smooth="yes"/>
      <point x="440" y="717"/>
      <point x="437" y="719"/>
      <point x="435" y="721" type="curve"/>
      <point x="433" y="727"/>
      <point x="432" y="750"/>
      <point x="432" y="782" type="curve"/>
      <point x="365" y="782" type="line"/>
      <point x="365" y="746"/>
      <point x="365" y="735"/>
      <point x="365" y="732" type="curve" smooth="yes"/>
      <point x="365" y="726"/>
      <point x="364" y="721"/>
      <point x="358" y="721" type="curve" smooth="yes"/>
      <point x="356" y="721"/>
      <point x="352" y="722"/>
      <point x="349" y="729" type="curve"/>
      <point x="330" y="782" type="line"/>
    </contour>
  </outline>
</glyph>
<glyph name="fourthroot-ar" format="2">
  <advance width="700"/>
  <unicode hex="0607"/>
  <outline>
    <contour>
      <point x="401" y="538" type="curve" smooth="yes"/>
      <point x="427" y="538"/>
      <point x="456" y="542"/>
      <point x="476" y="549" type="curve"/>
      <point x="476" y="629" type="line"/>
      <point x="457" y="624"/>
      <point x="427" y="619"/>
      <point x="401" y="619" type="curve" smooth="yes"/>
      <point x="374" y="619"/>
      <point x="349" y="624"/>
      <point x="349" y="630" type="curve" smooth="yes"/>
      <point x="349" y="639"/>
      <point x="368" y="648"/>
      <point x="379" y="653" type="curve" smooth="yes"/>
      <point x="404" y="665"/>
      <point x="435" y="674"/>
      <point x="459" y="678" type="curve"/>
      <point x="442" y="690"/>
      <point x="396" y="724"/>
      <point x="396" y="726" type="curve" smooth="yes"/>
      <point x="396" y="728"/>
      <point x="409" y="733"/>
      <point x="427" y="739" type="curve" smooth="yes"/>
      <point x="442" y="744"/>
      <point x="461" y="750"/>
      <point x="473" y="753" type="curve"/>
      <point x="452" y="833" type="line"/>
      <point x="408" y="820"/>
      <point x="347" y="795"/>
      <point x="316" y="773" type="curve" smooth="yes"/>
      <point x="299" y="761"/>
      <point x="291" y="750"/>
      <point x="291" y="744" type="curve" smooth="yes"/>
      <point x="291" y="736"/>
      <point x="306" y="721"/>
      <point x="331" y="698" type="curve" smooth="yes"/>
      <point x="343" y="687" type="line"/>
      <point x="310" y="675"/>
      <point x="264" y="658"/>
      <point x="264" y="610" type="curve" smooth="yes"/>
      <point x="264" y="584"/>
      <point x="291" y="561"/>
      <point x="320" y="550" type="curve" smooth="yes"/>
      <point x="347" y="540"/>
      <point x="364" y="538"/>
    </contour>
    <contour>
      <point x="327" y="0" type="line"/>
      <point x="539" y="374" type="line"/>
      <point x="678" y="374" type="line"/>
      <point x="678" y="508" type="line"/>
      <point x="468" y="508" type="line"/>
      <point x="281" y="175" type="line"/>
      <point x="408" y="175" type="line"/>
      <point x="175" y="674" type="line"/>
      <point x="10" y="674" type="line"/>
    </contour>
  </outline>
</glyph>
<glyph name="ray-ar" format="2">
  <advance width="1104"/>
  <unicode hex="0608"/>
  <anchor x="489" y="-312" name="bottom"/>
  <anchor x="734" y="586" name="top"/>
  <outline>
    <contour>
      <point x="-8" y="187" type="line"/>
      <point x="243" y="187" type="line"/>
      <point x="198" y="283" type="line"/>
      <point x="148" y="232"/>
      <point x="104" y="113"/>
      <point x="104" y="40" type="curve" smooth="yes"/>
      <point x="104" y="-73"/>
      <point x="156" y="-158"/>
      <point x="231" y="-201" type="curve" smooth="yes"/>
      <point x="292" y="-236"/>
      <point x="341" y="-240"/>
      <point x="389" y="-240" type="curve" smooth="yes"/>
      <point x="671" y="-240" type="line" smooth="yes"/>
      <point x="866" y="-240"/>
      <point x="973" y="-142"/>
      <point x="973" y="-3" type="curve" smooth="yes"/>
      <point x="973" y="0" type="line"/>
      <point x="1109" y="0" type="line" smooth="yes"/>
      <point x="1113" y="0"/>
      <point x="1114" y="2"/>
      <point x="1114" y="5" type="curve" smooth="yes"/>
      <point x="1114" y="144" type="line" smooth="yes"/>
      <point x="1114" y="147"/>
      <point x="1113" y="148"/>
      <point x="1109" y="148" type="curve" smooth="yes"/>
      <point x="980" y="148" type="line"/>
      <point x="980" y="502" type="line"/>
      <point x="791" y="502" type="line" smooth="yes"/>
      <point x="639" y="502"/>
      <point x="525" y="457"/>
      <point x="476" y="367" type="curve" smooth="yes"/>
      <point x="460" y="337"/>
      <point x="451" y="301"/>
      <point x="451" y="260" type="curve" smooth="yes"/>
      <point x="451" y="167"/>
      <point x="502" y="84"/>
      <point x="587" y="38" type="curve" smooth="yes"/>
      <point x="632" y="14"/>
      <point x="686" y="0"/>
      <point x="746" y="0" type="curve" smooth="yes"/>
      <point x="786" y="0" type="line"/>
      <point x="786" y="-4" type="line" smooth="yes"/>
      <point x="786" y="-67"/>
      <point x="729" y="-92"/>
      <point x="617" y="-92" type="curve" smooth="yes"/>
      <point x="452" y="-92" type="line" smooth="yes"/>
      <point x="346" y="-92"/>
      <point x="287" y="-34"/>
      <point x="287" y="60" type="curve" smooth="yes"/>
      <point x="287" y="114"/>
      <point x="300" y="184"/>
      <point x="323" y="233" type="curve"/>
      <point x="323" y="335" type="line"/>
      <point x="-8" y="335" type="line"/>
    </contour>
    <contour>
      <point x="641" y="250" type="curve" smooth="yes"/>
      <point x="641" y="317"/>
      <point x="682" y="354"/>
      <point x="774" y="354" type="curve" smooth="yes"/>
      <point x="791" y="354" type="line"/>
      <point x="791" y="148" type="line"/>
      <point x="774" y="148" type="line" smooth="yes"/>
      <point x="704" y="148"/>
      <point x="641" y="183"/>
    </contour>
  </outline>
</glyph>
<glyph name="perthousand-ar" format="2">
  <advance width="798"/>
  <unicode hex="0609"/>
  <outline>
    <contour>
      <point x="608" y="210" type="line"/>
      <point x="608" y="70" type="line"/>
      <point x="748" y="70" type="line"/>
      <point x="748" y="210" type="line"/>
    </contour>
    <component base="percent-ar"/>
  </outline>
</glyph>
<glyph name="pertenthousand-ar" format="2">
  <advance width="1013"/>
  <unicode hex="060A"/>
  <outline>
    <contour>
      <point x="616" y="210" type="line"/>
      <point x="616" y="70" type="line"/>
      <point x="756" y="70" type="line"/>
      <point x="756" y="210" type="line"/>
    </contour>
    <contour>
      <point x="823" y="210" type="line"/>
      <point x="823" y="70" type="line"/>
      <point x="963" y="70" type="line"/>
      <point x="963" y="210" type="line"/>
    </contour>
    <component base="percent-ar"/>
  </outline>
</glyph>
<glyph name="comma-ar" format="2">
  <advance width="349.66667"/>
  <unicode hex="060C"/>
  <note>
uni060C
</note>
  <outline>
    <contour>
      <point x="65" y="11" type="curve"/>
      <point x="72" y="0" type="line"/>
      <point x="236" y="0" type="line"/>
      <point x="247" y="82"/>
      <point x="263" y="164"/>
      <point x="285" y="245" type="curve"/>
      <point x="151" y="245" type="line"/>
      <point x="108" y="151"/>
      <point x="80" y="73"/>
    </contour>
  </outline>
</glyph>
<glyph name="dateseparator-ar" format="2">
  <advance width="347"/>
  <unicode hex="060D"/>
  <note>
uni060D
</note>
  <outline>
    <contour>
      <point x="347" y="0" type="line"/>
      <point x="347" y="148" type="line"/>
      <point x="292" y="148" type="line" smooth="yes"/>
      <point x="181" y="148"/>
      <point x="88" y="43"/>
      <point x="20" y="-161" type="curve"/>
      <point x="139" y="-207" type="line"/>
      <point x="166" y="-107"/>
      <point x="214" y="0"/>
      <point x="304" y="0" type="curve" smooth="yes"/>
    </contour>
  </outline>
</glyph>
<glyph name="verseComma-ar" format="2">
  <advance width="1212"/>
  <unicode hex="060E"/>
  <note>
uni060E
</note>
  <outline>
    <contour>
      <point x="1202" y="147" type="curve"/>
      <point x="491" y="147" type="line"/>
      <point x="457" y="285"/>
      <point x="367" y="389"/>
      <point x="233" y="389" type="curve" smooth="yes"/>
      <point x="132" y="389"/>
      <point x="45" y="311"/>
      <point x="45" y="196" type="curve" smooth="yes"/>
      <point x="45" y="66"/>
      <point x="142" y="0"/>
      <point x="323" y="0" type="curve" smooth="yes"/>
      <point x="1091" y="0" type="line" smooth="yes"/>
      <point x="1151" y="0"/>
      <point x="1202" y="51"/>
    </contour>
    <contour>
      <point x="243" y="240" type="curve" smooth="yes"/>
      <point x="285" y="240"/>
      <point x="325" y="211"/>
      <point x="348" y="147" type="curve"/>
      <point x="260" y="147"/>
      <point x="236" y="153"/>
      <point x="219" y="162" type="curve" smooth="yes"/>
      <point x="204" y="170"/>
      <point x="197" y="182"/>
      <point x="197" y="201" type="curve" smooth="yes"/>
      <point x="197" y="224"/>
      <point x="217" y="240"/>
    </contour>
  </outline>
</glyph>
<glyph name="misraComma-ar" format="2">
  <advance width="704"/>
  <unicode hex="060F"/>
  <note>
uni060F
</note>
  <outline>
    <contour>
      <point x="597" y="120" type="curve"/>
      <point x="554" y="259" type="line"/>
      <point x="493" y="240"/>
      <point x="434" y="215"/>
      <point x="387" y="189" type="curve"/>
      <point x="358" y="219"/>
      <point x="353" y="256"/>
      <point x="353" y="273" type="curve" smooth="yes"/>
      <point x="353" y="327"/>
      <point x="393" y="362"/>
      <point x="468" y="362" type="curve" smooth="yes"/>
      <point x="512" y="362"/>
      <point x="559" y="350"/>
      <point x="607" y="330" type="curve"/>
      <point x="659" y="475" type="line"/>
      <point x="618" y="493"/>
      <point x="531" y="510"/>
      <point x="471" y="510" type="curve" smooth="yes"/>
      <point x="283" y="510"/>
      <point x="173" y="416"/>
      <point x="173" y="281" type="curve" smooth="yes"/>
      <point x="173" y="221"/>
      <point x="216" y="148"/>
      <point x="272" y="118" type="curve"/>
      <point x="181" y="35"/>
      <point x="137" y="-45"/>
      <point x="137" y="-128" type="curve" smooth="yes"/>
      <point x="137" y="-155"/>
      <point x="142" y="-183"/>
      <point x="152" y="-210" type="curve"/>
      <point x="126" y="-235"/>
      <point x="103" y="-257"/>
      <point x="74" y="-283" type="curve"/>
      <point x="149" y="-361" type="line"/>
      <point x="174" y="-337"/>
      <point x="194" y="-319"/>
      <point x="213" y="-304" type="curve"/>
      <point x="249" y="-337"/>
      <point x="318" y="-380"/>
      <point x="412" y="-380" type="curve" smooth="yes"/>
      <point x="532" y="-380"/>
      <point x="657" y="-300"/>
      <point x="657" y="-175" type="curve" smooth="yes"/>
      <point x="657" y="-90"/>
      <point x="591" y="-9"/>
      <point x="471" y="-9" type="curve" smooth="yes"/>
      <point x="403" y="-9"/>
      <point x="353" y="-36"/>
      <point x="304" y="-75" type="curve"/>
      <point x="340" y="17"/>
      <point x="489" y="91"/>
    </contour>
    <contour>
      <point x="445" y="-141" type="curve" smooth="yes"/>
      <point x="471" y="-141"/>
      <point x="499" y="-152"/>
      <point x="499" y="-181" type="curve" smooth="yes"/>
      <point x="499" y="-213"/>
      <point x="454" y="-232"/>
      <point x="416" y="-232" type="curve" smooth="yes"/>
      <point x="374" y="-232"/>
      <point x="346" y="-220"/>
      <point x="321" y="-198" type="curve"/>
      <point x="360" y="-159"/>
      <point x="405" y="-141"/>
    </contour>
  </outline>
</glyph>
<glyph name="sadabove-ar" format="2">
  <unicode hex="0610"/>
  <note>
uni0610
</note>
  <anchor x="0" y="693" name="_top"/>
  <anchor x="-2" y="692" name="_top2"/>
  <anchor x="-2" y="921" name="top"/>
  <outline>
    <contour>
      <point x="-95" y="697" type="line"/>
      <point x="-75" y="716"/>
      <point x="-60" y="735"/>
      <point x="-52" y="753" type="curve"/>
      <point x="124" y="753" type="line"/>
      <point x="124" y="811" type="line" smooth="yes"/>
      <point x="124" y="883"/>
      <point x="88" y="913"/>
      <point x="42" y="913" type="curve" smooth="yes"/>
      <point x="-1" y="913"/>
      <point x="-37" y="887"/>
      <point x="-52" y="849" type="curve"/>
      <point x="-52" y="900" type="line"/>
      <point x="-109" y="883" type="line"/>
      <point x="-109" y="803" type="line" smooth="yes"/>
      <point x="-109" y="775"/>
      <point x="-116" y="743"/>
      <point x="-125" y="728" type="curve"/>
    </contour>
    <contour>
      <point x="-47" y="799" type="line"/>
      <point x="-47" y="807" type="line"/>
      <point x="-25" y="842"/>
      <point x="0" y="864"/>
      <point x="27" y="864" type="curve" smooth="yes"/>
      <point x="49" y="864"/>
      <point x="64" y="850"/>
      <point x="64" y="823" type="curve" smooth="yes"/>
      <point x="64" y="799" type="line"/>
    </contour>
  </outline>
</glyph>
<glyph name="ainabove-ar" format="2">
  <unicode hex="0611"/>
  <note>
uni0611
</note>
  <anchor x="0" y="682" name="_top"/>
  <anchor x="0" y="682" name="_top2"/>
  <anchor x="-9" y="894" name="top"/>
  <outline>
    <contour>
      <point x="-37" y="787" type="curve"/>
      <point x="-37" y="856" type="line"/>
      <point x="-94" y="840" type="line"/>
      <point x="-94" y="794" type="line" smooth="yes"/>
      <point x="-94" y="766"/>
      <point x="-102" y="734"/>
      <point x="-110" y="719" type="curve"/>
      <point x="-80" y="688" type="line"/>
      <point x="-68" y="705"/>
      <point x="-56" y="724"/>
      <point x="-44" y="748" type="curve"/>
      <point x="-31" y="744"/>
      <point x="-21" y="741"/>
      <point x="2" y="741" type="curve" smooth="yes"/>
      <point x="25" y="741"/>
      <point x="63" y="750"/>
      <point x="93" y="761" type="curve"/>
      <point x="93" y="810" type="line"/>
      <point x="62" y="794"/>
      <point x="54" y="793"/>
      <point x="43" y="793" type="curve"/>
      <point x="30" y="798"/>
      <point x="24" y="806"/>
      <point x="24" y="818" type="curve" smooth="yes"/>
      <point x="24" y="828"/>
      <point x="31" y="836"/>
      <point x="47" y="836" type="curve" smooth="yes"/>
      <point x="56" y="836"/>
      <point x="68" y="833"/>
      <point x="76" y="829" type="curve"/>
      <point x="91" y="875" type="line"/>
      <point x="76" y="881"/>
      <point x="60" y="884"/>
      <point x="43" y="884" type="curve" smooth="yes"/>
      <point x="7" y="884"/>
      <point x="-21" y="864"/>
      <point x="-21" y="827" type="curve" smooth="yes"/>
      <point x="-21" y="810"/>
      <point x="-14" y="796"/>
      <point x="0" y="787" type="curve"/>
      <point x="-6" y="786"/>
      <point x="-12" y="785"/>
      <point x="-17" y="785" type="curve" smooth="yes"/>
      <point x="-24" y="785"/>
      <point x="-29" y="785"/>
    </contour>
  </outline>
</glyph>
<glyph name="rehHahabove-ar" format="2">
  <unicode hex="0612"/>
  <note>
uni0612
</note>
  <anchor x="0" y="562" name="_top"/>
  <anchor x="0" y="562" name="_top2"/>
  <anchor x="-14" y="889" name="top"/>
  <outline>
    <contour>
      <point x="-163" y="606" type="curve"/>
      <point x="-101" y="634" type="line"/>
      <point x="-103" y="641"/>
      <point x="-103" y="643"/>
      <point x="-103" y="648" type="curve" smooth="yes"/>
      <point x="-103" y="681"/>
      <point x="-78" y="693"/>
      <point x="-12" y="708" type="curve"/>
      <point x="-2" y="695"/>
      <point x="9" y="685"/>
      <point x="19" y="678" type="curve"/>
      <point x="50" y="721" type="line"/>
      <point x="21" y="744"/>
      <point x="16" y="770"/>
      <point x="10" y="810" type="curve" smooth="yes"/>
      <point x="2" y="861"/>
      <point x="-26" y="882"/>
      <point x="-77" y="882" type="curve" smooth="yes"/>
      <point x="-117" y="882"/>
      <point x="-150" y="871"/>
      <point x="-169" y="863" type="curve"/>
      <point x="-144" y="811" type="line"/>
      <point x="-123" y="821"/>
      <point x="-108" y="826"/>
      <point x="-97" y="826" type="curve" smooth="yes"/>
      <point x="-72" y="826"/>
      <point x="-55" y="813"/>
      <point x="-46" y="785" type="curve" smooth="yes"/>
      <point x="-41" y="768"/>
      <point x="-36" y="756"/>
      <point x="-34" y="752" type="curve"/>
      <point x="-139" y="724"/>
      <point x="-171" y="692"/>
      <point x="-171" y="640" type="curve" smooth="yes"/>
      <point x="-171" y="630"/>
      <point x="-168" y="618"/>
    </contour>
    <contour>
      <point x="74" y="583" type="curve" smooth="yes"/>
      <point x="128" y="583"/>
      <point x="165" y="620"/>
      <point x="165" y="680" type="curve" smooth="yes"/>
      <point x="165" y="892" type="line"/>
      <point x="97" y="873" type="line"/>
      <point x="97" y="687" type="line" smooth="yes"/>
      <point x="97" y="652"/>
      <point x="79" y="641"/>
      <point x="59" y="641" type="curve" smooth="yes"/>
      <point x="47" y="641"/>
      <point x="32" y="648"/>
      <point x="23" y="657" type="curve"/>
      <point x="-8" y="613" type="line"/>
      <point x="11" y="598"/>
      <point x="32" y="583"/>
    </contour>
  </outline>
</glyph>
<glyph name="rehDadabove-ar" format="2">
  <unicode hex="0613"/>
  <note>
uni0613
</note>
  <anchor x="0" y="576" name="_top"/>
  <anchor x="0" y="576" name="_top2"/>
  <anchor x="-3" y="948" name="top"/>
  <outline>
    <contour>
      <point x="-141" y="643" type="line"/>
      <point x="-122" y="662"/>
      <point x="-108" y="681"/>
      <point x="-98" y="700" type="curve"/>
      <point x="74" y="700" type="line"/>
      <point x="74" y="767" type="line" smooth="yes"/>
      <point x="74" y="835"/>
      <point x="40" y="859"/>
      <point x="-7" y="859" type="curve" smooth="yes"/>
      <point x="-50" y="859"/>
      <point x="-85" y="832"/>
      <point x="-98" y="802" type="curve"/>
      <point x="-98" y="844" type="line"/>
      <point x="-156" y="828" type="line"/>
      <point x="-156" y="750" type="line" smooth="yes"/>
      <point x="-156" y="722"/>
      <point x="-161" y="697"/>
      <point x="-172" y="674" type="curve"/>
    </contour>
    <contour>
      <point x="-98" y="746" type="line"/>
      <point x="-98" y="753" type="line"/>
      <point x="-82" y="786"/>
      <point x="-52" y="809"/>
      <point x="-26" y="809" type="curve" smooth="yes"/>
      <point x="-3" y="809"/>
      <point x="13" y="796"/>
      <point x="13" y="759" type="curve" smooth="yes"/>
      <point x="13" y="746" type="line"/>
    </contour>
    <contour>
      <point x="101" y="592" type="curve" smooth="yes"/>
      <point x="154" y="592"/>
      <point x="191" y="629"/>
      <point x="191" y="680" type="curve" smooth="yes"/>
      <point x="191" y="892" type="line"/>
      <point x="130" y="873" type="line"/>
      <point x="130" y="687" type="line" smooth="yes"/>
      <point x="130" y="663"/>
      <point x="111" y="651"/>
      <point x="92" y="651" type="curve" smooth="yes"/>
      <point x="72" y="651"/>
      <point x="58" y="659"/>
      <point x="48" y="666" type="curve"/>
      <point x="18" y="624" type="line"/>
      <point x="37" y="609"/>
      <point x="63" y="592"/>
    </contour>
    <contour>
      <point x="-42" y="882" type="curve" smooth="yes"/>
      <point x="-27" y="882"/>
      <point x="-15" y="891"/>
      <point x="-15" y="910" type="curve" smooth="yes"/>
      <point x="-15" y="929"/>
      <point x="-25" y="938"/>
      <point x="-42" y="938" type="curve" smooth="yes"/>
      <point x="-59" y="938"/>
      <point x="-69" y="928"/>
      <point x="-69" y="910" type="curve" smooth="yes"/>
      <point x="-69" y="891"/>
      <point x="-56" y="882"/>
    </contour>
  </outline>
</glyph>
<glyph name="takhallusabove-ar" format="2">
  <unicode hex="0614"/>
  <note>
uni0614
</note>
  <anchor x="0" y="678" name="_top"/>
  <anchor x="0" y="678" name="_top2"/>
  <anchor x="-7" y="835" name="top"/>
  <outline>
    <contour>
      <point x="-134" y="680" type="line"/>
      <point x="-91" y="686"/>
      <point x="-63" y="693"/>
      <point x="-43" y="698" type="curve" smooth="yes"/>
      <point x="-15" y="705"/>
      <point x="3" y="716"/>
      <point x="13" y="729" type="curve"/>
      <point x="24" y="712"/>
      <point x="42" y="703"/>
      <point x="63" y="703" type="curve" smooth="yes"/>
      <point x="110" y="703"/>
      <point x="138" y="737"/>
      <point x="138" y="789" type="curve" smooth="yes"/>
      <point x="138" y="835" type="line"/>
      <point x="81" y="818" type="line"/>
      <point x="81" y="805" type="line" smooth="yes"/>
      <point x="81" y="769"/>
      <point x="73" y="756"/>
      <point x="61" y="756" type="curve" smooth="yes"/>
      <point x="48" y="756"/>
      <point x="38" y="766"/>
      <point x="38" y="797" type="curve" smooth="yes"/>
      <point x="38" y="827" type="line"/>
      <point x="-19" y="811" type="line"/>
      <point x="-19" y="796" type="line" smooth="yes"/>
      <point x="-19" y="778"/>
      <point x="-24" y="764"/>
      <point x="-34" y="756" type="curve" smooth="yes"/>
      <point x="-45" y="747"/>
      <point x="-75" y="738"/>
      <point x="-117" y="727" type="curve" smooth="yes"/>
      <point x="-128" y="724"/>
      <point x="-142" y="721"/>
      <point x="-152" y="719" type="curve"/>
    </contour>
  </outline>
</glyph>
<glyph name="tahabove-ar" format="2">
  <unicode hex="0615"/>
  <note>
uni0615
</note>
  <anchor x="10" y="556" name="_top"/>
  <anchor x="10" y="556" name="_top2"/>
  <anchor x="14" y="828" name="top"/>
  <outline>
    <contour>
      <point x="-121" y="640" type="line"/>
      <point x="-121" y="570" type="line"/>
      <point x="141" y="570" type="line"/>
      <point x="141" y="646" type="line" smooth="yes"/>
      <point x="141" y="722"/>
      <point x="110" y="762"/>
      <point x="51" y="762" type="curve" smooth="yes"/>
      <point x="21" y="762"/>
      <point x="-10" y="741"/>
      <point x="-28" y="718" type="curve"/>
      <point x="-28" y="828" type="line"/>
      <point x="-101" y="828" type="line"/>
      <point x="-101" y="640" type="line"/>
    </contour>
    <contour>
      <point x="68" y="640" type="line"/>
      <point x="-28" y="640" type="line"/>
      <point x="-28" y="658" type="line"/>
      <point x="-15" y="673"/>
      <point x="5" y="694"/>
      <point x="32" y="694" type="curve" smooth="yes"/>
      <point x="58" y="694"/>
      <point x="68" y="672"/>
      <point x="68" y="652" type="curve" smooth="yes"/>
    </contour>
  </outline>
</glyph>
<glyph name="alefLamYehabove-ar" format="2">
  <unicode hex="0616"/>
  <anchor x="206" y="540" name="bottom"/>
  <anchor x="210" y="884" name="top"/>
  <outline>
    <contour>
      <point x="130" y="584" type="curve" smooth="yes"/>
      <point x="358" y="584" type="line"/>
      <point x="358" y="655" type="line"/>
      <point x="135" y="655" type="line" smooth="yes"/>
      <point x="116" y="655"/>
      <point x="109" y="657"/>
      <point x="109" y="663" type="curve" smooth="yes"/>
      <point x="109" y="669"/>
      <point x="114" y="674"/>
      <point x="141" y="683" type="curve" smooth="yes"/>
      <point x="158" y="689"/>
      <point x="169" y="696"/>
      <point x="179" y="704" type="curve" smooth="yes"/>
      <point x="190" y="712"/>
      <point x="198" y="721"/>
      <point x="205" y="735" type="curve" smooth="yes"/>
      <point x="212" y="749"/>
      <point x="212" y="765"/>
      <point x="212" y="826" type="curve" smooth="yes"/>
      <point x="212" y="859" type="line"/>
      <point x="135" y="859" type="line"/>
      <point x="135" y="808" type="line" smooth="yes"/>
      <point x="135" y="770"/>
      <point x="130" y="760"/>
      <point x="118" y="751" type="curve" smooth="yes"/>
      <point x="112" y="747"/>
      <point x="99" y="740"/>
      <point x="83" y="734" type="curve" smooth="yes"/>
      <point x="39" y="717"/>
      <point x="31" y="702"/>
      <point x="24" y="688" type="curve" smooth="yes"/>
      <point x="19" y="678"/>
      <point x="17" y="670"/>
      <point x="17" y="658" type="curve" smooth="yes"/>
      <point x="17" y="612"/>
      <point x="58" y="584"/>
    </contour>
    <contour>
      <point x="246" y="859" type="line"/>
      <point x="246" y="686" type="line"/>
      <point x="323" y="686" type="line"/>
      <point x="323" y="859" type="line"/>
    </contour>
  </outline>
</glyph>
<glyph name="zainabove-ar" format="2">
  <unicode hex="0617"/>
  <anchor x="73" y="558" name="bottom"/>
  <anchor x="131" y="880" name="top"/>
  <outline>
    <contour>
      <point x="87" y="577" type="curve" smooth="yes"/>
      <point x="136" y="577"/>
      <point x="172" y="603"/>
      <point x="172" y="664" type="curve" smooth="yes"/>
      <point x="172" y="779" type="line"/>
      <point x="92" y="779" type="line"/>
      <point x="92" y="675" type="line" smooth="yes"/>
      <point x="92" y="655"/>
      <point x="82" y="647"/>
      <point x="70" y="647" type="curve" smooth="yes"/>
      <point x="62" y="647"/>
      <point x="52" y="652"/>
      <point x="46" y="657" type="curve"/>
      <point x="18" y="599" type="line"/>
      <point x="43" y="582"/>
      <point x="64" y="577"/>
    </contour>
    <contour>
      <point x="132" y="800" type="curve" smooth="yes"/>
      <point x="152" y="800"/>
      <point x="171" y="814"/>
      <point x="171" y="839" type="curve" smooth="yes"/>
      <point x="171" y="865"/>
      <point x="153" y="878"/>
      <point x="132" y="878" type="curve" smooth="yes"/>
      <point x="105" y="878"/>
      <point x="90" y="863"/>
      <point x="90" y="839" type="curve" smooth="yes"/>
      <point x="90" y="817"/>
      <point x="108" y="800"/>
    </contour>
  </outline>
</glyph>
<glyph name="fathasmall-ar" format="2">
  <unicode hex="0618"/>
  <anchor x="0" y="305" name="_top"/>
  <anchor x="-11" y="335" name="_top2"/>
  <anchor x="0" y="405" name="top"/>
  <outline>
    <contour>
      <point x="-81" y="369" type="line"/>
      <point x="-81" y="301" type="line"/>
      <point x="82" y="339" type="line"/>
      <point x="82" y="407" type="line"/>
    </contour>
  </outline>
</glyph>
<glyph name="dammasmall-ar" format="2">
  <unicode hex="0619"/>
  <anchor x="0" y="601" name="_top"/>
  <anchor x="0" y="822" name="top"/>
  <outline>
    <contour>
      <point x="-18" y="618" type="curve" smooth="yes"/>
      <point x="32" y="618"/>
      <point x="80" y="640"/>
      <point x="111" y="681" type="curve" smooth="yes"/>
      <point x="127" y="702"/>
      <point x="134" y="724"/>
      <point x="134" y="744" type="curve" smooth="yes"/>
      <point x="134" y="789"/>
      <point x="100" y="815"/>
      <point x="57" y="815" type="curve" smooth="yes"/>
      <point x="9" y="815"/>
      <point x="-24" y="785"/>
      <point x="-24" y="740" type="curve" smooth="yes"/>
      <point x="-24" y="727"/>
      <point x="-18" y="704"/>
      <point x="-6" y="679" type="curve"/>
      <point x="-11" y="677"/>
      <point x="-12" y="677"/>
      <point x="-17" y="677" type="curve" smooth="yes"/>
      <point x="-29" y="677"/>
      <point x="-67" y="692"/>
      <point x="-86" y="705" type="curve"/>
      <point x="-121" y="654" type="line"/>
      <point x="-90" y="631"/>
      <point x="-56" y="618"/>
    </contour>
    <contour>
      <point x="49" y="701" type="curve"/>
      <point x="40" y="717"/>
      <point x="36" y="729"/>
      <point x="36" y="736" type="curve" smooth="yes"/>
      <point x="36" y="750"/>
      <point x="46" y="755"/>
      <point x="55" y="755" type="curve" smooth="yes"/>
      <point x="61" y="755"/>
      <point x="70" y="750"/>
      <point x="70" y="740" type="curve" smooth="yes"/>
      <point x="70" y="729"/>
      <point x="63" y="710"/>
    </contour>
  </outline>
</glyph>
<glyph name="semicolon-ar" format="2">
  <advance width="359"/>
  <unicode hex="061B"/>
  <note>
uni061B
</note>
  <outline>
    <contour>
      <point x="165" y="-10" type="curve" smooth="yes"/>
      <point x="231" y="-10"/>
      <point x="267" y="22"/>
      <point x="267" y="83" type="curve" smooth="yes"/>
      <point x="267" y="139"/>
      <point x="233" y="176"/>
      <point x="165" y="176" type="curve" smooth="yes"/>
      <point x="100" y="176"/>
      <point x="65" y="139"/>
      <point x="65" y="83" type="curve" smooth="yes"/>
      <point x="65" y="24"/>
      <point x="102" y="-10"/>
    </contour>
    <contour>
      <point x="75" y="462" type="curve"/>
      <point x="82" y="451" type="line"/>
      <point x="245" y="451" type="line"/>
      <point x="258" y="539"/>
      <point x="270" y="596"/>
      <point x="294" y="696" type="curve"/>
      <point x="161" y="696" type="line"/>
      <point x="117" y="597"/>
      <point x="88" y="519"/>
    </contour>
  </outline>
</glyph>
<glyph name="uni061D" format="2">
  <advance width="1001"/>
  <unicode hex="061D"/>
  <outline>
    <contour>
      <point x="50" y="-175" type="line"/>
      <point x="951" y="-175" type="line"/>
      <point x="951" y="752" type="line"/>
      <point x="50" y="752" type="line"/>
    </contour>
    <contour>
      <point x="152" y="-85" type="line"/>
      <point x="152" y="662" type="line"/>
      <point x="849" y="662" type="line"/>
      <point x="849" y="-85" type="line"/>
    </contour>
    <contour>
      <point x="456" y="241" type="curve" smooth="yes"/>
      <point x="456" y="206" type="line"/>
      <point x="593" y="206" type="line"/>
      <point x="593" y="245" type="line" smooth="yes"/>
      <point x="593" y="288"/>
      <point x="572" y="326"/>
      <point x="518" y="365" type="curve" smooth="yes"/>
      <point x="479" y="393"/>
      <point x="466" y="405"/>
      <point x="466" y="426" type="curve" smooth="yes"/>
      <point x="466" y="448"/>
      <point x="479" y="463"/>
      <point x="509" y="463" type="curve" smooth="yes"/>
      <point x="540" y="463"/>
      <point x="587" y="445"/>
      <point x="636" y="419" type="curve"/>
      <point x="687" y="527" type="line"/>
      <point x="635" y="560"/>
      <point x="563" y="583"/>
      <point x="507" y="583" type="curve" smooth="yes"/>
      <point x="392" y="583"/>
      <point x="322" y="530"/>
      <point x="322" y="439" type="curve" smooth="yes"/>
      <point x="322" y="392"/>
      <point x="336" y="357"/>
      <point x="411" y="301" type="curve" smooth="yes"/>
      <point x="444" y="277"/>
      <point x="456" y="266"/>
    </contour>
    <contour>
      <point x="520" y="-15" type="curve" smooth="yes"/>
      <point x="572" y="-15"/>
      <point x="603" y="11"/>
      <point x="603" y="61" type="curve" smooth="yes"/>
      <point x="603" y="110"/>
      <point x="571" y="136"/>
      <point x="520" y="136" type="curve" smooth="yes"/>
      <point x="468" y="136"/>
      <point x="438" y="108"/>
      <point x="438" y="61" type="curve" smooth="yes"/>
      <point x="438" y="16"/>
      <point x="466" y="-15"/>
    </contour>
  </outline>
</glyph>
<glyph name="question-ar" format="2">
  <advance width="560"/>
  <unicode hex="061F"/>
  <note>
uni061F
</note>
  <outline>
    <contour>
      <point x="230" y="303" type="curve" smooth="yes"/>
      <point x="230" y="260" type="line"/>
      <point x="399" y="260" type="line"/>
      <point x="399" y="308" type="line" smooth="yes"/>
      <point x="399" y="361"/>
      <point x="373" y="407"/>
      <point x="307" y="455" type="curve" smooth="yes"/>
      <point x="259" y="490"/>
      <point x="243" y="505"/>
      <point x="243" y="531" type="curve" smooth="yes"/>
      <point x="243" y="558"/>
      <point x="259" y="576"/>
      <point x="295" y="576" type="curve" smooth="yes"/>
      <point x="334" y="576"/>
      <point x="391" y="554"/>
      <point x="452" y="522" type="curve"/>
      <point x="515" y="655" type="line"/>
      <point x="451" y="695"/>
      <point x="362" y="724"/>
      <point x="293" y="724" type="curve" smooth="yes"/>
      <point x="151" y="724"/>
      <point x="65" y="658"/>
      <point x="65" y="546" type="curve" smooth="yes"/>
      <point x="65" y="489"/>
      <point x="83" y="445"/>
      <point x="175" y="377" type="curve" smooth="yes"/>
      <point x="216" y="347"/>
      <point x="230" y="334"/>
    </contour>
    <contour>
      <point x="309" y="-12" type="curve" smooth="yes"/>
      <point x="373" y="-12"/>
      <point x="411" y="20"/>
      <point x="411" y="81" type="curve" smooth="yes"/>
      <point x="411" y="142"/>
      <point x="372" y="174"/>
      <point x="309" y="174" type="curve" smooth="yes"/>
      <point x="245" y="174"/>
      <point x="208" y="139"/>
      <point x="208" y="81" type="curve" smooth="yes"/>
      <point x="208" y="26"/>
      <point x="243" y="-12"/>
    </contour>
  </outline>
</glyph>
<glyph name="yehKashmiri-ar" format="2">
  <advance width="912"/>
  <unicode hex="0620"/>
  <anchor x="441" y="-427" name="bottom"/>
  <anchor x="282" y="353" name="top"/>
  <outline>
    <contour>
      <point x="441" y="-400" type="curve" smooth="yes"/>
      <point x="504" y="-400"/>
      <point x="555" y="-349"/>
      <point x="555" y="-286" type="curve" smooth="yes"/>
      <point x="555" y="-223"/>
      <point x="504" y="-172"/>
      <point x="441" y="-172" type="curve" smooth="yes"/>
      <point x="378" y="-172"/>
      <point x="327" y="-223"/>
      <point x="327" y="-286" type="curve" smooth="yes"/>
      <point x="327" y="-349"/>
      <point x="378" y="-400"/>
    </contour>
    <contour>
      <point x="441" y="-329" type="curve" smooth="yes"/>
      <point x="417" y="-329"/>
      <point x="398" y="-310"/>
      <point x="398" y="-286" type="curve" smooth="yes"/>
      <point x="398" y="-262"/>
      <point x="417" y="-243"/>
      <point x="441" y="-243" type="curve" smooth="yes"/>
      <point x="465" y="-243"/>
      <point x="484" y="-262"/>
      <point x="484" y="-286" type="curve" smooth="yes"/>
      <point x="484" y="-310"/>
      <point x="465" y="-329"/>
    </contour>
    <component base="alefMaksura-ar"/>
  </outline>
</glyph>
<glyph name="hamza-ar" format="2">
  <advance width="550"/>
  <unicode hex="0621"/>
  <note>
uni0621
</note>
  <anchor x="272" y="-78" name="bottom"/>
  <anchor x="293" y="488" name="top"/>
  <outline>
    <contour>
      <point x="65" y="102" type="curve"/>
      <point x="65" y="-22" type="line"/>
      <point x="186" y="-3"/>
      <point x="384" y="20"/>
      <point x="502" y="26" type="curve"/>
      <point x="502" y="173" type="line"/>
      <point x="447" y="170"/>
      <point x="360" y="158"/>
      <point x="341" y="155" type="curve" smooth="yes"/>
      <point x="323" y="152" type="line"/>
      <point x="293" y="164"/>
      <point x="272" y="189"/>
      <point x="272" y="221" type="curve" smooth="yes"/>
      <point x="272" y="277"/>
      <point x="312" y="298"/>
      <point x="362" y="298" type="curve" smooth="yes"/>
      <point x="406" y="298"/>
      <point x="437" y="292"/>
      <point x="456" y="280" type="curve"/>
      <point x="491" y="417" type="line"/>
      <point x="462" y="433"/>
      <point x="403" y="446"/>
      <point x="337" y="446" type="curve" smooth="yes"/>
      <point x="242" y="446"/>
      <point x="170" y="417"/>
      <point x="130" y="368" type="curve" smooth="yes"/>
      <point x="104" y="337"/>
      <point x="90" y="300"/>
      <point x="90" y="255" type="curve" smooth="yes"/>
      <point x="90" y="199"/>
      <point x="118" y="150"/>
      <point x="164" y="125" type="curve"/>
      <point x="137" y="121"/>
      <point x="106" y="114"/>
    </contour>
  </outline>
</glyph>
<glyph name="alef-ar" format="2">
  <advance width="389"/>
  <unicode hex="0627"/>
  <note>
uni0627
</note>
  <anchor x="189" y="-78" name="bottom"/>
  <anchor x="196" y="837" name="top"/>
  <outline>
    <contour>
      <point x="100" y="760" type="line"/>
      <point x="100" y="0" type="line"/>
      <point x="289" y="0" type="line"/>
      <point x="289" y="760" type="line"/>
    </contour>
  </outline>
</glyph>
<glyph name="hah-ar" format="2">
  <advance width="712"/>
  <unicode hex="062D"/>
  <note>
uni062D
</note>
  <anchor x="188" y="-436" name="bottom"/>
  <anchor x="358" y="445" name="center"/>
  <anchor x="280" y="599" name="top"/>
  <outline>
    <contour>
      <point x="348" y="-388" type="curve" smooth="yes"/>
      <point x="404" y="-388"/>
      <point x="464" y="-378"/>
      <point x="513" y="-368" type="curve"/>
      <point x="493" y="-223" type="line"/>
      <point x="451" y="-232"/>
      <point x="408" y="-236"/>
      <point x="377" y="-236" type="curve" smooth="yes"/>
      <point x="286" y="-236"/>
      <point x="219" y="-181"/>
      <point x="219" y="-101" type="curve" smooth="yes"/>
      <point x="219" y="-49"/>
      <point x="248" y="-5"/>
      <point x="303" y="27" type="curve" smooth="yes"/>
      <point x="348" y="53"/>
      <point x="409" y="75"/>
      <point x="459" y="85" type="curve"/>
      <point x="492" y="46"/>
      <point x="523" y="16"/>
      <point x="556" y="-8" type="curve"/>
      <point x="653" y="123" type="line"/>
      <point x="595" y="168"/>
      <point x="566" y="231"/>
      <point x="544" y="322" type="curve" smooth="yes"/>
      <point x="510" y="460"/>
      <point x="424" y="518"/>
      <point x="287" y="518" type="curve" smooth="yes"/>
      <point x="206" y="518"/>
      <point x="128" y="496"/>
      <point x="35" y="458" type="curve"/>
      <point x="100" y="313" type="line"/>
      <point x="177" y="350"/>
      <point x="219" y="364"/>
      <point x="259" y="364" type="curve" smooth="yes"/>
      <point x="317" y="364"/>
      <point x="353" y="332"/>
      <point x="377" y="272" type="curve" smooth="yes"/>
      <point x="381" y="263"/>
      <point x="392" y="238"/>
      <point x="400" y="216" type="curve"/>
      <point x="291" y="191"/>
      <point x="202" y="149"/>
      <point x="137" y="97" type="curve" smooth="yes"/>
      <point x="66" y="41"/>
      <point x="32" y="-38"/>
      <point x="32" y="-122" type="curve" smooth="yes"/>
      <point x="32" y="-282"/>
      <point x="168" y="-388"/>
    </contour>
  </outline>
</glyph>
<glyph name="dal-ar" format="2">
  <advance width="652"/>
  <unicode hex="062F"/>
  <note>
uni062F
</note>
  <anchor x="275" y="-78" name="bottom"/>
  <anchor x="206" y="668" name="top"/>
  <outline>
    <contour>
      <point x="45" y="148" type="line"/>
      <point x="45" y="0" type="line"/>
      <point x="574" y="0" type="line"/>
      <point x="574" y="143" type="line"/>
      <point x="521" y="373"/>
      <point x="428" y="521"/>
      <point x="234" y="596" type="curve"/>
      <point x="139" y="437" type="line"/>
      <point x="221" y="397"/>
      <point x="279" y="350"/>
      <point x="311" y="305" type="curve" smooth="yes"/>
      <point x="336" y="269"/>
      <point x="361" y="217"/>
      <point x="380" y="148" type="curve"/>
    </contour>
  </outline>
</glyph>
<glyph name="reh-ar" format="2">
  <advance width="513"/>
  <unicode hex="0631"/>
  <note>
uni0631
</note>
  <anchor x="171" y="-323" name="bottom"/>
  <anchor x="320" y="580" name="top"/>
  <outline>
    <contour>
      <point x="170" y="-261" type="curve" smooth="yes"/>
      <point x="323" y="-261"/>
      <point x="428" y="-155"/>
      <point x="428" y="-11" type="curve" smooth="yes"/>
      <point x="428" y="502" type="line"/>
      <point x="236" y="502" type="line"/>
      <point x="236" y="4" type="line" smooth="yes"/>
      <point x="236" y="-45"/>
      <point x="196" y="-87"/>
      <point x="139" y="-87" type="curve" smooth="yes"/>
      <point x="110" y="-87"/>
      <point x="73" y="-75"/>
      <point x="35" y="-53" type="curve"/>
      <point x="-32" y="-195" type="line"/>
      <point x="44" y="-246"/>
      <point x="106" y="-261"/>
    </contour>
  </outline>
</glyph>
<glyph name="seen-ar" format="2">
  <advance width="1524"/>
  <unicode hex="0633"/>
  <note>
uni0633
</note>
  <anchor x="988" y="-78" name="bottom"/>
  <anchor x="989" y="492" name="top"/>
  <outline>
    <contour>
      <point x="1189" y="0" type="curve" smooth="yes"/>
      <point x="1439" y="0" type="line"/>
      <point x="1439" y="502" type="line"/>
      <point x="1247" y="502" type="line"/>
      <point x="1247" y="148" type="line"/>
      <point x="1184" y="148" type="line" smooth="yes"/>
      <point x="1140" y="148"/>
      <point x="1118" y="160"/>
      <point x="1084" y="194" type="curve"/>
      <point x="1087" y="214"/>
      <point x="1089" y="235"/>
      <point x="1089" y="259" type="curve"/>
      <point x="1089" y="424" type="line"/>
      <point x="897" y="424" type="line"/>
      <point x="897" y="264" type="line" smooth="yes"/>
      <point x="897" y="177"/>
      <point x="874" y="148"/>
      <point x="805" y="148" type="curve" smooth="yes"/>
      <point x="735" y="148" type="line"/>
      <point x="735" y="424" type="line"/>
      <point x="544" y="424" type="line"/>
      <point x="544" y="67" type="line" smooth="yes"/>
      <point x="544" y="-31"/>
      <point x="500" y="-92"/>
      <point x="406" y="-92" type="curve" smooth="yes"/>
      <point x="393" y="-92" type="line" smooth="yes"/>
      <point x="299" y="-92"/>
      <point x="253" y="-31"/>
      <point x="253" y="58" type="curve" smooth="yes"/>
      <point x="253" y="113"/>
      <point x="267" y="187"/>
      <point x="287" y="267" type="curve"/>
      <point x="123" y="267" type="line"/>
      <point x="87" y="205"/>
      <point x="65" y="128"/>
      <point x="65" y="56" type="curve" smooth="yes"/>
      <point x="65" y="-126"/>
      <point x="177" y="-249"/>
      <point x="388" y="-249" type="curve" smooth="yes"/>
      <point x="410" y="-249" type="line" smooth="yes"/>
      <point x="602" y="-249"/>
      <point x="714" y="-168"/>
      <point x="734" y="0" type="curve"/>
      <point x="854" y="0" type="line" smooth="yes"/>
      <point x="933" y="0"/>
      <point x="993" y="23"/>
      <point x="1035" y="79" type="curve"/>
      <point x="1079" y="30"/>
      <point x="1135" y="0"/>
    </contour>
  </outline>
</glyph>
<glyph name="sad-ar" format="2">
  <advance width="1338"/>
  <unicode hex="0635"/>
  <note>
uni0635
</note>
  <anchor x="954" y="-78" name="bottom"/>
  <anchor x="973" y="586" name="top"/>
  <outline>
    <contour>
      <point x="384" y="-245" type="curve" smooth="yes"/>
      <point x="408" y="-245" type="line" smooth="yes"/>
      <point x="598" y="-245"/>
      <point x="716" y="-155"/>
      <point x="734" y="0" type="curve"/>
      <point x="1263" y="0" type="line"/>
      <point x="1263" y="239" type="line" smooth="yes"/>
      <point x="1263" y="423"/>
      <point x="1175" y="512"/>
      <point x="1002" y="512" type="curve" smooth="yes"/>
      <point x="881" y="512"/>
      <point x="795" y="459"/>
      <point x="735" y="353" type="curve"/>
      <point x="735" y="502" type="line"/>
      <point x="544" y="502" type="line"/>
      <point x="544" y="67" type="line" smooth="yes"/>
      <point x="544" y="-31"/>
      <point x="500" y="-92"/>
      <point x="406" y="-92" type="curve" smooth="yes"/>
      <point x="391" y="-92" type="line" smooth="yes"/>
      <point x="310" y="-92"/>
      <point x="253" y="-32"/>
      <point x="253" y="54" type="curve" smooth="yes"/>
      <point x="253" y="101"/>
      <point x="267" y="187"/>
      <point x="287" y="267" type="curve"/>
      <point x="123" y="267" type="line"/>
      <point x="87" y="205"/>
      <point x="65" y="122"/>
      <point x="65" y="50" type="curve" smooth="yes"/>
      <point x="65" y="-129"/>
      <point x="177" y="-245"/>
    </contour>
    <contour>
      <point x="1071" y="148" type="line"/>
      <point x="735" y="148" type="line"/>
      <point x="735" y="222" type="line"/>
      <point x="798" y="317"/>
      <point x="870" y="364"/>
      <point x="951" y="364" type="curve" smooth="yes"/>
      <point x="1034" y="364"/>
      <point x="1071" y="327"/>
      <point x="1071" y="247" type="curve" smooth="yes"/>
    </contour>
  </outline>
</glyph>
<glyph name="tah-ar" format="2">
  <advance width="891"/>
  <unicode hex="0637"/>
  <note>
uni0637
</note>
  <anchor x="474" y="-78" name="bottom"/>
  <anchor x="540" y="595" name="top"/>
  <outline>
    <contour>
      <point x="25" y="0" type="curve" smooth="yes"/>
      <point x="810" y="0" type="line"/>
      <point x="810" y="239" type="line" smooth="yes"/>
      <point x="810" y="423"/>
      <point x="722" y="512"/>
      <point x="549" y="512" type="curve" smooth="yes"/>
      <point x="429" y="512"/>
      <point x="342" y="459"/>
      <point x="282" y="353" type="curve"/>
      <point x="282" y="760" type="line"/>
      <point x="90" y="760" type="line"/>
      <point x="90" y="148" type="line"/>
      <point x="25" y="148" type="line" smooth="yes"/>
      <point x="21" y="148"/>
      <point x="20" y="147"/>
      <point x="20" y="142" type="curve" smooth="yes"/>
      <point x="20" y="7" type="line" smooth="yes"/>
      <point x="20" y="2"/>
      <point x="21" y="0"/>
    </contour>
    <contour>
      <point x="282" y="148" type="line"/>
      <point x="282" y="223" type="line"/>
      <point x="344" y="317"/>
      <point x="414" y="364"/>
      <point x="498" y="364" type="curve" smooth="yes"/>
      <point x="580" y="364"/>
      <point x="618" y="327"/>
      <point x="618" y="247" type="curve" smooth="yes"/>
      <point x="618" y="148" type="line"/>
    </contour>
  </outline>
</glyph>
<glyph name="ain-ar" format="2">
  <advance width="632"/>
  <unicode hex="0639"/>
  <note>
uni0639
</note>
  <anchor x="212" y="-412" name="bottom"/>
  <anchor x="345" y="556" name="top"/>
  <outline>
    <contour>
      <point x="312" y="-361" type="curve" smooth="yes"/>
      <point x="371" y="-361"/>
      <point x="439" y="-355"/>
      <point x="552" y="-332" type="curve"/>
      <point x="531" y="-194" type="line"/>
      <point x="417" y="-207"/>
      <point x="395" y="-209"/>
      <point x="359" y="-209" type="curve" smooth="yes"/>
      <point x="287" y="-209"/>
      <point x="234" y="-172"/>
      <point x="234" y="-111" type="curve" smooth="yes"/>
      <point x="234" y="-78"/>
      <point x="245" y="-34"/>
      <point x="302" y="3" type="curve" smooth="yes"/>
      <point x="334" y="24"/>
      <point x="395" y="49"/>
      <point x="524" y="85" type="curve"/>
      <point x="486" y="218" type="line"/>
      <point x="428" y="202"/>
      <point x="369" y="181"/>
      <point x="309" y="159" type="curve"/>
      <point x="290" y="197"/>
      <point x="277" y="233"/>
      <point x="277" y="255" type="curve" smooth="yes"/>
      <point x="277" y="319"/>
      <point x="333" y="362"/>
      <point x="402" y="362" type="curve" smooth="yes"/>
      <point x="444" y="362"/>
      <point x="482" y="353"/>
      <point x="531" y="338" type="curve"/>
      <point x="583" y="483" type="line"/>
      <point x="545" y="494"/>
      <point x="461" y="517"/>
      <point x="393" y="517" type="curve" smooth="yes"/>
      <point x="203" y="517"/>
      <point x="100" y="422"/>
      <point x="100" y="270" type="curve" smooth="yes"/>
      <point x="100" y="205"/>
      <point x="139" y="136"/>
      <point x="180" y="92" type="curve"/>
      <point x="86" y="37"/>
      <point x="51" y="-62"/>
      <point x="51" y="-136" type="curve" smooth="yes"/>
      <point x="51" y="-263"/>
      <point x="154" y="-361"/>
    </contour>
  </outline>
</glyph>
<glyph name="kashida-ar" format="2">
  <advance width="171"/>
  <unicode hex="0640"/>
  <note>
uni0640
</note>
  <anchor x="88" y="-78" name="bottom"/>
  <anchor x="88" y="391" name="top"/>
  <outline>
    <contour>
      <point x="176" y="148" type="curve" smooth="yes"/>
      <point x="-5" y="148" type="line" smooth="yes"/>
      <point x="-8" y="148"/>
      <point x="-10" y="147"/>
      <point x="-10" y="144" type="curve" smooth="yes"/>
      <point x="-10" y="5" type="line" smooth="yes"/>
      <point x="-10" y="2"/>
      <point x="-8" y="0"/>
      <point x="-5" y="0" type="curve" smooth="yes"/>
      <point x="176" y="0" type="line" smooth="yes"/>
      <point x="179" y="0"/>
      <point x="181" y="2"/>
      <point x="181" y="5" type="curve" smooth="yes"/>
      <point x="181" y="144" type="line" smooth="yes"/>
      <point x="181" y="147"/>
      <point x="179" y="148"/>
    </contour>
  </outline>
</glyph>
<glyph name="kaf-ar" format="2">
  <advance width="941.33333"/>
  <unicode hex="0643"/>
  <note>
uni0643
</note>
  <anchor x="451" y="-58" name="bottom"/>
  <anchor x="417" y="590" name="top"/>
  <outline>
    <contour>
      <point x="348" y="364" type="line"/>
      <point x="348" y="303" type="line"/>
      <point x="439" y="316"/>
      <point x="534" y="326"/>
      <point x="571" y="329" type="curve"/>
      <point x="571" y="399" type="line"/>
      <point x="546" y="397"/>
      <point x="512" y="392"/>
      <point x="472" y="386" type="curve"/>
      <point x="451" y="397"/>
      <point x="442" y="411"/>
      <point x="442" y="430" type="curve" smooth="yes"/>
      <point x="442" y="453"/>
      <point x="458" y="476"/>
      <point x="488" y="476" type="curve" smooth="yes"/>
      <point x="505" y="476"/>
      <point x="524" y="471"/>
      <point x="544" y="462" type="curve"/>
      <point x="568" y="517" type="line"/>
      <point x="543" y="530"/>
      <point x="512" y="539"/>
      <point x="475" y="539" type="curve" smooth="yes"/>
      <point x="403" y="539"/>
      <point x="360" y="501"/>
      <point x="360" y="445" type="curve" smooth="yes"/>
      <point x="360" y="412"/>
      <point x="382" y="386"/>
      <point x="411" y="374" type="curve"/>
    </contour>
    <contour>
      <point x="272" y="0" type="curve" smooth="yes"/>
      <point x="841" y="0" type="line"/>
      <point x="841" y="760" type="line"/>
      <point x="650" y="760" type="line"/>
      <point x="650" y="148" type="line"/>
      <point x="347" y="148" type="line" smooth="yes"/>
      <point x="295" y="148"/>
      <point x="257" y="190"/>
      <point x="257" y="248" type="curve" smooth="yes"/>
      <point x="257" y="296"/>
      <point x="262" y="340"/>
      <point x="272" y="381" type="curve"/>
      <point x="102" y="381" type="line"/>
      <point x="82" y="344"/>
      <point x="65" y="270"/>
      <point x="65" y="216" type="curve" smooth="yes"/>
      <point x="65" y="83"/>
      <point x="148" y="0"/>
    </contour>
  </outline>
</glyph>
<glyph name="lam-ar" format="2">
  <advance width="835"/>
  <unicode hex="0644"/>
  <note>
uni0644
</note>
  <anchor x="352" y="-322" name="bottom"/>
  <anchor x="244" y="732" name="top"/>
  <outline>
    <contour>
      <point x="366" y="-253" type="curve" smooth="yes"/>
      <point x="415" y="-253" type="line" smooth="yes"/>
      <point x="633" y="-253"/>
      <point x="735" y="-136"/>
      <point x="735" y="96" type="curve" smooth="yes"/>
      <point x="735" y="760" type="line"/>
      <point x="546" y="760" type="line"/>
      <point x="546" y="107" type="line" smooth="yes"/>
      <point x="546" y="-39"/>
      <point x="512" y="-92"/>
      <point x="414" y="-92" type="curve" smooth="yes"/>
      <point x="374" y="-92" type="line" smooth="yes"/>
      <point x="293" y="-92"/>
      <point x="253" y="-29"/>
      <point x="253" y="67" type="curve" smooth="yes"/>
      <point x="253" y="119"/>
      <point x="260" y="187"/>
      <point x="275" y="267" type="curve"/>
      <point x="111" y="267" type="line"/>
      <point x="80" y="205"/>
      <point x="65" y="128"/>
      <point x="65" y="56" type="curve" smooth="yes"/>
      <point x="65" y="-123"/>
      <point x="170" y="-253"/>
    </contour>
  </outline>
</glyph>
<glyph name="meem-ar" format="2">
  <advance width="759"/>
  <unicode hex="0645"/>
  <note>
uni0645
</note>
  <anchor x="456" y="-78" name="bottom"/>
  <anchor x="404" y="576" name="top"/>
  <outline>
    <contour>
      <point x="65" y="-4" type="curve" smooth="yes"/>
      <point x="65" y="-320" type="line"/>
      <point x="254" y="-320" type="line"/>
      <point x="254" y="-80" type="line" smooth="yes"/>
      <point x="254" y="-21"/>
      <point x="275" y="0"/>
      <point x="345" y="0" type="curve"/>
      <point x="413" y="0" type="line" smooth="yes"/>
      <point x="521" y="0"/>
      <point x="618" y="49"/>
      <point x="664" y="118" type="curve" smooth="yes"/>
      <point x="698" y="169"/>
      <point x="711" y="217"/>
      <point x="711" y="271" type="curve" smooth="yes"/>
      <point x="711" y="365"/>
      <point x="662" y="447"/>
      <point x="580" y="487" type="curve" smooth="yes"/>
      <point x="539" y="507"/>
      <point x="494" y="517"/>
      <point x="441" y="517" type="curve" smooth="yes"/>
      <point x="370" y="517"/>
      <point x="301" y="495"/>
      <point x="232" y="456" type="curve"/>
      <point x="191" y="398"/>
      <point x="178" y="329"/>
      <point x="178" y="274" type="curve" smooth="yes"/>
      <point x="178" y="220"/>
      <point x="197" y="177"/>
      <point x="216" y="146" type="curve"/>
      <point x="215" y="146" type="line" smooth="yes"/>
      <point x="125" y="146"/>
      <point x="65" y="83"/>
    </contour>
    <contour>
      <point x="365" y="258" type="curve" smooth="yes"/>
      <point x="365" y="280"/>
      <point x="368" y="313"/>
      <point x="378" y="340" type="curve"/>
      <point x="397" y="354"/>
      <point x="418" y="360"/>
      <point x="438" y="360" type="curve" smooth="yes"/>
      <point x="483" y="360"/>
      <point x="521" y="323"/>
      <point x="521" y="261" type="curve" smooth="yes"/>
      <point x="521" y="184"/>
      <point x="470" y="148"/>
      <point x="418" y="148" type="curve" smooth="yes"/>
      <point x="388" y="148" type="line"/>
      <point x="375" y="178"/>
      <point x="365" y="218"/>
    </contour>
  </outline>
</glyph>
<glyph name="heh-ar" format="2">
  <advance width="653.66667"/>
  <unicode hex="0647"/>
  <note>
uni0647
</note>
  <anchor x="303" y="-58" name="bottom"/>
  <anchor x="322" y="579" name="top"/>
  <outline>
    <contour>
      <point x="325" y="-10" type="curve" smooth="yes"/>
      <point x="500" y="-10"/>
      <point x="590" y="67"/>
      <point x="590" y="219" type="curve" smooth="yes"/>
      <point x="590" y="328"/>
      <point x="534" y="430"/>
      <point x="458" y="477" type="curve" smooth="yes"/>
      <point x="420" y="500"/>
      <point x="376" y="512"/>
      <point x="328" y="512" type="curve" smooth="yes"/>
      <point x="220" y="512"/>
      <point x="140" y="462"/>
      <point x="94" y="378" type="curve" smooth="yes"/>
      <point x="70" y="334"/>
      <point x="61" y="283"/>
      <point x="61" y="229" type="curve" smooth="yes"/>
      <point x="61" y="77"/>
      <point x="149" y="-10"/>
    </contour>
    <contour>
      <point x="322" y="142" type="curve" smooth="yes"/>
      <point x="262" y="142"/>
      <point x="244" y="180"/>
      <point x="244" y="234" type="curve" smooth="yes"/>
      <point x="244" y="311"/>
      <point x="269" y="363"/>
      <point x="321" y="363" type="curve" smooth="yes"/>
      <point x="367" y="363"/>
      <point x="400" y="301"/>
      <point x="400" y="231" type="curve" smooth="yes"/>
      <point x="400" y="179"/>
      <point x="383" y="142"/>
    </contour>
  </outline>
</glyph>
<glyph name="waw-ar" format="2">
  <advance width="681"/>
  <unicode hex="0648"/>
  <note>
uni0648
</note>
  <anchor x="284" y="-293" name="bottom"/>
  <anchor x="346" y="445" name="center"/>
  <anchor x="365" y="599" name="top"/>
  <outline>
    <contour>
      <point x="293" y="-253" type="curve" smooth="yes"/>
      <point x="492" y="-253"/>
      <point x="596" y="-152"/>
      <point x="596" y="11" type="curve" smooth="yes"/>
      <point x="596" y="502" type="line"/>
      <point x="428" y="502" type="line" smooth="yes"/>
      <point x="230" y="502"/>
      <point x="69" y="415"/>
      <point x="69" y="236" type="curve" smooth="yes"/>
      <point x="69" y="95"/>
      <point x="163" y="0"/>
      <point x="352" y="0" type="curve" smooth="yes"/>
      <point x="409" y="0" type="line"/>
      <point x="409" y="-15" type="line" smooth="yes"/>
      <point x="409" y="-63"/>
      <point x="368" y="-107"/>
      <point x="294" y="-107" type="curve" smooth="yes"/>
      <point x="247" y="-107"/>
      <point x="195" y="-97"/>
      <point x="134" y="-58" type="curve"/>
      <point x="65" y="-190" type="line"/>
      <point x="127" y="-227"/>
      <point x="209" y="-253"/>
    </contour>
    <contour>
      <point x="407" y="148" type="line"/>
      <point x="368" y="148" type="line" smooth="yes"/>
      <point x="293" y="148"/>
      <point x="259" y="182"/>
      <point x="259" y="247" type="curve" smooth="yes"/>
      <point x="259" y="314"/>
      <point x="309" y="354"/>
      <point x="383" y="354" type="curve" smooth="yes"/>
      <point x="407" y="354" type="line"/>
    </contour>
  </outline>
</glyph>
<glyph name="alefMaksura-ar" format="2">
  <advance width="912.33333"/>
  <unicode hex="0649"/>
  <note>
uni0649
</note>
  <anchor x="391" y="-322" name="bottom"/>
  <anchor x="225" y="322" name="top"/>
  <outline>
    <contour>
      <point x="266" y="-240" type="curve" smooth="yes"/>
      <point x="516" y="-240" type="line" smooth="yes"/>
      <point x="727" y="-240"/>
      <point x="840" y="-183"/>
      <point x="840" y="-54" type="curve" smooth="yes"/>
      <point x="840" y="-4"/>
      <point x="808" y="33"/>
      <point x="738" y="86" type="curve" smooth="yes"/>
      <point x="702" y="113"/>
      <point x="681" y="128"/>
      <point x="658" y="142" type="curve" smooth="yes"/>
      <point x="629" y="160"/>
      <point x="565" y="201"/>
      <point x="565" y="231" type="curve" smooth="yes"/>
      <point x="565" y="254"/>
      <point x="602" y="295"/>
      <point x="659" y="333" type="curve" smooth="yes"/>
      <point x="690" y="354"/>
      <point x="709" y="362"/>
      <point x="723" y="362" type="curve" smooth="yes"/>
      <point x="741" y="362"/>
      <point x="765" y="347"/>
      <point x="795" y="328" type="curve"/>
      <point x="861" y="465" type="line"/>
      <point x="802" y="505"/>
      <point x="779" y="517"/>
      <point x="750" y="517" type="curve" smooth="yes"/>
      <point x="656" y="517"/>
      <point x="540" y="448"/>
      <point x="461" y="340" type="curve" smooth="yes"/>
      <point x="422" y="286"/>
      <point x="402" y="239"/>
      <point x="402" y="200" type="curve" smooth="yes"/>
      <point x="402" y="148"/>
      <point x="429" y="114"/>
      <point x="529" y="50" type="curve" smooth="yes"/>
      <point x="576" y="20"/>
      <point x="609" y="-2"/>
      <point x="622" y="-11" type="curve" smooth="yes"/>
      <point x="637" y="-21"/>
      <point x="652" y="-38"/>
      <point x="652" y="-52" type="curve" smooth="yes"/>
      <point x="652" y="-80"/>
      <point x="614" y="-92"/>
      <point x="514" y="-92" type="curve" smooth="yes"/>
      <point x="357" y="-92" type="line" smooth="yes"/>
      <point x="275" y="-92"/>
      <point x="243" y="-32"/>
      <point x="243" y="41" type="curve" smooth="yes"/>
      <point x="243" y="82"/>
      <point x="246" y="126"/>
      <point x="261" y="181" type="curve"/>
      <point x="95" y="181" type="line"/>
      <point x="76" y="113"/>
      <point x="65" y="41"/>
      <point x="65" y="-21" type="curve" smooth="yes"/>
      <point x="65" y="-135"/>
      <point x="146" y="-240"/>
    </contour>
  </outline>
</glyph>
<glyph name="fathatan-ar" format="2">
  <unicode hex="064B"/>
  <note>
uni064B
</note>
  <anchor x="0" y="771" name="_top"/>
  <anchor x="0" y="1048" name="top"/>
  <outline>
    <contour>
      <point x="-117" y="838" type="line"/>
      <point x="-117" y="766" type="line"/>
      <point x="117" y="854" type="line"/>
      <point x="117" y="925" type="line"/>
    </contour>
    <contour>
      <point x="-117" y="961" type="line"/>
      <point x="-117" y="889" type="line"/>
      <point x="117" y="977" type="line"/>
      <point x="117" y="1048" type="line"/>
    </contour>
  </outline>
</glyph>
<glyph name="dammatan-ar" format="2">
  <unicode hex="064C"/>
  <note>
uni064C
</note>
  <anchor x="-2" y="748" name="_top"/>
  <anchor x="0" y="748" name="_top2"/>
  <anchor x="13" y="1033" name="top"/>
  <outline>
    <contour>
      <point x="12" y="780" type="curve" smooth="yes"/>
      <point x="74" y="780"/>
      <point x="132" y="810"/>
      <point x="161" y="855" type="curve" smooth="yes"/>
      <point x="176" y="878"/>
      <point x="184" y="903"/>
      <point x="184" y="929" type="curve" smooth="yes"/>
      <point x="184" y="978"/>
      <point x="149" y="1013"/>
      <point x="93" y="1013" type="curve" smooth="yes"/>
      <point x="37" y="1013"/>
      <point x="-2" y="978"/>
      <point x="-2" y="925" type="curve" smooth="yes"/>
      <point x="-2" y="899"/>
      <point x="5" y="875"/>
      <point x="26" y="843" type="curve"/>
      <point x="20" y="843"/>
      <point x="15" y="843"/>
      <point x="11" y="843" type="curve" smooth="yes"/>
      <point x="-31" y="843"/>
      <point x="-67" y="869"/>
      <point x="-106" y="925" type="curve"/>
      <point x="-199" y="844" type="line"/>
      <point x="-161" y="798" type="line"/>
      <point x="-115" y="838" type="line"/>
      <point x="-75" y="795"/>
      <point x="-33" y="780"/>
    </contour>
    <contour>
      <point x="85" y="866" type="curve"/>
      <point x="71" y="886"/>
      <point x="64" y="904"/>
      <point x="64" y="920" type="curve" smooth="yes"/>
      <point x="64" y="940"/>
      <point x="77" y="950"/>
      <point x="91" y="950" type="curve" smooth="yes"/>
      <point x="108" y="950"/>
      <point x="118" y="940"/>
      <point x="118" y="922" type="curve" smooth="yes"/>
      <point x="118" y="911"/>
      <point x="114" y="884"/>
    </contour>
  </outline>
</glyph>
<glyph name="kasratan-ar" format="2">
  <unicode hex="064D"/>
  <note>
uni064D
</note>
  <anchor x="0" y="-112" name="_bottom"/>
  <anchor x="0" y="-411" name="bottom"/>
  <outline>
    <contour>
      <point x="-117" y="-349" type="line"/>
      <point x="-117" y="-420" type="line"/>
      <point x="117" y="-332" type="line"/>
      <point x="117" y="-262" type="line"/>
    </contour>
    <contour>
      <point x="-117" y="-209" type="line"/>
      <point x="-117" y="-281" type="line"/>
      <point x="117" y="-193" type="line"/>
      <point x="117" y="-122" type="line"/>
    </contour>
  </outline>
</glyph>
<glyph name="fatha-ar" format="2">
  <unicode hex="064E"/>
  <note>
uni064E
</note>
  <anchor x="0" y="781" name="_top"/>
  <anchor x="0" y="935" name="top"/>
  <outline>
    <contour>
      <point x="-117" y="848" type="line"/>
      <point x="-117" y="776" type="line"/>
      <point x="117" y="864" type="line"/>
      <point x="117" y="935" type="line"/>
    </contour>
  </outline>
</glyph>
<glyph name="damma-ar" format="2">
  <unicode hex="064F"/>
  <note>
uni064F
</note>
  <anchor x="0" y="756" name="_top"/>
  <anchor x="0" y="1042" name="top"/>
  <outline>
    <contour>
      <point x="-31" y="779" type="curve" smooth="yes"/>
      <point x="33" y="779"/>
      <point x="93" y="807"/>
      <point x="130" y="856" type="curve" smooth="yes"/>
      <point x="148" y="879"/>
      <point x="157" y="905"/>
      <point x="157" y="929" type="curve" smooth="yes"/>
      <point x="157" y="980"/>
      <point x="119" y="1013"/>
      <point x="66" y="1013" type="curve" smooth="yes"/>
      <point x="10" y="1013"/>
      <point x="-29" y="978"/>
      <point x="-29" y="925" type="curve" smooth="yes"/>
      <point x="-29" y="902"/>
      <point x="-20" y="875"/>
      <point x="-3" y="846" type="curve"/>
      <point x="-12" y="843"/>
      <point x="-20" y="842"/>
      <point x="-31" y="842" type="curve" smooth="yes"/>
      <point x="-50" y="842"/>
      <point x="-86" y="856"/>
      <point x="-110" y="872" type="curve"/>
      <point x="-147" y="818" type="line"/>
      <point x="-112" y="793"/>
      <point x="-75" y="779"/>
    </contour>
    <contour>
      <point x="55" y="869" type="curve"/>
      <point x="41" y="890"/>
      <point x="35" y="907"/>
      <point x="35" y="920" type="curve" smooth="yes"/>
      <point x="35" y="941"/>
      <point x="49" y="950"/>
      <point x="64" y="950" type="curve" smooth="yes"/>
      <point x="78" y="950"/>
      <point x="90" y="940"/>
      <point x="90" y="925" type="curve" smooth="yes"/>
      <point x="90" y="907"/>
      <point x="79" y="883"/>
    </contour>
  </outline>
</glyph>
<glyph name="kasra-ar" format="2">
  <unicode hex="0650"/>
  <note>
uni0650
</note>
  <anchor x="0" y="-122" name="_bottom"/>
  <anchor x="0" y="-283" name="bottom"/>
  <outline>
    <contour>
      <point x="-117" y="-219" type="line"/>
      <point x="-117" y="-291" type="line"/>
      <point x="117" y="-203" type="line"/>
      <point x="117" y="-132" type="line"/>
    </contour>
  </outline>
</glyph>
<glyph name="shadda-ar" format="2">
  <unicode hex="0651"/>
  <note>
uni0651
</note>
  <anchor x="0" y="786" name="_top"/>
  <anchor x="-1" y="1030" name="top"/>
  <outline>
    <contour>
      <point x="-69" y="806" type="curve" smooth="yes"/>
      <point x="-32" y="806"/>
      <point x="-5" y="823"/>
      <point x="12" y="856" type="curve"/>
      <point x="29" y="836"/>
      <point x="52" y="826"/>
      <point x="82" y="826" type="curve" smooth="yes"/>
      <point x="142" y="826"/>
      <point x="177" y="863"/>
      <point x="177" y="923" type="curve" smooth="yes"/>
      <point x="177" y="1006" type="line"/>
      <point x="108" y="1006" type="line"/>
      <point x="108" y="944" type="line" smooth="yes"/>
      <point x="108" y="897"/>
      <point x="96" y="889"/>
      <point x="75" y="889" type="curve" smooth="yes"/>
      <point x="51" y="889"/>
      <point x="41" y="910"/>
      <point x="41" y="935" type="curve" smooth="yes"/>
      <point x="41" y="991" type="line"/>
      <point x="-23" y="991" type="line"/>
      <point x="-23" y="915" type="line" smooth="yes"/>
      <point x="-23" y="880"/>
      <point x="-37" y="869"/>
      <point x="-57" y="869" type="curve" smooth="yes"/>
      <point x="-83" y="869"/>
      <point x="-90" y="891"/>
      <point x="-90" y="924" type="curve" smooth="yes"/>
      <point x="-90" y="966" type="line"/>
      <point x="-159" y="966" type="line"/>
      <point x="-159" y="903" type="line" smooth="yes"/>
      <point x="-159" y="844"/>
      <point x="-125" y="806"/>
    </contour>
  </outline>
</glyph>
<glyph name="sukun-ar" format="2">
  <unicode hex="0652"/>
  <note>
uni0652
</note>
  <anchor x="0" y="791" name="_top"/>
  <anchor x="0" y="791" name="_top2"/>
  <anchor x="1" y="1046" name="top"/>
  <outline>
    <contour>
      <point x="-1" y="816" type="curve" smooth="yes"/>
      <point x="68" y="816"/>
      <point x="111" y="860"/>
      <point x="111" y="922" type="curve" smooth="yes"/>
      <point x="111" y="985"/>
      <point x="63" y="1026"/>
      <point x="-1" y="1026" type="curve" smooth="yes"/>
      <point x="-69" y="1026"/>
      <point x="-110" y="984"/>
      <point x="-110" y="921" type="curve" smooth="yes"/>
      <point x="-110" y="858"/>
      <point x="-68" y="816"/>
    </contour>
    <contour>
      <point x="-1" y="884" type="curve" smooth="yes"/>
      <point x="-25" y="884"/>
      <point x="-38" y="899"/>
      <point x="-38" y="921" type="curve" smooth="yes"/>
      <point x="-38" y="942"/>
      <point x="-24" y="958"/>
      <point x="-1" y="958" type="curve" smooth="yes"/>
      <point x="22" y="958"/>
      <point x="36" y="942"/>
      <point x="36" y="921" type="curve" smooth="yes"/>
      <point x="36" y="897"/>
      <point x="22" y="884"/>
    </contour>
  </outline>
</glyph>
<glyph name="madda-ar" format="2">
  <unicode hex="0653"/>
  <note>
uni0653
</note>
  <anchor x="17" y="751" name="_top"/>
  <anchor x="19" y="752" name="_top2"/>
  <anchor x="23" y="921" name="top"/>
  <outline>
    <contour>
      <point x="-165" y="763" type="curve"/>
      <point x="-110" y="763" type="line"/>
      <point x="-100" y="809"/>
      <point x="-84" y="827"/>
      <point x="-54" y="827" type="curve" smooth="yes"/>
      <point x="-32" y="827"/>
      <point x="-9" y="813"/>
      <point x="15" y="798" type="curve" smooth="yes"/>
      <point x="42" y="781"/>
      <point x="71" y="764"/>
      <point x="100" y="764" type="curve" smooth="yes"/>
      <point x="161" y="764"/>
      <point x="204" y="820"/>
      <point x="210" y="911" type="curve"/>
      <point x="155" y="911" type="line"/>
      <point x="144" y="865"/>
      <point x="131" y="847"/>
      <point x="100" y="847" type="curve" smooth="yes"/>
      <point x="80" y="847"/>
      <point x="57" y="860"/>
      <point x="33" y="875" type="curve" smooth="yes"/>
      <point x="5" y="892"/>
      <point x="-25" y="910"/>
      <point x="-54" y="910" type="curve" smooth="yes"/>
      <point x="-110" y="910"/>
      <point x="-156" y="861"/>
    </contour>
  </outline>
</glyph>
<glyph name="hamzaabove-ar" format="2">
  <unicode hex="0654"/>
  <note>
uni0654
</note>
  <anchor x="0" y="759" name="_top"/>
  <anchor x="14" y="1009" name="top"/>
  <outline>
    <contour>
      <point x="-99" y="828" type="line"/>
      <point x="-99" y="764" type="line"/>
      <point x="-52" y="771"/>
      <point x="77" y="788"/>
      <point x="124" y="790" type="curve"/>
      <point x="124" y="864" type="line"/>
      <point x="101" y="862"/>
      <point x="61" y="857"/>
      <point x="30" y="852" type="curve"/>
      <point x="10" y="859"/>
      <point x="-4" y="874"/>
      <point x="-4" y="894" type="curve" smooth="yes"/>
      <point x="-4" y="920"/>
      <point x="12" y="940"/>
      <point x="41" y="940" type="curve" smooth="yes"/>
      <point x="60" y="940"/>
      <point x="79" y="936"/>
      <point x="98" y="927" type="curve"/>
      <point x="121" y="986" type="line"/>
      <point x="96" y="1001"/>
      <point x="66" y="1009"/>
      <point x="28" y="1009" type="curve" smooth="yes"/>
      <point x="-42" y="1009"/>
      <point x="-87" y="971"/>
      <point x="-87" y="910" type="curve" smooth="yes"/>
      <point x="-87" y="877"/>
      <point x="-66" y="851"/>
      <point x="-40" y="839" type="curve"/>
    </contour>
  </outline>
</glyph>
<glyph name="hamzabelow-ar" format="2">
  <unicode hex="0655"/>
  <note>
uni0655
</note>
  <anchor x="0" y="-59" name="_bottom"/>
  <anchor x="0" y="-59" name="_bottom2"/>
  <anchor x="0" y="-325" name="bottom"/>
  <outline>
    <contour>
      <point x="-116" y="-261" type="line"/>
      <point x="-116" y="-323" type="line"/>
      <point x="-75" y="-317"/>
      <point x="47" y="-302"/>
      <point x="107" y="-297" type="curve"/>
      <point x="107" y="-226" type="line"/>
      <point x="78" y="-228"/>
      <point x="40" y="-234"/>
      <point x="9" y="-239" type="curve"/>
      <point x="-11" y="-229"/>
      <point x="-21" y="-214"/>
      <point x="-21" y="-195" type="curve" smooth="yes"/>
      <point x="-21" y="-170"/>
      <point x="-3" y="-149"/>
      <point x="24" y="-149" type="curve" smooth="yes"/>
      <point x="40" y="-149"/>
      <point x="59" y="-154"/>
      <point x="81" y="-163" type="curve"/>
      <point x="104" y="-108" type="line"/>
      <point x="80" y="-95"/>
      <point x="49" y="-83"/>
      <point x="12" y="-83" type="curve" smooth="yes"/>
      <point x="-59" y="-83"/>
      <point x="-104" y="-124"/>
      <point x="-104" y="-180" type="curve" smooth="yes"/>
      <point x="-104" y="-211"/>
      <point x="-84" y="-237"/>
      <point x="-52" y="-251" type="curve"/>
    </contour>
  </outline>
</glyph>
<glyph name="alefbelow-ar" format="2">
  <unicode hex="0656"/>
  <note>
uni0656
</note>
  <anchor x="3" y="-178" name="_bottom"/>
  <anchor x="0" y="-178" name="_bottom2"/>
  <anchor x="0" y="-452" name="bottom"/>
  <outline>
    <contour>
      <point x="-36" y="-193" type="line"/>
      <point x="-36" y="-377" type="line"/>
      <point x="60" y="-377" type="line"/>
      <point x="60" y="-193" type="line"/>
    </contour>
  </outline>
</glyph>
<glyph name="dammainverted-ar" format="2">
  <unicode hex="0657"/>
  <note>
uni0657
</note>
  <anchor x="0" y="618" name="_top"/>
  <anchor x="0" y="617" name="_top2"/>
  <anchor x="-9" y="841" name="top"/>
  <outline>
    <contour>
      <point x="54" y="834" type="line"/>
      <point x="-51" y="777"/>
      <point x="-68" y="727"/>
      <point x="-68" y="687" type="curve" smooth="yes"/>
      <point x="-68" y="645"/>
      <point x="-41" y="622"/>
      <point x="-8" y="622" type="curve" smooth="yes"/>
      <point x="27" y="622"/>
      <point x="58" y="648"/>
      <point x="58" y="685" type="curve" smooth="yes"/>
      <point x="58" y="713"/>
      <point x="36" y="735"/>
      <point x="5" y="745" type="curve"/>
      <point x="30" y="768"/>
      <point x="54" y="786"/>
      <point x="80" y="798" type="curve"/>
    </contour>
    <contour>
      <point x="-16" y="711" type="curve"/>
      <point x="3" y="703"/>
      <point x="15" y="697"/>
      <point x="15" y="684" type="curve" smooth="yes"/>
      <point x="15" y="671"/>
      <point x="3" y="666"/>
      <point x="-6" y="666" type="curve" smooth="yes"/>
      <point x="-18" y="666"/>
      <point x="-25" y="674"/>
      <point x="-25" y="686" type="curve" smooth="yes"/>
      <point x="-25" y="698"/>
      <point x="-20" y="706"/>
    </contour>
  </outline>
</glyph>
<glyph name="noonghunnaabove-ar" format="2">
  <unicode hex="0658"/>
  <note>
uni0658
</note>
  <anchor x="0" y="633" name="_top"/>
  <anchor x="0" y="634" name="_top2"/>
  <anchor x="-5" y="767" name="top"/>
  <outline>
    <contour>
      <point x="75" y="761" type="curve"/>
      <point x="26" y="761" type="line"/>
      <point x="26" y="737"/>
      <point x="23" y="720"/>
      <point x="18" y="710" type="curve" smooth="yes"/>
      <point x="13" y="700"/>
      <point x="5" y="694"/>
      <point x="-7" y="694" type="curve" smooth="yes"/>
      <point x="-25" y="694"/>
      <point x="-37" y="710"/>
      <point x="-37" y="741" type="curve"/>
      <point x="-86" y="741" type="line"/>
      <point x="-86" y="677"/>
      <point x="-63" y="643"/>
      <point x="-9" y="643" type="curve" smooth="yes"/>
      <point x="50" y="643"/>
      <point x="75" y="680"/>
    </contour>
  </outline>
</glyph>
<glyph name="fathaHorizont-ar" format="2">
  <unicode hex="0659"/>
  <note>
uni0659
</note>
  <anchor x="17" y="604" name="_top"/>
  <anchor x="16" y="627" name="_top2"/>
  <anchor x="23" y="792" name="top"/>
  <outline>
    <contour>
      <point x="183" y="772" type="line"/>
      <point x="-75" y="772" type="line"/>
      <point x="-144" y="627" type="line"/>
      <point x="110" y="627" type="line"/>
    </contour>
  </outline>
</glyph>
<glyph name="dammareversed-ar" format="2">
  <unicode hex="065D"/>
  <note>
uni065D
</note>
  <anchor x="0" y="563" name="_top"/>
  <anchor x="0" y="562" name="_top2"/>
  <anchor x="5" y="836" name="top"/>
  <outline>
    <contour>
      <point x="47" y="581" type="curve" smooth="yes"/>
      <point x="86" y="581"/>
      <point x="123" y="595"/>
      <point x="157" y="620" type="curve"/>
      <point x="120" y="674" type="line"/>
      <point x="89" y="655"/>
      <point x="66" y="646"/>
      <point x="49" y="646" type="curve" smooth="yes"/>
      <point x="34" y="646"/>
      <point x="22" y="647"/>
      <point x="14" y="649" type="curve"/>
      <point x="31" y="678"/>
      <point x="39" y="704"/>
      <point x="39" y="728" type="curve" smooth="yes"/>
      <point x="39" y="781"/>
      <point x="0" y="816"/>
      <point x="-56" y="816" type="curve" smooth="yes"/>
      <point x="-108" y="816"/>
      <point x="-147" y="783"/>
      <point x="-147" y="732" type="curve" smooth="yes"/>
      <point x="-147" y="681"/>
      <point x="-114" y="628"/>
      <point x="-54" y="601" type="curve" smooth="yes"/>
      <point x="-23" y="587"/>
      <point x="13" y="581"/>
    </contour>
    <contour>
      <point x="-45" y="671" type="curve"/>
      <point x="-69" y="688"/>
      <point x="-80" y="709"/>
      <point x="-80" y="728" type="curve" smooth="yes"/>
      <point x="-80" y="742"/>
      <point x="-69" y="753"/>
      <point x="-54" y="753" type="curve" smooth="yes"/>
      <point x="-39" y="753"/>
      <point x="-25" y="742"/>
      <point x="-25" y="723" type="curve" smooth="yes"/>
      <point x="-25" y="710"/>
      <point x="-32" y="693"/>
    </contour>
  </outline>
</glyph>
<glyph name="fathatwodots-ar" format="2">
  <unicode hex="065E"/>
  <note>
uni065E
</note>
  <anchor x="0" y="411" name="_top"/>
  <anchor x="6" y="417" name="_top2"/>
  <anchor x="0" y="856" name="top"/>
  <outline>
    <contour>
      <point x="126" y="757" type="line"/>
      <point x="-124" y="664" type="line"/>
      <point x="-159" y="519" type="line"/>
      <point x="86" y="612" type="line"/>
    </contour>
    <contour>
      <point x="-68" y="726" type="curve" smooth="yes"/>
      <point x="-38" y="726"/>
      <point x="-14" y="744"/>
      <point x="-14" y="784" type="curve" smooth="yes"/>
      <point x="-14" y="827"/>
      <point x="-38" y="844"/>
      <point x="-68" y="844" type="curve" smooth="yes"/>
      <point x="-100" y="844"/>
      <point x="-123" y="827"/>
      <point x="-123" y="784" type="curve" smooth="yes"/>
      <point x="-123" y="744"/>
      <point x="-100" y="726"/>
    </contour>
    <contour>
      <point x="46" y="431" type="curve" smooth="yes"/>
      <point x="74" y="431"/>
      <point x="100" y="448"/>
      <point x="100" y="489" type="curve" smooth="yes"/>
      <point x="100" y="530"/>
      <point x="74" y="549"/>
      <point x="46" y="549" type="curve" smooth="yes"/>
      <point x="14" y="549"/>
      <point x="-10" y="530"/>
      <point x="-10" y="489" type="curve" smooth="yes"/>
      <point x="-10" y="448"/>
      <point x="14" y="431"/>
    </contour>
  </outline>
</glyph>
<glyph name="wavyhamza_below" format="2">
  <unicode hex="065F"/>
  <note>
wavyhamza_below
</note>
  <outline>
    <contour>
      <point x="99" y="-240" type="curve"/>
      <point x="99" y="-176" type="line"/>
      <point x="73" y="-181"/>
      <point x="18" y="-191"/>
      <point x="1" y="-192" type="curve"/>
      <point x="-15" y="-186"/>
      <point x="-29" y="-168"/>
      <point x="-29" y="-149" type="curve" smooth="yes"/>
      <point x="-29" y="-125"/>
      <point x="-13" y="-103"/>
      <point x="16" y="-103" type="curve" smooth="yes"/>
      <point x="36" y="-103"/>
      <point x="55" y="-107"/>
      <point x="73" y="-116" type="curve"/>
      <point x="96" y="-61" type="line"/>
      <point x="71" y="-48"/>
      <point x="38" y="-38"/>
      <point x="3" y="-38" type="curve" smooth="yes"/>
      <point x="-67" y="-38"/>
      <point x="-112" y="-77"/>
      <point x="-112" y="-133" type="curve" smooth="yes"/>
      <point x="-112" y="-167"/>
      <point x="-92" y="-190"/>
      <point x="-60" y="-204" type="curve"/>
      <point x="-68" y="-204"/>
      <point x="-76" y="-203"/>
      <point x="-90" y="-195" type="curve" smooth="yes"/>
      <point x="-99" y="-190"/>
      <point x="-109" y="-186"/>
      <point x="-121" y="-186" type="curve" smooth="yes"/>
      <point x="-135" y="-186"/>
      <point x="-145" y="-190"/>
      <point x="-159" y="-202" type="curve" smooth="yes"/>
      <point x="-172" y="-214"/>
      <point x="-184" y="-227"/>
      <point x="-198" y="-243" type="curve"/>
      <point x="-168" y="-275" type="line"/>
      <point x="-151" y="-260"/>
      <point x="-135" y="-252"/>
      <point x="-123" y="-252" type="curve" smooth="yes"/>
      <point x="-112" y="-252"/>
      <point x="-106" y="-253"/>
      <point x="-97" y="-256" type="curve" smooth="yes"/>
      <point x="-86" y="-260"/>
      <point x="-71" y="-262"/>
      <point x="-48" y="-262" type="curve" smooth="yes"/>
      <point x="-6" y="-262"/>
      <point x="27" y="-257"/>
    </contour>
  </outline>
</glyph>
<glyph name="zero-ar" format="2">
  <advance width="412.33333"/>
  <unicode hex="0660"/>
  <note>
uni0660
</note>
  <outline>
    <contour>
      <point x="100" y="429" type="line"/>
      <point x="100" y="175" type="line"/>
      <point x="312" y="175" type="line"/>
      <point x="312" y="429" type="line"/>
    </contour>
  </outline>
</glyph>
<glyph name="two-ar" format="2">
  <advance width="584"/>
  <unicode hex="0662"/>
  <note>
uni0662
</note>
  <outline>
    <contour>
      <point x="45" y="563" type="line"/>
      <point x="255" y="0" type="line"/>
      <point x="454" y="0" type="line"/>
      <point x="254" y="516" type="line"/>
      <point x="549" y="516" type="line"/>
      <point x="549" y="674" type="line"/>
      <point x="45" y="674" type="line"/>
    </contour>
  </outline>
</glyph>
<glyph name="three-ar" format="2">
  <advance width="682"/>
  <unicode hex="0663"/>
  <note>
uni0663
</note>
  <outline>
    <contour>
      <point x="32" y="674" type="line"/>
      <point x="302" y="0" type="line"/>
      <point x="503" y="0" type="line"/>
      <point x="312" y="443" type="line"/>
      <point x="339" y="425"/>
      <point x="357" y="422"/>
      <point x="375" y="422" type="curve" smooth="yes"/>
      <point x="397" y="422"/>
      <point x="421" y="432"/>
      <point x="434" y="454" type="curve"/>
      <point x="460" y="433"/>
      <point x="487" y="422"/>
      <point x="523" y="422" type="curve" smooth="yes"/>
      <point x="619" y="422"/>
      <point x="657" y="487"/>
      <point x="657" y="660" type="curve" smooth="yes"/>
      <point x="657" y="674" type="line"/>
      <point x="518" y="674" type="line"/>
      <point x="518" y="602"/>
      <point x="514" y="565"/>
      <point x="507" y="551" type="curve" smooth="yes"/>
      <point x="501" y="539"/>
      <point x="491" y="533"/>
      <point x="479" y="533" type="curve" smooth="yes"/>
      <point x="465" y="533"/>
      <point x="456" y="537"/>
      <point x="450" y="541" type="curve"/>
      <point x="451" y="557"/>
      <point x="451" y="597"/>
      <point x="451" y="674" type="curve"/>
      <point x="312" y="674" type="line"/>
      <point x="312" y="613"/>
      <point x="312" y="576"/>
      <point x="312" y="565" type="curve" smooth="yes"/>
      <point x="312" y="549"/>
      <point x="304" y="539"/>
      <point x="292" y="539" type="curve" smooth="yes"/>
      <point x="283" y="539"/>
      <point x="275" y="542"/>
      <point x="272" y="545" type="curve"/>
      <point x="222" y="674" type="line"/>
    </contour>
  </outline>
</glyph>
<glyph name="four-ar" format="2">
  <advance width="592.66667"/>
  <unicode hex="0664"/>
  <note>
uni0664
</note>
  <outline>
    <contour>
      <point x="379" y="-10" type="curve" smooth="yes"/>
      <point x="442" y="-10"/>
      <point x="507" y="-2"/>
      <point x="558" y="15" type="curve"/>
      <point x="558" y="169" type="line"/>
      <point x="515" y="157"/>
      <point x="465" y="145"/>
      <point x="403" y="145" type="curve" smooth="yes"/>
      <point x="317" y="145"/>
      <point x="259" y="160"/>
      <point x="259" y="179" type="curve" smooth="yes"/>
      <point x="259" y="202"/>
      <point x="296" y="229"/>
      <point x="323" y="247" type="curve" smooth="yes"/>
      <point x="368" y="277"/>
      <point x="420" y="303"/>
      <point x="496" y="338" type="curve"/>
      <point x="442" y="376"/>
      <point x="332" y="463"/>
      <point x="332" y="469" type="curve" smooth="yes"/>
      <point x="332" y="477"/>
      <point x="386" y="499"/>
      <point x="432" y="516" type="curve" smooth="yes"/>
      <point x="465" y="528"/>
      <point x="498" y="539"/>
      <point x="533" y="550" type="curve"/>
      <point x="489" y="703" type="line"/>
      <point x="379" y="668"/>
      <point x="258" y="611"/>
      <point x="190" y="555" type="curve" smooth="yes"/>
      <point x="156" y="527"/>
      <point x="138" y="505"/>
      <point x="138" y="490" type="curve" smooth="yes"/>
      <point x="138" y="469"/>
      <point x="174" y="435"/>
      <point x="239" y="377" type="curve" smooth="yes"/>
      <point x="276" y="344" type="line"/>
      <point x="177" y="290"/>
      <point x="85" y="239"/>
      <point x="85" y="143" type="curve" smooth="yes"/>
      <point x="85" y="88"/>
      <point x="142" y="41"/>
      <point x="218" y="14" type="curve" smooth="yes"/>
      <point x="269" y="-4"/>
      <point x="314" y="-10"/>
    </contour>
  </outline>
</glyph>
<glyph name="five-ar" format="2">
  <advance width="647"/>
  <unicode hex="0665"/>
  <note>
uni0665
</note>
  <outline>
    <contour>
      <point x="322" y="-10" type="curve" smooth="yes"/>
      <point x="449" y="-10"/>
      <point x="519" y="24"/>
      <point x="556" y="105" type="curve" smooth="yes"/>
      <point x="574" y="145"/>
      <point x="584" y="197"/>
      <point x="584" y="260" type="curve" smooth="yes"/>
      <point x="584" y="417"/>
      <point x="529" y="560"/>
      <point x="452" y="630" type="curve" smooth="yes"/>
      <point x="414" y="665"/>
      <point x="373" y="683"/>
      <point x="325" y="683" type="curve" smooth="yes"/>
      <point x="227" y="683"/>
      <point x="145" y="603"/>
      <point x="97" y="469" type="curve" smooth="yes"/>
      <point x="74" y="404"/>
      <point x="63" y="333"/>
      <point x="63" y="260" type="curve" smooth="yes"/>
      <point x="63" y="78"/>
      <point x="142" y="-10"/>
    </contour>
    <contour>
      <point x="319" y="140" type="curve" smooth="yes"/>
      <point x="272" y="140"/>
      <point x="243" y="181"/>
      <point x="243" y="264" type="curve" smooth="yes"/>
      <point x="243" y="362"/>
      <point x="257" y="447"/>
      <point x="280" y="497" type="curve" smooth="yes"/>
      <point x="291" y="522"/>
      <point x="303" y="534"/>
      <point x="318" y="534" type="curve" smooth="yes"/>
      <point x="334" y="534"/>
      <point x="349" y="527"/>
      <point x="359" y="501" type="curve" smooth="yes"/>
      <point x="382" y="440"/>
      <point x="394" y="363"/>
      <point x="394" y="268" type="curve" smooth="yes"/>
      <point x="394" y="182"/>
      <point x="366" y="140"/>
    </contour>
  </outline>
</glyph>
<glyph name="six-ar" format="2">
  <advance width="536"/>
  <unicode hex="0666"/>
  <note>
uni0666
</note>
  <outline>
    <contour>
      <point x="245" y="516" type="line"/>
      <point x="245" y="0" type="line"/>
      <point x="436" y="0" type="line"/>
      <point x="436" y="674" type="line"/>
      <point x="0" y="674" type="line"/>
      <point x="0" y="516" type="line"/>
    </contour>
  </outline>
</glyph>
<glyph name="seven-ar" format="2">
  <advance width="613"/>
  <unicode hex="0667"/>
  <note>
uni0667
</note>
  <outline>
    <contour>
      <point x="212" y="0" type="line"/>
      <point x="400" y="0" type="line"/>
      <point x="593" y="674" type="line"/>
      <point x="395" y="674" type="line"/>
      <point x="332" y="350" type="line" smooth="yes"/>
      <point x="321" y="294"/>
      <point x="310" y="219"/>
      <point x="309" y="199" type="curve"/>
      <point x="306" y="199" type="line"/>
      <point x="305" y="220"/>
      <point x="295" y="297"/>
      <point x="285" y="347" type="curve" smooth="yes"/>
      <point x="219" y="674" type="line"/>
      <point x="20" y="674" type="line"/>
    </contour>
  </outline>
</glyph>
<glyph name="eight-ar" format="2">
  <advance width="613"/>
  <unicode hex="0668"/>
  <note>
uni0668
</note>
  <outline>
    <contour>
      <point x="212" y="674" type="line"/>
      <point x="20" y="0" type="line"/>
      <point x="219" y="0" type="line"/>
      <point x="285" y="327" type="line" smooth="yes"/>
      <point x="295" y="377"/>
      <point x="305" y="454"/>
      <point x="306" y="475" type="curve"/>
      <point x="309" y="475" type="line"/>
      <point x="310" y="455"/>
      <point x="321" y="380"/>
      <point x="332" y="324" type="curve" smooth="yes"/>
      <point x="395" y="0" type="line"/>
      <point x="593" y="0" type="line"/>
      <point x="400" y="674" type="line"/>
    </contour>
  </outline>
</glyph>
<glyph name="nine-ar" format="2">
  <advance width="637"/>
  <unicode hex="0669"/>
  <note>
uni0669
</note>
  <outline>
    <contour>
      <point x="356" y="241" type="line"/>
      <point x="356" y="0" type="line"/>
      <point x="545" y="0" type="line"/>
      <point x="545" y="372" type="line" smooth="yes"/>
      <point x="545" y="572"/>
      <point x="457" y="684"/>
      <point x="287" y="684" type="curve" smooth="yes"/>
      <point x="129" y="684"/>
      <point x="30" y="606"/>
      <point x="30" y="468" type="curve" smooth="yes"/>
      <point x="30" y="313"/>
      <point x="114" y="241"/>
      <point x="296" y="241" type="curve" smooth="yes"/>
    </contour>
    <contour>
      <point x="357" y="380" type="curve"/>
      <point x="304" y="380" type="line" smooth="yes"/>
      <point x="252" y="380"/>
      <point x="221" y="411"/>
      <point x="221" y="464" type="curve" smooth="yes"/>
      <point x="221" y="511"/>
      <point x="245" y="539"/>
      <point x="282" y="539" type="curve" smooth="yes"/>
      <point x="320" y="539"/>
      <point x="357" y="502"/>
    </contour>
  </outline>
</glyph>
<glyph name="percent-ar" format="2">
  <advance width="604.66667"/>
  <unicode hex="066A"/>
  <note>
uni066A
</note>
  <outline>
    <contour>
      <point x="63" y="602" type="line"/>
      <point x="63" y="462" type="line"/>
      <point x="203" y="462" type="line"/>
      <point x="203" y="602" type="line"/>
    </contour>
    <contour>
      <point x="411" y="674" type="line"/>
      <point x="50" y="0" type="line"/>
      <point x="194" y="0" type="line"/>
      <point x="555" y="674" type="line"/>
    </contour>
    <contour>
      <point x="401" y="210" type="line"/>
      <point x="401" y="70" type="line"/>
      <point x="541" y="70" type="line"/>
      <point x="541" y="210" type="line"/>
    </contour>
  </outline>
</glyph>
<glyph name="decimalseparator-ar" format="2">
  <advance width="350"/>
  <unicode hex="066B"/>
  <note>
uni066B
</note>
  <outline>
    <contour>
      <point x="65" y="-129" type="curve"/>
      <point x="199" y="-129" type="line"/>
      <point x="238" y="-40"/>
      <point x="267" y="38"/>
      <point x="285" y="105" type="curve"/>
      <point x="278" y="116" type="line"/>
      <point x="114" y="116" type="line"/>
      <point x="100" y="23"/>
      <point x="89" y="-35"/>
    </contour>
  </outline>
</glyph>
<glyph name="thousandseparator-ar" format="2">
  <advance width="350"/>
  <unicode hex="066C"/>
  <note>
uni066C
</note>
  <outline>
    <contour>
      <point x="65" y="140" type="curve"/>
      <point x="199" y="140" type="line"/>
      <point x="238" y="228"/>
      <point x="267" y="306"/>
      <point x="285" y="374" type="curve"/>
      <point x="278" y="385" type="line"/>
      <point x="114" y="385" type="line"/>
      <point x="100" y="292"/>
      <point x="89" y="236"/>
    </contour>
  </outline>
</glyph>
<glyph name="asterisk-ar" format="2">
  <advance width="609"/>
  <unicode hex="066D"/>
  <note>
uni066D
</note>
  <outline>
    <contour>
      <point x="87" y="344" type="line"/>
      <point x="246" y="266" type="line"/>
      <point x="303" y="437" type="line"/>
      <point x="364" y="262" type="line"/>
      <point x="514" y="338" type="line"/>
      <point x="388" y="493" type="line"/>
      <point x="569" y="490" type="line"/>
      <point x="549" y="661" type="line"/>
      <point x="353" y="585" type="line"/>
      <point x="396" y="779" type="line"/>
      <point x="211" y="779" type="line"/>
      <point x="257" y="585" type="line"/>
      <point x="69" y="674" type="line"/>
      <point x="40" y="488" type="line"/>
      <point x="222" y="493" type="line"/>
    </contour>
  </outline>
</glyph>
<glyph name="behDotless-ar" format="2">
  <advance width="926"/>
  <unicode hex="066E"/>
  <note>
uni066E
</note>
  <anchor x="461" y="-78" name="bottom"/>
  <anchor x="464" y="0" name="ring"/>
  <anchor x="431" y="488" name="top"/>
  <outline>
    <contour>
      <point x="272" y="0" type="curve" smooth="yes"/>
      <point x="841" y="0" type="line"/>
      <point x="841" y="502" type="line"/>
      <point x="652" y="502" type="line"/>
      <point x="652" y="148" type="line"/>
      <point x="347" y="148" type="line" smooth="yes"/>
      <point x="286" y="148"/>
      <point x="252" y="179"/>
      <point x="252" y="238" type="curve" smooth="yes"/>
      <point x="252" y="279"/>
      <point x="258" y="321"/>
      <point x="268" y="361" type="curve"/>
      <point x="102" y="361" type="line"/>
      <point x="80" y="321"/>
      <point x="65" y="261"/>
      <point x="65" y="206" type="curve" smooth="yes"/>
      <point x="65" y="77"/>
      <point x="144" y="0"/>
    </contour>
  </outline>
</glyph>
<glyph name="qafDotless-ar" format="2">
  <advance width="1019"/>
  <unicode hex="066F"/>
  <note>
uni066F
</note>
  <anchor x="449" y="-312" name="bottom"/>
  <anchor x="694" y="586" name="top"/>
  <outline>
    <contour>
      <point x="349" y="-240" type="curve" smooth="yes"/>
      <point x="631" y="-240" type="line" smooth="yes"/>
      <point x="852" y="-240"/>
      <point x="940" y="-149"/>
      <point x="940" y="47" type="curve" smooth="yes"/>
      <point x="940" y="502" type="line"/>
      <point x="751" y="502" type="line" smooth="yes"/>
      <point x="548" y="502"/>
      <point x="411" y="422"/>
      <point x="411" y="260" type="curve" smooth="yes"/>
      <point x="411" y="118"/>
      <point x="530" y="0"/>
      <point x="706" y="0" type="curve" smooth="yes"/>
      <point x="751" y="0" type="line"/>
      <point x="751" y="-4" type="line" smooth="yes"/>
      <point x="751" y="-67"/>
      <point x="693" y="-92"/>
      <point x="559" y="-92" type="curve" smooth="yes"/>
      <point x="412" y="-92" type="line" smooth="yes"/>
      <point x="306" y="-92"/>
      <point x="253" y="-34"/>
      <point x="253" y="60" type="curve" smooth="yes"/>
      <point x="253" y="114"/>
      <point x="267" y="202"/>
      <point x="287" y="277" type="curve"/>
      <point x="123" y="277" type="line"/>
      <point x="88" y="221"/>
      <point x="65" y="136"/>
      <point x="65" y="66" type="curve" smooth="yes"/>
      <point x="65" y="-100"/>
      <point x="186" y="-240"/>
    </contour>
    <contour>
      <point x="751" y="148" type="line"/>
      <point x="734" y="148" type="line" smooth="yes"/>
      <point x="664" y="148"/>
      <point x="601" y="183"/>
      <point x="601" y="250" type="curve" smooth="yes"/>
      <point x="601" y="317"/>
      <point x="642" y="354"/>
      <point x="734" y="354" type="curve" smooth="yes"/>
      <point x="751" y="354" type="line"/>
    </contour>
  </outline>
</glyph>
<glyph name="alefabove-ar" format="2">
  <unicode hex="0670"/>
  <note>
uni0670
</note>
  <anchor x="0" y="801" name="_top"/>
  <anchor x="0" y="801" name="_top2"/>
  <anchor x="6" y="1005" name="top"/>
  <outline>
    <contour>
      <point x="-39" y="1005" type="line"/>
      <point x="-39" y="811" type="line"/>
      <point x="55" y="811" type="line"/>
      <point x="55" y="1005" type="line"/>
    </contour>
  </outline>
</glyph>
<glyph name="keheh-ar" format="2">
  <advance width="939.66667"/>
  <unicode hex="06A9"/>
  <note>
uni06A9
</note>
  <anchor x="451" y="-78" name="bottom"/>
  <anchor x="342" y="730" name="top"/>
  <outline>
    <contour>
      <point x="272" y="0" type="curve" smooth="yes"/>
      <point x="865" y="0" type="line"/>
      <point x="865" y="315" type="line" smooth="yes"/>
      <point x="865" y="478"/>
      <point x="769" y="553"/>
      <point x="569" y="553" type="curve" smooth="yes"/>
      <point x="564" y="553" type="line"/>
      <point x="609" y="609"/>
      <point x="708" y="661"/>
      <point x="818" y="688" type="curve"/>
      <point x="748" y="861" type="line"/>
      <point x="589" y="812"/>
      <point x="472" y="711"/>
      <point x="361" y="531" type="curve"/>
      <point x="361" y="405" type="line"/>
      <point x="531" y="405" type="line" smooth="yes"/>
      <point x="616" y="405"/>
      <point x="673" y="360"/>
      <point x="673" y="294" type="curve" smooth="yes"/>
      <point x="673" y="148" type="line"/>
      <point x="347" y="148" type="line" smooth="yes"/>
      <point x="293" y="148"/>
      <point x="257" y="185"/>
      <point x="257" y="246" type="curve" smooth="yes"/>
      <point x="257" y="284"/>
      <point x="262" y="329"/>
      <point x="272" y="381" type="curve"/>
      <point x="105" y="381" type="line"/>
      <point x="78" y="329"/>
      <point x="65" y="280"/>
      <point x="65" y="216" type="curve" smooth="yes"/>
      <point x="65" y="83"/>
      <point x="146" y="0"/>
    </contour>
  </outline>
</glyph>
<glyph name="kafswash-ar" format="2">
  <advance width="1169.66667"/>
  <unicode hex="06AA"/>
  <note>
uni06AA
</note>
  <anchor x="586" y="-78" name="bottom"/>
  <anchor x="459" y="734" name="top"/>
  <outline>
    <contour>
      <point x="427" y="0" type="curve" smooth="yes"/>
      <point x="1095" y="0" type="line"/>
      <point x="1095" y="151" type="line" smooth="yes"/>
      <point x="1095" y="309"/>
      <point x="998" y="389"/>
      <point x="799" y="389" type="curve" smooth="yes"/>
      <point x="436" y="389" type="line"/>
      <point x="480" y="445"/>
      <point x="581" y="500"/>
      <point x="690" y="524" type="curve"/>
      <point x="620" y="696" type="line"/>
      <point x="429" y="632"/>
      <point x="307" y="526"/>
      <point x="233" y="366" type="curve"/>
      <point x="233" y="241" type="line"/>
      <point x="761" y="241" type="line" smooth="yes"/>
      <point x="859" y="241"/>
      <point x="903" y="199"/>
      <point x="903" y="161" type="curve" smooth="yes"/>
      <point x="903" y="148" type="line"/>
      <point x="393" y="148" type="line" smooth="yes"/>
      <point x="307" y="148"/>
      <point x="160" y="161"/>
      <point x="48" y="181" type="curve"/>
      <point x="20" y="65" type="line"/>
      <point x="127" y="19"/>
      <point x="274" y="0"/>
    </contour>
  </outline>
</glyph>
<glyph name="kafRing-ar" format="2">
  <advance width="939.66667"/>
  <unicode hex="06AB"/>
  <note>
uni06AB
</note>
  <anchor x="391" y="-78" name="bottom"/>
  <anchor x="342" y="732" name="top"/>
  <outline>
    <contour>
      <point x="701" y="487" type="curve" smooth="yes"/>
      <point x="761" y="487"/>
      <point x="810" y="530"/>
      <point x="810" y="596" type="curve" smooth="yes"/>
      <point x="810" y="636"/>
      <point x="790" y="668"/>
      <point x="760" y="685" type="curve"/>
      <point x="793" y="700"/>
      <point x="814" y="707"/>
      <point x="827" y="711" type="curve"/>
      <point x="748" y="866" type="line"/>
      <point x="588" y="815"/>
      <point x="405" y="621"/>
      <point x="361" y="446" type="curve"/>
      <point x="361" y="320" type="line"/>
      <point x="531" y="320" type="line" smooth="yes"/>
      <point x="616" y="320"/>
      <point x="673" y="277"/>
      <point x="673" y="209" type="curve" smooth="yes"/>
      <point x="673" y="148" type="line"/>
      <point x="347" y="148" type="line" smooth="yes"/>
      <point x="293" y="148"/>
      <point x="257" y="185"/>
      <point x="257" y="246" type="curve" smooth="yes"/>
      <point x="257" y="284"/>
      <point x="262" y="329"/>
      <point x="272" y="381" type="curve"/>
      <point x="105" y="381" type="line"/>
      <point x="78" y="329"/>
      <point x="65" y="280"/>
      <point x="65" y="216" type="curve" smooth="yes"/>
      <point x="65" y="83"/>
      <point x="146" y="0"/>
      <point x="272" y="0" type="curve" smooth="yes"/>
      <point x="865" y="0" type="line"/>
      <point x="865" y="230" type="line" smooth="yes"/>
      <point x="865" y="388"/>
      <point x="766" y="468"/>
      <point x="569" y="468" type="curve" smooth="yes"/>
      <point x="536" y="468" type="line"/>
      <point x="543" y="488"/>
      <point x="571" y="532"/>
      <point x="599" y="555" type="curve"/>
      <point x="613" y="514"/>
      <point x="654" y="487"/>
    </contour>
    <contour>
      <point x="698" y="559" type="curve" smooth="yes"/>
      <point x="677" y="559"/>
      <point x="661" y="572"/>
      <point x="661" y="595" type="curve" smooth="yes"/>
      <point x="661" y="616"/>
      <point x="675" y="632"/>
      <point x="698" y="632" type="curve" smooth="yes"/>
      <point x="719" y="632"/>
      <point x="735" y="616"/>
      <point x="735" y="595" type="curve" smooth="yes"/>
      <point x="735" y="572"/>
      <point x="719" y="559"/>
    </contour>
  </outline>
</glyph>
<glyph name="noonghunna-ar" format="2">
  <advance width="820"/>
  <unicode hex="06BA"/>
  <note>
uni06BA
</note>
  <anchor x="372" y="-302" name="bottom"/>
  <anchor x="293" y="537" name="top"/>
  <outline>
    <contour>
      <point x="384" y="-245" type="curve" smooth="yes"/>
      <point x="410" y="-245" type="line" smooth="yes"/>
      <point x="623" y="-245"/>
      <point x="735" y="-145"/>
      <point x="735" y="56" type="curve" smooth="yes"/>
      <point x="735" y="502" type="line"/>
      <point x="546" y="502" type="line"/>
      <point x="546" y="67" type="line" smooth="yes"/>
      <point x="546" y="-31"/>
      <point x="501" y="-92"/>
      <point x="406" y="-92" type="curve" smooth="yes"/>
      <point x="388" y="-92" type="line" smooth="yes"/>
      <point x="311" y="-92"/>
      <point x="253" y="-30"/>
      <point x="253" y="60" type="curve" smooth="yes"/>
      <point x="253" y="116"/>
      <point x="267" y="207"/>
      <point x="287" y="287" type="curve"/>
      <point x="123" y="287" type="line"/>
      <point x="88" y="227"/>
      <point x="65" y="139"/>
      <point x="65" y="66" type="curve" smooth="yes"/>
      <point x="65" y="-60"/>
      <point x="121" y="-166"/>
      <point x="227" y="-217" type="curve" smooth="yes"/>
      <point x="272" y="-239"/>
      <point x="326" y="-245"/>
    </contour>
  </outline>
</glyph>
<glyph name="hehDoachashmee-ar" format="2">
  <advance width="1001"/>
  <unicode hex="06BE"/>
  <note>
uni06BE
</note>
  <anchor x="342" y="-78" name="bottom"/>
  <anchor x="390" y="826" name="top"/>
  <outline>
    <contour>
      <point x="65" y="0" type="line"/>
      <point x="933" y="0" type="line"/>
      <point x="933" y="342" type="line" smooth="yes"/>
      <point x="933" y="605"/>
      <point x="785" y="751"/>
      <point x="507" y="751" type="curve" smooth="yes"/>
      <point x="398" y="751"/>
      <point x="266" y="727"/>
      <point x="181" y="698" type="curve"/>
      <point x="223" y="559" type="line"/>
      <point x="304" y="579"/>
      <point x="396" y="590"/>
      <point x="457" y="590" type="curve" smooth="yes"/>
      <point x="639" y="590"/>
      <point x="744" y="499"/>
      <point x="744" y="326" type="curve" smooth="yes"/>
      <point x="744" y="148" type="line"/>
      <point x="597" y="148" type="line"/>
      <point x="597" y="297" type="line" smooth="yes"/>
      <point x="597" y="429"/>
      <point x="501" y="517"/>
      <point x="356" y="517" type="curve" smooth="yes"/>
      <point x="263" y="517"/>
      <point x="181" y="471"/>
      <point x="136" y="397" type="curve" smooth="yes"/>
      <point x="113" y="360"/>
      <point x="102" y="318"/>
      <point x="102" y="268" type="curve" smooth="yes"/>
      <point x="102" y="219"/>
      <point x="117" y="171"/>
      <point x="135" y="148" type="curve"/>
      <point x="65" y="148" type="line"/>
    </contour>
    <contour>
      <point x="399" y="148" type="line" smooth="yes"/>
      <point x="324" y="148"/>
      <point x="293" y="188"/>
      <point x="293" y="278" type="curve" smooth="yes"/>
      <point x="293" y="326"/>
      <point x="322" y="369"/>
      <point x="356" y="369" type="curve" smooth="yes"/>
      <point x="394" y="369"/>
      <point x="408" y="348"/>
      <point x="408" y="297" type="curve" smooth="yes"/>
      <point x="408" y="148" type="line"/>
    </contour>
  </outline>
</glyph>
<glyph name="wawring-ar" format="2">
  <advance width="673"/>
  <unicode hex="06C4"/>
  <note>
uni06C4
</note>
  <anchor x="358" y="-419" name="bottom"/>
  <anchor x="369" y="599" name="top"/>
  <outline>
    <contour>
      <point x="233" y="-294" type="curve"/>
      <point x="329" y="-401" type="line"/>
      <point x="499" y="-312"/>
      <point x="588" y="-157"/>
      <point x="588" y="11" type="curve" smooth="yes"/>
      <point x="588" y="502" type="line"/>
      <point x="422" y="502" type="line" smooth="yes"/>
      <point x="222" y="502"/>
      <point x="61" y="415"/>
      <point x="61" y="236" type="curve" smooth="yes"/>
      <point x="61" y="94"/>
      <point x="150" y="0"/>
      <point x="341" y="0" type="curve" smooth="yes"/>
      <point x="398" y="0" type="line"/>
      <point x="398" y="-48" type="line"/>
      <point x="398" y="-50"/>
      <point x="398" y="-57"/>
      <point x="398" y="-62" type="curve"/>
      <point x="378" y="-41"/>
      <point x="352" y="-35"/>
      <point x="326" y="-35" type="curve" smooth="yes"/>
      <point x="258" y="-35"/>
      <point x="211" y="-81"/>
      <point x="211" y="-147" type="curve" smooth="yes"/>
      <point x="211" y="-204"/>
      <point x="242" y="-242"/>
      <point x="294" y="-251" type="curve"/>
      <point x="277" y="-265"/>
      <point x="255" y="-280"/>
    </contour>
    <contour>
      <point x="399" y="148" type="line"/>
      <point x="352" y="148" type="line" smooth="yes"/>
      <point x="289" y="148"/>
      <point x="251" y="184"/>
      <point x="251" y="242" type="curve" smooth="yes"/>
      <point x="251" y="314"/>
      <point x="301" y="354"/>
      <point x="372" y="354" type="curve" smooth="yes"/>
      <point x="399" y="354" type="line"/>
    </contour>
    <contour>
      <point x="326" y="-190" type="curve" smooth="yes"/>
      <point x="297" y="-190"/>
      <point x="283" y="-173"/>
      <point x="283" y="-147" type="curve" smooth="yes"/>
      <point x="283" y="-118"/>
      <point x="300" y="-104"/>
      <point x="326" y="-104" type="curve" smooth="yes"/>
      <point x="352" y="-104"/>
      <point x="370" y="-122"/>
      <point x="370" y="-147" type="curve" smooth="yes"/>
      <point x="370" y="-174"/>
      <point x="352" y="-190"/>
    </contour>
  </outline>
</glyph>
<glyph name="kirghizoe-ar" format="2">
  <advance width="670"/>
  <unicode hex="06C5"/>
  <note>
uni06C5
</note>
  <anchor x="364" y="-407" name="bottom"/>
  <anchor x="366" y="599" name="top"/>
  <outline>
    <contour>
      <point x="138" y="-99" type="curve"/>
      <point x="182" y="-211" type="line"/>
      <point x="200" y="-205"/>
      <point x="223" y="-202"/>
      <point x="242" y="-202" type="curve" smooth="yes"/>
      <point x="263" y="-202"/>
      <point x="288" y="-206"/>
      <point x="299" y="-212" type="curve" smooth="yes"/>
      <point x="316" y="-221" type="line"/>
      <point x="306" y="-230"/>
      <point x="288" y="-245"/>
      <point x="258" y="-269" type="curve"/>
      <point x="357" y="-380" type="line"/>
      <point x="506" y="-279"/>
      <point x="585" y="-158"/>
      <point x="585" y="-17" type="curve" smooth="yes"/>
      <point x="585" y="502" type="line"/>
      <point x="409" y="502" type="line" smooth="yes"/>
      <point x="220" y="502"/>
      <point x="58" y="406"/>
      <point x="58" y="232" type="curve" smooth="yes"/>
      <point x="58" y="97"/>
      <point x="160" y="0"/>
      <point x="343" y="0" type="curve" smooth="yes"/>
      <point x="398" y="0" type="line"/>
      <point x="398" y="-29" type="line" smooth="yes"/>
      <point x="398" y="-70"/>
      <point x="395" y="-87"/>
      <point x="390" y="-102" type="curve"/>
      <point x="383" y="-99"/>
      <point x="376" y="-96"/>
      <point x="368" y="-93" type="curve" smooth="yes"/>
      <point x="309" y="-70"/>
      <point x="278" y="-63"/>
      <point x="245" y="-63" type="curve" smooth="yes"/>
      <point x="215" y="-63"/>
      <point x="164" y="-81"/>
    </contour>
    <contour>
      <point x="396" y="148" type="line"/>
      <point x="357" y="148" type="line" smooth="yes"/>
      <point x="282" y="148"/>
      <point x="248" y="182"/>
      <point x="248" y="247" type="curve" smooth="yes"/>
      <point x="248" y="314"/>
      <point x="298" y="354"/>
      <point x="372" y="354" type="curve" smooth="yes"/>
      <point x="396" y="354" type="line"/>
    </contour>
  </outline>
</glyph>
<glyph name="yehTail-ar" format="2">
  <advance width="1088"/>
  <unicode hex="06CD"/>
  <note>
uni06CD
</note>
  <anchor x="597" y="-322" name="bottom"/>
  <anchor x="328" y="424" name="top"/>
  <outline>
    <contour>
      <point x="449" y="206" type="curve"/>
      <point x="374" y="342" type="line"/>
      <point x="13" y="186" type="line"/>
      <point x="56" y="81" type="line"/>
      <point x="271" y="147" type="line"/>
      <point x="248" y="88"/>
      <point x="241" y="53"/>
      <point x="241" y="-8" type="curve" smooth="yes"/>
      <point x="241" y="-138"/>
      <point x="319" y="-240"/>
      <point x="442" y="-240" type="curve" smooth="yes"/>
      <point x="692" y="-240" type="line" smooth="yes"/>
      <point x="902" y="-240"/>
      <point x="1015" y="-184"/>
      <point x="1015" y="-54" type="curve" smooth="yes"/>
      <point x="1015" y="-14"/>
      <point x="995" y="40"/>
      <point x="935" y="85" type="curve" smooth="yes"/>
      <point x="902" y="110"/>
      <point x="883" y="124"/>
      <point x="851" y="144" type="curve" smooth="yes"/>
      <point x="808" y="171"/>
      <point x="755" y="205"/>
      <point x="755" y="236" type="curve" smooth="yes"/>
      <point x="755" y="282"/>
      <point x="845" y="354"/>
      <point x="895" y="354" type="curve" smooth="yes"/>
      <point x="922" y="354"/>
      <point x="947" y="338"/>
      <point x="968" y="321" type="curve"/>
      <point x="1047" y="464" type="line"/>
      <point x="998" y="499"/>
      <point x="960" y="521"/>
      <point x="910" y="521" type="curve" smooth="yes"/>
      <point x="824" y="521"/>
      <point x="706" y="452"/>
      <point x="628" y="344" type="curve" smooth="yes"/>
      <point x="589" y="290"/>
      <point x="572" y="238"/>
      <point x="572" y="199" type="curve" smooth="yes"/>
      <point x="572" y="147"/>
      <point x="608" y="116"/>
      <point x="710" y="46" type="curve" smooth="yes"/>
      <point x="736" y="28"/>
      <point x="766" y="7"/>
      <point x="797" y="-15" type="curve" smooth="yes"/>
      <point x="812" y="-25"/>
      <point x="829" y="-39"/>
      <point x="829" y="-56" type="curve" smooth="yes"/>
      <point x="829" y="-82"/>
      <point x="789" y="-92"/>
      <point x="723" y="-92" type="curve" smooth="yes"/>
      <point x="532" y="-92" type="line" smooth="yes"/>
      <point x="449" y="-92"/>
      <point x="419" y="-40"/>
      <point x="419" y="23" type="curve" smooth="yes"/>
      <point x="419" y="67"/>
      <point x="432" y="141"/>
    </contour>
  </outline>
</glyph>
<glyph name="yehbarree-ar" format="2">
  <advance width="577"/>
  <unicode hex="06D2"/>
  <note>
uni06D2
</note>
  <anchor x="391" y="-347" name="bottom"/>
  <anchor x="335" y="391" name="top"/>
  <outline>
    <contour>
      <point x="296" y="-265" type="curve" smooth="yes"/>
      <point x="762" y="-265" type="line"/>
      <point x="762" y="-117" type="line"/>
      <point x="294" y="-117" type="line" smooth="yes"/>
      <point x="256" y="-117"/>
      <point x="234" y="-103"/>
      <point x="234" y="-76" type="curve" smooth="yes"/>
      <point x="234" y="-55"/>
      <point x="248" y="-37"/>
      <point x="290" y="-18" type="curve" smooth="yes"/>
      <point x="311" y="-8"/>
      <point x="349" y="9"/>
      <point x="405" y="29" type="curve" smooth="yes"/>
      <point x="494" y="60"/>
      <point x="545" y="99"/>
      <point x="569" y="159" type="curve" smooth="yes"/>
      <point x="581" y="190"/>
      <point x="587" y="228"/>
      <point x="587" y="274" type="curve" smooth="yes"/>
      <point x="587" y="315" type="line"/>
      <point x="398" y="315" type="line"/>
      <point x="398" y="279" type="line" smooth="yes"/>
      <point x="398" y="225"/>
      <point x="385" y="197"/>
      <point x="348" y="171" type="curve" smooth="yes"/>
      <point x="330" y="159"/>
      <point x="296" y="143"/>
      <point x="246" y="122" type="curve" smooth="yes"/>
      <point x="115" y="67"/>
      <point x="87" y="38"/>
      <point x="63" y="-3" type="curve" smooth="yes"/>
      <point x="50" y="-25"/>
      <point x="45" y="-53"/>
      <point x="45" y="-84" type="curve" smooth="yes"/>
      <point x="45" y="-198"/>
      <point x="135" y="-265"/>
    </contour>
  </outline>
</glyph>
<glyph name="sadLamAlefMaksuraabove-ar" format="2">
  <unicode hex="06D6"/>
  <note>
uni06D6
</note>
  <anchor x="0" y="782" name="_top"/>
  <anchor x="0" y="782" name="_top2"/>
  <anchor x="2" y="1269" name="top"/>
  <outline>
    <contour>
      <point x="-146" y="938" type="curve" smooth="yes"/>
      <point x="343" y="938" type="line"/>
      <point x="343" y="1014" type="line" smooth="yes"/>
      <point x="343" y="1087"/>
      <point x="309" y="1122"/>
      <point x="239" y="1122" type="curve" smooth="yes"/>
      <point x="188" y="1122"/>
      <point x="152" y="1096"/>
      <point x="132" y="1042" type="curve"/>
      <point x="132" y="1101" type="line"/>
      <point x="55" y="1101" type="line"/>
      <point x="55" y="998" type="line"/>
      <point x="17" y="998" type="line"/>
      <point x="17" y="1233" type="line"/>
      <point x="-59" y="1233" type="line"/>
      <point x="-59" y="998" type="line"/>
      <point x="-152" y="998" type="line" smooth="yes"/>
      <point x="-211" y="998"/>
      <point x="-265" y="959"/>
      <point x="-265" y="913" type="curve" smooth="yes"/>
      <point x="-265" y="874"/>
      <point x="-234" y="842"/>
      <point x="-188" y="842" type="curve" smooth="yes"/>
      <point x="110" y="842" type="line"/>
      <point x="110" y="902" type="line"/>
      <point x="-163" y="902" type="line" smooth="yes"/>
      <point x="-181" y="902"/>
      <point x="-191" y="906"/>
      <point x="-191" y="916" type="curve" smooth="yes"/>
      <point x="-191" y="926"/>
      <point x="-175" y="938"/>
    </contour>
    <contour>
      <point x="267" y="998" type="line"/>
      <point x="132" y="998" type="line"/>
      <point x="132" y="990" type="line"/>
      <point x="150" y="1033"/>
      <point x="182" y="1064"/>
      <point x="219" y="1064" type="curve" smooth="yes"/>
      <point x="251" y="1064"/>
      <point x="267" y="1046"/>
      <point x="267" y="1016" type="curve" smooth="yes"/>
    </contour>
  </outline>
</glyph>
<glyph name="qafLamAlefMaksuraabove-ar" format="2">
  <unicode hex="06D7"/>
  <note>
uni06D7
</note>
  <anchor x="-20" y="789" name="_top"/>
  <anchor x="-20" y="788" name="_top2"/>
  <anchor x="-28" y="1269" name="top"/>
  <outline>
    <contour>
      <point x="67" y="1007" type="curve"/>
      <point x="7" y="1007" type="line"/>
      <point x="7" y="1242" type="line"/>
      <point x="-70" y="1242" type="line"/>
      <point x="-70" y="1007" type="line"/>
      <point x="-163" y="1007" type="line" smooth="yes"/>
      <point x="-222" y="1007"/>
      <point x="-276" y="968"/>
      <point x="-276" y="922" type="curve" smooth="yes"/>
      <point x="-276" y="883"/>
      <point x="-245" y="851"/>
      <point x="-199" y="851" type="curve" smooth="yes"/>
      <point x="100" y="851" type="line"/>
      <point x="100" y="911" type="line"/>
      <point x="-174" y="911" type="line" smooth="yes"/>
      <point x="-192" y="911"/>
      <point x="-202" y="915"/>
      <point x="-202" y="925" type="curve" smooth="yes"/>
      <point x="-202" y="935"/>
      <point x="-186" y="947"/>
      <point x="-157" y="947" type="curve" smooth="yes"/>
      <point x="254" y="947" type="line"/>
      <point x="254" y="1148" type="line"/>
      <point x="171" y="1148" type="line" smooth="yes"/>
      <point x="92" y="1148"/>
      <point x="49" y="1112"/>
      <point x="49" y="1054" type="curve" smooth="yes"/>
      <point x="49" y="1037"/>
      <point x="54" y="1024"/>
    </contour>
    <contour>
      <point x="177" y="1007" type="line"/>
      <point x="165" y="1007" type="line" smooth="yes"/>
      <point x="148" y="1007"/>
      <point x="127" y="1023"/>
      <point x="127" y="1049" type="curve" smooth="yes"/>
      <point x="127" y="1074"/>
      <point x="143" y="1089"/>
      <point x="172" y="1089" type="curve" smooth="yes"/>
      <point x="177" y="1089" type="line"/>
    </contour>
    <contour>
      <point x="128" y="1181" type="curve" smooth="yes"/>
      <point x="142" y="1181"/>
      <point x="156" y="1192"/>
      <point x="156" y="1213" type="curve" smooth="yes"/>
      <point x="156" y="1235"/>
      <point x="142" y="1244"/>
      <point x="128" y="1244" type="curve" smooth="yes"/>
      <point x="113" y="1244"/>
      <point x="98" y="1236"/>
      <point x="98" y="1213" type="curve" smooth="yes"/>
      <point x="98" y="1191"/>
      <point x="113" y="1181"/>
    </contour>
    <contour>
      <point x="215" y="1181" type="curve" smooth="yes"/>
      <point x="230" y="1181"/>
      <point x="244" y="1191"/>
      <point x="244" y="1213" type="curve" smooth="yes"/>
      <point x="244" y="1234"/>
      <point x="234" y="1244"/>
      <point x="215" y="1244" type="curve" smooth="yes"/>
      <point x="195" y="1244"/>
      <point x="185" y="1234"/>
      <point x="185" y="1213" type="curve" smooth="yes"/>
      <point x="185" y="1191"/>
      <point x="201" y="1181"/>
    </contour>
  </outline>
</glyph>
<glyph name="meemabove-ar" format="2">
  <unicode hex="06D8"/>
  <note>
uni06D8
</note>
  <anchor x="0" y="984" name="_top"/>
  <anchor x="0" y="979" name="_top2"/>
  <anchor x="1" y="1267" name="top"/>
  <outline>
    <contour>
      <point x="-123" y="1035" type="curve" smooth="yes"/>
      <point x="3" y="1035" type="line" smooth="yes"/>
      <point x="71" y="1035"/>
      <point x="124" y="1077"/>
      <point x="124" y="1140" type="curve" smooth="yes"/>
      <point x="124" y="1198"/>
      <point x="80" y="1238"/>
      <point x="19" y="1238" type="curve" smooth="yes"/>
      <point x="-5" y="1238"/>
      <point x="-33" y="1232"/>
      <point x="-65" y="1219" type="curve"/>
      <point x="-79" y="1199"/>
      <point x="-89" y="1160"/>
      <point x="-89" y="1142" type="curve" smooth="yes"/>
      <point x="-89" y="1124"/>
      <point x="-86" y="1108"/>
      <point x="-81" y="1094" type="curve"/>
      <point x="-123" y="1094" type="line" smooth="yes"/>
      <point x="-124" y="1094"/>
      <point x="-125" y="1093"/>
      <point x="-125" y="1092" type="curve" smooth="yes"/>
      <point x="-125" y="1037" type="line" smooth="yes"/>
      <point x="-125" y="1036"/>
      <point x="-124" y="1035"/>
    </contour>
    <contour>
      <point x="-21" y="1122" type="curve" smooth="yes"/>
      <point x="-21" y="1138"/>
      <point x="-19" y="1154"/>
      <point x="-14" y="1171" type="curve"/>
      <point x="-4" y="1176"/>
      <point x="6" y="1178"/>
      <point x="16" y="1178" type="curve" smooth="yes"/>
      <point x="35" y="1178"/>
      <point x="48" y="1169"/>
      <point x="48" y="1145" type="curve" smooth="yes"/>
      <point x="48" y="1114"/>
      <point x="28" y="1094"/>
      <point x="-9" y="1094" type="curve" smooth="yes"/>
      <point x="-14" y="1094" type="line"/>
      <point x="-19" y="1104"/>
      <point x="-21" y="1113"/>
    </contour>
  </outline>
</glyph>
<glyph name="lamAlefabove-ar" format="2">
  <unicode hex="06D9"/>
  <note>
uni06D9
</note>
  <anchor x="0" y="907" name="_top"/>
  <anchor x="0" y="910" name="_top2"/>
  <anchor x="2" y="1269" name="top"/>
  <outline>
    <contour>
      <point x="-121" y="1023" type="line"/>
      <point x="-121" y="964" type="line"/>
      <point x="28" y="964" type="line" smooth="yes"/>
      <point x="88" y="964"/>
      <point x="121" y="1003"/>
      <point x="121" y="1065" type="curve" smooth="yes"/>
      <point x="121" y="1265" type="line"/>
      <point x="46" y="1265" type="line"/>
      <point x="46" y="1069" type="line" smooth="yes"/>
      <point x="46" y="1043"/>
      <point x="41" y="1023"/>
      <point x="15" y="1023" type="curve" smooth="yes"/>
      <point x="12" y="1023" type="line"/>
      <point x="-33" y="1214" type="line"/>
      <point x="-113" y="1214" type="line"/>
      <point x="-60" y="1023" type="line"/>
    </contour>
  </outline>
</glyph>
<glyph name="jeemabove-ar" format="2">
  <unicode hex="06DA"/>
  <note>
uni06DA
</note>
  <anchor x="0" y="830" name="_top"/>
  <anchor x="0" y="827" name="_top2"/>
  <anchor x="2" y="1269" name="top"/>
  <outline>
    <contour>
      <point x="109" y="1040" type="curve"/>
      <point x="145" y="1087" type="line"/>
      <point x="119" y="1107"/>
      <point x="111" y="1117"/>
      <point x="102" y="1174" type="curve" smooth="yes"/>
      <point x="94" y="1224"/>
      <point x="62" y="1248"/>
      <point x="8" y="1248" type="curve" smooth="yes"/>
      <point x="-33" y="1248"/>
      <point x="-63" y="1241"/>
      <point x="-92" y="1225" type="curve"/>
      <point x="-65" y="1171" type="line"/>
      <point x="-45" y="1183"/>
      <point x="-27" y="1189"/>
      <point x="-13" y="1189" type="curve" smooth="yes"/>
      <point x="11" y="1189"/>
      <point x="28" y="1177"/>
      <point x="37" y="1152" type="curve" smooth="yes"/>
      <point x="48" y="1123" type="line"/>
      <point x="-56" y="1094"/>
      <point x="-94" y="1055"/>
      <point x="-94" y="990" type="curve" smooth="yes"/>
      <point x="-94" y="938"/>
      <point x="-50" y="886"/>
      <point x="14" y="886" type="curve" smooth="yes"/>
      <point x="36" y="886"/>
      <point x="59" y="891"/>
      <point x="84" y="899" type="curve"/>
      <point x="74" y="953" type="line"/>
      <point x="56" y="949"/>
      <point x="48" y="948"/>
      <point x="34" y="948" type="curve" smooth="yes"/>
      <point x="-3" y="948"/>
      <point x="-22" y="973"/>
      <point x="-22" y="1002" type="curve" smooth="yes"/>
      <point x="-22" y="1046"/>
      <point x="8" y="1055"/>
      <point x="75" y="1072" type="curve"/>
      <point x="87" y="1057"/>
      <point x="98" y="1047"/>
    </contour>
    <contour>
      <point x="39" y="974" type="curve" smooth="yes"/>
      <point x="56" y="974"/>
      <point x="69" y="985"/>
      <point x="69" y="1007" type="curve" smooth="yes"/>
      <point x="69" y="1028"/>
      <point x="56" y="1039"/>
      <point x="39" y="1039" type="curve" smooth="yes"/>
      <point x="27" y="1039"/>
      <point x="11" y="1029"/>
      <point x="11" y="1007" type="curve" smooth="yes"/>
      <point x="11" y="984"/>
      <point x="27" y="974"/>
    </contour>
  </outline>
</glyph>
<glyph name="seenabove-ar" format="2">
  <unicode hex="06DC"/>
  <note>
uni06DC
</note>
  <anchor x="39" y="488" name="_top"/>
  <anchor x="39" y="488" name="_top2"/>
  <outline>
    <contour>
      <point x="129" y="581" type="curve" smooth="yes"/>
      <point x="230" y="581" type="line"/>
      <point x="230" y="782" type="line"/>
      <point x="153" y="782" type="line"/>
      <point x="153" y="640" type="line"/>
      <point x="127" y="640" type="line" smooth="yes"/>
      <point x="109" y="640"/>
      <point x="102" y="643"/>
      <point x="87" y="658" type="curve"/>
      <point x="89" y="665"/>
      <point x="90" y="672"/>
      <point x="90" y="681" type="curve"/>
      <point x="90" y="751" type="line"/>
      <point x="13" y="751" type="line"/>
      <point x="13" y="687" type="line" smooth="yes"/>
      <point x="13" y="656"/>
      <point x="7" y="640"/>
      <point x="-24" y="640" type="curve" smooth="yes"/>
      <point x="-51" y="640" type="line"/>
      <point x="-51" y="751" type="line"/>
      <point x="-128" y="751" type="line"/>
      <point x="-128" y="608" type="line" smooth="yes"/>
      <point x="-128" y="566"/>
      <point x="-148" y="544"/>
      <point x="-184" y="544" type="curve" smooth="yes"/>
      <point x="-191" y="544" type="line" smooth="yes"/>
      <point x="-220" y="544"/>
      <point x="-245" y="567"/>
      <point x="-245" y="608" type="curve" smooth="yes"/>
      <point x="-245" y="632"/>
      <point x="-240" y="655"/>
      <point x="-232" y="689" type="curve"/>
      <point x="-296" y="689" type="line"/>
      <point x="-313" y="659"/>
      <point x="-321" y="630"/>
      <point x="-321" y="603" type="curve" smooth="yes"/>
      <point x="-321" y="534"/>
      <point x="-274" y="485"/>
      <point x="-192" y="485" type="curve" smooth="yes"/>
      <point x="-182" y="485" type="line" smooth="yes"/>
      <point x="-104" y="485"/>
      <point x="-61" y="517"/>
      <point x="-53" y="581" type="curve"/>
      <point x="-4" y="581" type="line" smooth="yes"/>
      <point x="28" y="581"/>
      <point x="52" y="591"/>
      <point x="69" y="612" type="curve"/>
      <point x="86" y="591"/>
      <point x="102" y="581"/>
    </contour>
  </outline>
</glyph>
<glyph name="sukunround-ar" format="2">
  <unicode hex="06DF"/>
  <note>
uni06DF
</note>
  <anchor x="0" y="488" name="_top"/>
  <anchor x="0" y="488" name="_top2"/>
  <anchor x="0" y="662" name="top"/>
  <outline>
    <contour>
      <point x="0" y="499" type="curve" smooth="yes"/>
      <point x="47" y="499"/>
      <point x="76" y="531"/>
      <point x="76" y="580" type="curve" smooth="yes"/>
      <point x="76" y="632"/>
      <point x="47" y="662"/>
      <point x="0" y="662" type="curve" smooth="yes"/>
      <point x="-48" y="662"/>
      <point x="-76" y="632"/>
      <point x="-76" y="580" type="curve" smooth="yes"/>
      <point x="-76" y="528"/>
      <point x="-48" y="499"/>
    </contour>
  </outline>
</glyph>
<glyph name="sukunoval-ar" format="2">
  <unicode hex="06E0"/>
  <note>
uni06E0
</note>
  <anchor x="150" y="930" name="_top"/>
  <anchor x="153" y="1250" name="top"/>
  <outline>
    <contour>
      <point x="149" y="968" type="curve" smooth="yes"/>
      <point x="215" y="968"/>
      <point x="263" y="1029"/>
      <point x="263" y="1104" type="curve" smooth="yes"/>
      <point x="263" y="1180"/>
      <point x="217" y="1250"/>
      <point x="153" y="1250" type="curve" smooth="yes"/>
      <point x="85" y="1250"/>
      <point x="37" y="1180"/>
      <point x="37" y="1099" type="curve" smooth="yes"/>
      <point x="37" y="1029"/>
      <point x="75" y="968"/>
    </contour>
    <contour>
      <point x="149" y="1052" type="curve" smooth="yes"/>
      <point x="129" y="1052"/>
      <point x="116" y="1074"/>
      <point x="116" y="1107" type="curve" smooth="yes"/>
      <point x="116" y="1135"/>
      <point x="128" y="1164"/>
      <point x="150" y="1164" type="curve" smooth="yes"/>
      <point x="166" y="1164"/>
      <point x="184" y="1139"/>
      <point x="184" y="1104" type="curve" smooth="yes"/>
      <point x="184" y="1072"/>
      <point x="169" y="1052"/>
    </contour>
  </outline>
</glyph>
<glyph name="hahabove-ar" format="2">
  <unicode hex="06E1"/>
  <note>
uni06E1
</note>
  <anchor x="0" y="459" name="_top"/>
  <anchor x="0" y="459" name="_top2"/>
  <anchor x="-1" y="710" name="top"/>
  <outline>
    <contour>
      <point x="-116" y="485" type="curve" smooth="yes"/>
      <point x="115" y="485" type="line"/>
      <point x="115" y="544" type="line"/>
      <point x="104" y="557"/>
      <point x="96" y="581"/>
      <point x="89" y="617" type="curve" smooth="yes"/>
      <point x="79" y="668"/>
      <point x="49" y="690"/>
      <point x="-11" y="690" type="curve" smooth="yes"/>
      <point x="-47" y="690"/>
      <point x="-78" y="683"/>
      <point x="-102" y="671" type="curve"/>
      <point x="-81" y="616" type="line"/>
      <point x="-64" y="626"/>
      <point x="-47" y="630"/>
      <point x="-30" y="630" type="curve" smooth="yes"/>
      <point x="-4" y="630"/>
      <point x="8" y="622"/>
      <point x="16" y="592" type="curve" smooth="yes"/>
      <point x="23" y="567"/>
      <point x="30" y="551"/>
      <point x="40" y="545" type="curve"/>
      <point x="40" y="544" type="line"/>
      <point x="-116" y="544" type="line" smooth="yes"/>
      <point x="-117" y="544"/>
      <point x="-118" y="543"/>
      <point x="-118" y="542" type="curve" smooth="yes"/>
      <point x="-118" y="487" type="line" smooth="yes"/>
      <point x="-118" y="486"/>
      <point x="-117" y="485"/>
    </contour>
  </outline>
</glyph>
<glyph name="meemStopabove-ar" format="2">
  <unicode hex="06E2"/>
  <note>
uni06E2
</note>
  <anchor x="0" y="902" name="_top"/>
  <anchor x="0" y="898" name="_top2"/>
  <anchor x="2" y="1269" name="top"/>
  <outline>
    <contour>
      <point x="-129" y="1041" type="curve" smooth="yes"/>
      <point x="-129" y="916" type="line"/>
      <point x="-51" y="916" type="line"/>
      <point x="-51" y="1013" type="line" smooth="yes"/>
      <point x="-51" y="1040"/>
      <point x="-40" y="1044"/>
      <point x="-17" y="1044" type="curve" smooth="yes"/>
      <point x="8" y="1044" type="line" smooth="yes"/>
      <point x="79" y="1044"/>
      <point x="129" y="1089"/>
      <point x="129" y="1149" type="curve" smooth="yes"/>
      <point x="129" y="1208"/>
      <point x="87" y="1247"/>
      <point x="25" y="1247" type="curve" smooth="yes"/>
      <point x="1" y="1247"/>
      <point x="-27" y="1241"/>
      <point x="-60" y="1228" type="curve"/>
      <point x="-73" y="1210"/>
      <point x="-83" y="1173"/>
      <point x="-83" y="1151" type="curve" smooth="yes"/>
      <point x="-83" y="1132"/>
      <point x="-81" y="1116"/>
      <point x="-76" y="1103" type="curve"/>
      <point x="-112" y="1097"/>
      <point x="-129" y="1078"/>
    </contour>
    <contour>
      <point x="-16" y="1131" type="curve" smooth="yes"/>
      <point x="-16" y="1146"/>
      <point x="-13" y="1162"/>
      <point x="-9" y="1180" type="curve"/>
      <point x="3" y="1185"/>
      <point x="13" y="1187"/>
      <point x="21" y="1187" type="curve" smooth="yes"/>
      <point x="41" y="1187"/>
      <point x="53" y="1175"/>
      <point x="53" y="1151" type="curve" smooth="yes"/>
      <point x="53" y="1117"/>
      <point x="25" y="1103"/>
      <point x="-3" y="1103" type="curve" smooth="yes"/>
      <point x="-9" y="1103" type="line"/>
      <point x="-14" y="1114"/>
      <point x="-16" y="1123"/>
    </contour>
  </outline>
</glyph>
<glyph name="seenbelow-ar" format="2">
  <unicode hex="06E3"/>
  <note>
uni06E3
</note>
  <anchor x="-1" y="52" name="_bottom"/>
  <anchor x="2" y="52" name="_bottom2"/>
  <anchor x="0" y="-251" name="bottom"/>
  <outline>
    <contour>
      <point x="169" y="-144" type="curve" smooth="yes"/>
      <point x="270" y="-144" type="line"/>
      <point x="270" y="57" type="line"/>
      <point x="193" y="57" type="line"/>
      <point x="193" y="-85" type="line"/>
      <point x="167" y="-85" type="line" smooth="yes"/>
      <point x="152" y="-85"/>
      <point x="142" y="-82"/>
      <point x="127" y="-65" type="curve"/>
      <point x="129" y="-59"/>
      <point x="130" y="-52"/>
      <point x="130" y="-46" type="curve"/>
      <point x="130" y="26" type="line"/>
      <point x="53" y="26" type="line"/>
      <point x="53" y="-38" type="line" smooth="yes"/>
      <point x="53" y="-70"/>
      <point x="47" y="-85"/>
      <point x="16" y="-85" type="curve" smooth="yes"/>
      <point x="-11" y="-85" type="line"/>
      <point x="-11" y="26" type="line"/>
      <point x="-88" y="26" type="line"/>
      <point x="-88" y="-117" type="line" smooth="yes"/>
      <point x="-88" y="-159"/>
      <point x="-108" y="-181"/>
      <point x="-144" y="-181" type="curve" smooth="yes"/>
      <point x="-151" y="-181" type="line" smooth="yes"/>
      <point x="-180" y="-181"/>
      <point x="-205" y="-158"/>
      <point x="-205" y="-113" type="curve" smooth="yes"/>
      <point x="-205" y="-86"/>
      <point x="-198" y="-59"/>
      <point x="-192" y="-36" type="curve"/>
      <point x="-256" y="-36" type="line"/>
      <point x="-273" y="-64"/>
      <point x="-281" y="-93"/>
      <point x="-281" y="-122" type="curve" smooth="yes"/>
      <point x="-281" y="-191"/>
      <point x="-232" y="-240"/>
      <point x="-152" y="-240" type="curve" smooth="yes"/>
      <point x="-142" y="-240" type="line" smooth="yes"/>
      <point x="-64" y="-240"/>
      <point x="-21" y="-208"/>
      <point x="-13" y="-144" type="curve"/>
      <point x="36" y="-144" type="line" smooth="yes"/>
      <point x="68" y="-144"/>
      <point x="92" y="-134"/>
      <point x="109" y="-113" type="curve"/>
      <point x="132" y="-137"/>
      <point x="155" y="-144"/>
    </contour>
  </outline>
</glyph>
